<svg width="1440" height="168" viewBox="0 0 1440 168" fill="none" xmlns="http://www.w3.org/2000/svg">
<g clip-path="url(#clip0_199_425)">
<path d="M590.61 39.4556L385.754 99.9444L180.323 162.012L-22.1182 225.286L-21.7217 321.187L186.658 258.524L389.77 195.04L594.99 132.951L590.61 39.4556Z" fill="#E47048"/>
<path d="M-29.7661 56.916L-27.2386 123.526L221.445 48.011L-29.7661 56.916Z" fill="#E47048"/>
<path d="M591.617 35.5875L407.492 41.5198L224.361 49.112L-28.0018 123.76L-24.873 226.071L181.04 162.457L388.432 101.593L592.93 38.9314L591.617 35.5875Z" fill="#DFDAD1"/>
<path d="M593.568 134.383L391.492 196.096L184.338 257.088L-18.8424 319.957L-15.8152 420.086L190.782 359.878L392.339 295.45L601.414 234.546L593.568 134.383Z" fill="#DFDAD1"/>
<path d="M1091.24 479.385L1085.61 385.533L1082.45 293.533L1085.25 201.31L1082.54 109.274L1078.52 16.8051L1276.13 12.5358L1468.17 4.87927L1473.02 95.2799L1483.26 187.026L1490.41 278.893L1483.94 371.258L1483.34 461.403L1292.32 466.965L1091.24 479.385Z" fill="#E47048"/>
<path d="M530.894 499.3L535.872 405.235L537.667 313.057L524.747 221.397L520.235 129.426L519.557 37.4253L707.013 33.7061L894.478 21.7543L1077.48 19.0474L1088.03 109.077L1084.06 201.333L1098.15 292.951L1094.04 385.231L1098.93 477.267L910.969 481.906L723.246 487.967L530.894 499.3Z" fill="#766591"/>
<path d="M1140.2 115.518L1138.4 62.7686L1363.88 54.3155L1366.61 108.286L1140.2 115.518Z" fill="#A1CCE4"/>
<path d="M1148.44 338.808L1143.72 239.876L1142.36 141.225L1367.12 132.328L1374.3 231.612L1373.01 330.71L1148.44 338.808Z" fill="#F0E5D8"/>
<path d="M780.164 273.103L773.599 174.738L773.462 76.2885L994.82 68.4044L1003.67 166.492L1006.79 266.726L780.164 273.103Z" fill="#FDCA85"/>
<path d="M813.063 395.595L810.784 309.139L800.608 222.281L798.23 134.409L929.617 130.415L935.099 217.461L931.681 304.807L940.728 392.166L813.063 395.595Z" fill="#F0E5D8"/>
<path d="M704.588 119.399L623.495 88.484L625.699 136.917L706.063 167.083L704.588 119.399Z" fill="#F0E5D8"/>
<path d="M702.613 55.15L644.901 57.3359L703.202 79.4239L702.613 55.15Z" fill="#F0E5D8"/>
<path d="M703.823 79.1272L644.723 57.5873L623.719 58.193L624.236 88.9083L704.785 119.676L703.823 79.1272Z" fill="#4975C3"/>
<path d="M705.61 167.511L626.02 137.395L627.857 176.903L708.041 207.929L705.61 167.511Z" fill="#4975C3"/>
<path d="M383.742 464.069L374.586 373.039L368.764 280.399L368.196 187.551L367.923 95.105L595.713 84.5992L595.298 179.413L595.819 272.242L594.518 365.157L599.732 455.829L383.742 464.069Z" fill="#FDCA85"/>
<path d="M433.806 418.83L424.474 325.473L421.594 231.425L424.32 137.822L594.274 130.614L601.094 224.982L595.612 319.33L598.724 412.047L433.806 418.83Z" fill="#F0E5D8"/>
<path d="M32.5879 499.459L26.4573 413.887L21.5794 329.985L19.7376 245.964L22.2401 161.778L22.3828 78.9696L314.696 67.102L325.464 150.911L319.994 235.184L320.435 319.255L319.427 403.387L327.436 485.903L32.5879 499.459Z" fill="#4975C3"/>
<path d="M91.1208 412.52L83.9288 327.348L82.9208 241.142L78.5343 154.635L257.464 149.888L262.818 234.694L268.498 320.734L272.339 407.672L91.1208 412.52Z" fill="#F0E5D8"/>
</g>
<defs>
<clipPath id="clip0_199_425">
<rect width="464.384" height="1513.68" fill="white" transform="translate(1480.44 0.754395) rotate(87.9475)"/>
</clipPath>
</defs>
</svg>
