<svg width="549" height="170" viewBox="0 0 549 170" fill="none" xmlns="http://www.w3.org/2000/svg">
<g clip-path="url(#clip0_321_16)">
<path d="M83.2664 56.4398L70.5078 5.04829L54.2426 -41.3424L103.334 -29.862L149.622 -19.2209L117.828 18.7811L83.2664 56.4398Z" fill="#F7C480"/>
<path d="M184.778 79.8179L167.101 30.3975L152.67 -18.531L201.85 -6.91124L251.115 4.35321L216.478 41.7942L184.778 79.8179Z" fill="#76658B"/>
<path d="M280.378 102.022L268.626 53.954L251.132 4.31958L300.393 15.9208L349.426 27.3219L315.106 64.7929L280.378 102.022Z" fill="#9BC6DE"/>
<path d="M448.16 50.0766L447.386 50.841L413.42 87.4937L382.546 122.548L364.306 76.1517L349.789 27.4345L448.16 50.0766Z" fill="#DE7048"/>
<path d="M447.192 49.9485L447.455 50.9068L448.135 50.1708L447.192 49.9515L447.192 49.9485Z" fill="#4975BD"/>
<path d="M548.555 72.595L509.953 110.603L476.98 150.053L459.573 95.699L447.55 50.8822L448.268 50.1299L447.319 49.828L446.901 48.8521L548.555 72.595Z" fill="#4975BD"/>
<path d="M575.87 85.8548L464.871 58.6388L353.132 34.7218L241.851 8.82252L130.931 -18.6283L19.4536 -43.7198L26.4044 -48.3108L137.038 -22.046L248.365 1.23742L358.969 27.6675L469.608 53.9521L582.273 80.4575L575.87 85.8548Z" fill="#092F63"/>
</g>
<defs>
<clipPath id="clip0_321_16">
<rect width="574.271" height="93.1879" fill="white" transform="translate(21.2741 -51.5515) rotate(13.0864)"/>
</clipPath>
</defs>
</svg>
