<svg width="520" height="675" viewBox="0 0 520 675" fill="none" xmlns="http://www.w3.org/2000/svg">
<path d="M22.4572 381.965L7.96868 700.091L0 717L692.96 717L706 -48L-3.26684e-05 -30.3665L32.1162 201.525L17.1447 282.204L22.4572 381.965Z" fill="#FCF6EE"/>
<path d="M64.5786 593.087V590.833C62.2103 592.86 60.3516 593.879 56.6342 593.879C52.3533 593.879 47.8985 591.678 46.2677 589.82C44.1272 587.23 43 582.661 43 578.662C43 569.644 48.582 563.223 56.5803 563.223C59.6261 563.223 62.1023 563.954 64.3567 565.705L64.5846 552.91H73.4882V593.093H64.5846L64.5786 593.087ZM63.7871 573.362C62.7739 571.443 60.8552 570.094 57.8154 570.094C54.5477 570.094 51.7837 574.321 51.7837 578.884C51.7837 582.601 54.0921 586.21 57.3058 586.21C61.8145 586.21 64.5186 583.392 64.5186 580.125C64.5186 578.038 64.5726 574.771 63.7871 573.362Z" fill="#140A44"/>
<path d="M84.5863 603.628C82.164 606.11 77.0917 606.841 71.6835 605.486L73.6561 597.764C77.3195 598.723 78.5606 598.441 78.5606 593.705L78.2788 565.021L86.6728 565.189V595.845C86.6728 599.455 85.5996 602.555 84.5863 603.622V603.628ZM77.6553 556.46C77.6553 553.977 80.1375 551.501 82.4998 551.501C84.8621 551.501 87.5722 553.983 87.5722 556.46C87.5722 558.936 85.5456 561.814 82.5538 561.814C79.7358 561.814 77.6493 558.882 77.6493 556.46H77.6553Z" fill="#140A44"/>
<path d="M112.088 593.087L111.861 590.833C109.66 592.859 107.748 594.101 104.594 594.101C100.984 594.101 96.9853 592.746 95.4084 591.169C92.5904 588.351 91.2354 583.56 91.2354 578.656C91.2354 570.483 96.2538 564.398 104.534 564.398C107.016 564.398 109.774 564.961 111.801 566.934L111.855 565.015H121.208C121.208 574.369 120.872 583.728 121.208 593.081H112.076L112.088 593.087ZM110.452 572.744C109.157 571.563 107.016 571.107 105.211 571.107C101.152 571.107 99.5215 574.603 99.5215 578.716C99.5215 582.829 101.722 586.156 105.271 586.546C109.103 586.996 112.202 582.997 112.202 578.602C112.202 575.73 111.471 573.583 110.458 572.738L110.452 572.744Z" fill="#140A44"/>
<path d="M134.069 567.276C136.095 565.303 137.45 564.344 143.086 564.344C147.595 564.344 151.936 569.698 151.936 575.388V593.081C149.172 592.967 146.246 593.135 143.146 593.195V575.838C143.146 572.342 141.228 570.819 139.819 570.819C136.155 570.819 134.069 572.96 134.069 576.569L133.901 592.799L125.561 593.081V565.015H134.069V567.27V567.276Z" fill="#140A44"/>
<path d="M170.817 599.119C173.97 598.723 176.788 597.093 176.788 592.698V591.798C174.42 593.657 171.83 594.107 169.575 594.107C166.08 594.107 163.208 593.429 160.9 591.517C157.632 588.812 155.599 584.472 155.599 576.809C155.599 570.837 161.631 564.356 168.334 564.356C171.434 564.356 174.306 565.255 176.62 567.006L176.788 564.47L185.578 565.033V592.026C185.578 600.312 178.869 606.452 173.293 606.566C164.671 607.015 160.558 604.365 158.136 601.493L164.449 596.589C165.63 598.448 168.34 599.521 170.817 599.125V599.119ZM170.367 587.116C174.426 587.116 177.466 584.244 177.466 581.144C177.466 578.044 177.016 575.844 176.111 574.549C174.93 572.804 172.729 571.677 170.421 571.677C168.112 571.677 166.59 572.918 165.516 574.327C164.275 575.904 164.221 577.936 164.221 579.453C164.221 584.016 166.422 587.116 170.367 587.116Z" fill="#140A44"/>
<path d="M192.965 568.853C196.01 565.921 200.064 563.948 204.686 563.948C208.799 563.948 213.14 564.961 215.73 566.994C217.475 568.571 220.185 574.716 220.185 579.165C220.185 587.673 213.422 594.322 204.572 594.322C201.922 594.322 197.923 593.705 196.628 592.913C191.837 590.323 189.187 584.855 189.187 578.883C189.187 575.166 191.214 570.597 192.965 568.853ZM204.518 587.002C206.659 587.002 209.195 586.156 210.1 585.311C211.563 584.07 212.019 581.534 212.019 579.111C212.019 574.375 208.919 571.281 204.578 571.281C200.237 571.281 197.701 574.381 197.701 578.943C197.701 583.506 200.237 587.002 204.518 587.002Z" fill="#140A44"/>
<path d="M227.458 567.108C229.485 565.363 234.389 563.84 238.448 563.84C242.112 563.84 245.943 565.477 248.251 568.067C246.614 569.812 245.037 571.395 243.856 573.368C241.716 571.281 240.643 570.717 236.865 570.945C233.712 571.059 231.229 573.931 231.229 579.171C231.229 583.512 233.484 586.216 237.543 586.216C240.475 586.216 241.656 585.371 244.078 582.949L248.419 587.23C245.547 591.175 242.219 593.711 238.442 593.879C234.101 594.107 229.029 592.638 227.056 590.833C224.07 588.183 222.715 583.452 222.715 579.225C222.715 574.153 224.238 569.812 227.452 567.108H227.458Z" fill="#140A44"/>
<path d="M254.679 568.853C257.724 565.921 261.777 563.948 266.4 563.948C270.513 563.948 274.854 564.961 277.444 566.994C279.189 568.571 281.899 574.716 281.899 579.165C281.899 587.673 275.136 594.322 266.286 594.322C263.636 594.322 259.637 593.705 258.342 592.913C253.551 590.323 250.901 584.855 250.901 578.883C250.901 575.166 252.928 570.597 254.679 568.853ZM266.232 587.002C268.373 587.002 270.909 586.156 271.814 585.311C273.277 584.07 273.733 581.534 273.733 579.111C273.733 574.375 270.633 571.281 266.292 571.281C261.951 571.281 259.415 574.381 259.415 578.943C259.415 583.506 261.951 587.002 266.232 587.002Z" fill="#140A44"/>
<path d="M293.962 567.276C295.989 565.303 297.344 564.344 302.98 564.344C307.489 564.344 311.83 569.698 311.83 575.388V593.081C309.066 592.967 306.14 593.135 303.04 593.195V575.838C303.04 572.342 301.121 570.819 299.712 570.819C296.049 570.819 293.962 572.96 293.962 576.569L293.795 592.799L285.454 593.081V565.015H293.962V567.27V567.276Z" fill="#140A44"/>
<path d="M320.338 584.412C323.605 584.412 325.692 587.511 325.296 589.652C324.732 592.47 322.646 594.329 319.774 594.329C317.633 594.329 315.715 592.074 315.715 589.31C315.715 587.392 317.573 584.406 320.338 584.406V584.412Z" fill="#140A44"/>
<path d="M335.075 571.365V584.178C335.075 587.074 336.52 588.873 339.11 588.873C341.215 588.873 342.048 586.984 342.048 585.275V571.281L348.673 571.323V583.171C348.673 590.851 345.43 594.053 338.714 594.053C335.117 594.053 332.575 593.309 330.902 591.553C329.847 590.413 328.797 587.428 328.797 584.622V571.593L335.069 571.371L335.075 571.365Z" fill="#140A44"/>
<path d="M350.472 589.13L355.778 586.63C357.223 588.518 358.146 588.956 360.563 589.088C361.792 589.13 363.369 588.213 363.369 586.804C363.369 584.915 361.042 585.047 358.41 584.345C353.716 583.116 351.479 580.922 351.479 577.852C351.479 573.769 354.945 570.789 360.911 570.789C362.272 570.789 364.73 571.095 366.091 571.665C367.626 572.276 368.987 573.901 369.514 575.04L365.126 577.63C364.028 575.922 362.667 575.304 361.09 575.304C359.25 575.304 358.153 576.623 358.153 577.714C358.153 578.805 359.028 579.159 362.014 579.687C368.153 580.916 370 583.062 370 586.75C370 591.139 366.708 593.987 360.263 593.987C356.27 593.987 352.409 592.889 350.478 589.118L350.472 589.13Z" fill="#140A44"/>
<path d="M108.197 535.007C108.197 532.914 107.058 531.511 104.816 531.397C102.801 531.32 101.854 532.459 101.32 535.918L95.2766 534.971C95.5824 532.956 96.6856 530.75 97.1773 529.952C98.6222 527.632 101.89 526.265 106.219 526.265C109.223 526.265 114.007 528.813 113.779 535.654C113.743 537.555 113.132 539.57 107.964 544.354L104.504 547.7L113.965 547.508L113.737 553.893L95.7982 553.552L96.0261 550.32C98.0406 545.116 102.184 543.059 104.462 540.703C107.88 537.357 108.185 536.218 108.185 535.001L108.197 535.007Z" fill="#4975C3"/>
<path d="M117.701 533.22C119.259 529.953 123.019 526.529 126.023 526.457C130.771 526.193 132.672 528.208 134.117 530.336C135.064 531.781 136.737 536.338 136.737 540.181C136.737 544.025 135.562 547.898 133.889 550.404C132.786 551.927 129.596 554.241 126.442 554.241C123.289 554.241 120.213 552.227 118.918 550.326C117.281 547.82 116.142 543.983 116.142 539.989C116.142 537.064 116.675 535.313 117.701 533.226V533.22ZM129.824 545.08C130.507 543.863 131.269 541.926 131.269 540.103C131.269 537.861 130.471 535.469 129.788 534.402C129.218 533.49 127.737 532.501 126.406 532.501C125.003 532.501 123.858 533.676 123.139 535.163C122.455 536.452 122.113 538.281 122.113 540.181C122.113 542.082 122.419 543.791 123.025 545.008C123.558 546.183 124.925 547.214 126.442 547.214C127.959 547.214 129.218 546.303 129.824 545.086V545.08Z" fill="#4975C3"/>
<path d="M150.881 535.007C150.881 532.914 149.742 531.511 147.499 531.397C145.485 531.32 144.537 532.459 144.004 535.918L137.96 534.971C138.266 532.956 139.363 530.75 139.861 529.952C141.306 527.632 144.573 526.265 148.908 526.265C151.912 526.265 156.697 528.813 156.469 535.654C156.433 537.555 155.821 539.57 150.653 544.354L147.193 547.7L156.655 547.508L156.427 553.893L138.488 553.552L138.715 550.32C140.73 545.116 144.873 543.059 147.151 540.703C150.569 537.357 150.875 536.218 150.875 535.001L150.881 535.007Z" fill="#4975C3"/>
<path d="M158.819 545.529L164.215 544.732C164.635 547.238 165.738 548.491 167.939 548.491C169.114 548.491 170.373 548.072 170.829 547.58C171.398 546.974 171.662 546.327 171.662 545.452C171.662 542.831 170.409 541.536 165.696 541.878V537.279C169.803 537.393 171.242 536.446 171.242 534.09C171.242 532.417 169.911 531.086 168.316 531.086C166.11 531.086 165.127 531.961 164.443 534.959L160.222 534.425L159.233 534.048C159.575 531.5 160.678 529.563 161.361 528.801C162.842 527.321 165.39 526.253 168.316 526.253C171.242 526.253 174.018 527.506 175.535 529.257C176.219 530.133 176.902 532.105 176.902 534.048C176.902 534.995 176.638 536.782 176.333 537.621C176.105 538.305 175.385 538.952 174.546 539.522C176.297 540.931 177.28 542.562 177.28 545.338C177.28 547.844 176.333 550.77 174.618 552.257C173.443 553.318 170.667 554.157 167.855 554.157C161.853 554.157 159.191 550.47 158.813 545.529H158.819Z" fill="#4975C3"/>
<path d="M213.68 617.37C213.68 625.464 207.45 630.896 198.708 630.896H190.578V603.802H198.75C209.693 603.802 213.686 609.234 213.686 617.37H213.68ZM208.32 615.967C208.32 611.29 205.244 608.748 200.873 608.67L197.683 608.592V624.589L201.143 624.325C205.55 624.133 208.326 621.249 208.326 615.967H208.32Z" fill="#4975C3"/>
<path d="M216.57 620.907C216.57 615.433 216.57 609.126 216.912 603.808C219.346 604.071 221.738 604.149 224.514 604.113L224.322 617.07C224.13 624.289 225.995 625.506 228.807 625.506C231.883 625.506 233.442 624.331 233.37 620.188C233.22 614.714 233.22 609.204 232.95 603.736L239.222 603.586V620.913C239.222 623.917 238.766 626.082 237.855 627.257C236.068 629.577 231.889 631.664 228.01 631.664C224.13 631.664 220.563 630.219 218.776 627.862C217.445 626.226 216.57 623.983 216.57 620.907Z" fill="#4975C3"/>
<path d="M263.198 611.902C263.198 615.589 261.717 617.298 259.019 618.707L265.896 629.08L259.817 630.902L252.292 619.96H249.288V630.902H242.711V603.808H253.425C259.505 603.808 263.192 606.506 263.192 611.902H263.198ZM256.435 611.596C256.435 608.934 254.798 607.987 252.292 608.364L248.797 608.556V615.283L252.064 615.247C254.954 615.056 256.435 613.88 256.435 611.602V611.596Z" fill="#4975C3"/>
<path d="M274.944 613.796H283.949L284.327 603.802H290.713C290.976 612.729 291.054 621.741 290.976 630.896L284.633 631.01L283.871 618.545L275.172 618.737L275.513 630.896H268.217L268.636 603.802H274.566L274.944 613.796Z" fill="#4975C3"/>
<path d="M310.438 603.616L318.497 630.902H313.137L311.044 625.428H302.53L300.174 630.902H292.343C295.917 621.555 299.676 612.549 303.741 603.808L310.432 603.616H310.438ZM306.979 612.13L303.747 620.985L309.677 620.871L306.979 612.13Z" fill="#4975C3"/>
<path d="M348.667 630.902H342.246L341.676 615.134L336.472 627.563L333.054 627.413L326.477 616.087V631.172L320.283 630.908L320.475 603.814L325.757 603.778L333.204 618.257L341.64 603.814C343.733 603.664 345.819 603.586 347.912 603.622C347.99 612.705 348.253 621.747 348.673 630.908L348.667 630.902Z" fill="#4975C3"/>
<path d="M463.18 579.294L428.415 636.089L415.796 570.972L438.936 543.431L457.968 546.56L463.18 579.294Z" fill="#F8C580"/>
<path d="M427.164 643.306L412.54 570.221L438.331 541.443L460.292 544.35L465.552 579.754L427.164 643.306ZM418.239 571.631L429.54 629.605L460.854 578.85L455.346 548.946L440.079 546.348L418.247 571.632L418.239 571.631Z" fill="#F8C580"/>
<path d="M429.325 560.933L415.344 570.39L407.069 562.211L411.571 538.962L447.173 527.905L477.13 550.207L473.65 573.837L462.732 578.883L452.876 565.626L438.1 580.187L429.325 560.933Z" fill="#9CC7DF"/>
<path d="M437.464 583.9L428.214 564.953L415.015 574.537L404.332 563.011L409.407 537.02L447.654 525.132L480.287 548.856L475.272 575.157L461.723 582.734L452.51 568.63L437.455 583.906L437.464 583.9ZM430.2 557.482L438.927 575.462L453.205 561.106L463.524 575.815L471.531 572.245L474.785 551.091L446.681 530.701L413.197 540.258L410.251 561.368L415.746 568.074L430.193 557.473L430.2 557.482Z" fill="#9CC7DF"/>
<path d="M463.815 623.813L457.89 615.611L468.321 597.828L472.054 618.067L463.815 623.813Z" fill="#9CC7DF"/>
<path d="M463.221 627.24L455.194 615.752L469.493 591.069L474.891 619.168L463.221 627.24ZM460.752 615.491L464.355 620.701L469.32 616.976L467.11 604.809L460.752 615.491Z" fill="#9CC7DF"/>
<path d="M454.169 529.329L451.663 527.58L461.707 512.449L481.931 505.803L482.958 509.106L464.012 515.543L454.169 529.329Z" fill="#092F63"/>
<path d="M464.666 515.145L476.293 516.731L481.827 531.268L467.475 526.759L464.666 515.145Z" fill="#4975BE"/>
<path d="M484.704 533.967L466.003 528.127L462.541 513.211L477.351 515.357L484.704 533.967ZM468.898 525.431L478.928 528.55L475.067 518.28L466.833 517.112L468.9 525.424L468.898 525.431Z" fill="#4975BE"/>
<path d="M453.644 510.767L451.024 496.053L464.597 503.366L464.736 514.93L453.644 510.767Z" fill="#4975BE"/>
<path d="M466.565 517.536L452.006 512.114L448.654 492.77L466.433 502.239L466.565 517.536ZM455.228 509.451L462.94 512.363L462.94 504.353L453.343 499.256L455.228 509.451Z" fill="#4975BE"/>
<path d="M452.316 549.752L438.985 548.536L433.455 536.507L440.601 525.678L453.774 527.159L459.781 538.962L452.316 549.752Z" fill="#DF7048"/>
<path d="M438.25 549.585L431.756 536.375L439.904 524.178L454.836 525.623L461.473 539.085L453.058 551.325L438.258 549.587L438.25 549.585ZM434.753 536.603L439.94 547.143L451.496 547.97L457.899 538.814L452.819 528.543L441.465 527.532L434.76 536.612L434.753 536.603Z" fill="#DF7048"/>
</svg>
