<?xml version="1.0" encoding="UTF-8" standalone="no"?>
<!DOCTYPE svg PUBLIC "-//W3C//DTD SVG 1.1//EN" "http://www.w3.org/Graphics/SVG/1.1/DTD/svg11.dtd">
<svg width="100%" height="100%" viewBox="0 0 300 90" version="1.1" xmlns="http://www.w3.org/2000/svg" xmlns:xlink="http://www.w3.org/1999/xlink" xml:space="preserve" xmlns:serif="http://www.serif.com/" style="fill-rule:evenodd;clip-rule:evenodd;stroke-linejoin:round;stroke-miterlimit:2;">
    <path d="M136.2,31.8C132.3,31 128.4,30.6 124.5,30.6C111.4,30.6 103.9,36.3 103.9,46.4C103.9,54.5 108.9,59.7 116.7,59.7C118.7,59.8 120.7,59.3 122.4,58.5L122.4,58.7C122.4,64.4 119.9,66.7 114,66.7C110.6,66.7 107.3,65.9 104.4,64.3L104.4,72.5C107.5,73.6 110.7,74.2 114,74.2C118.7,74.2 122.5,73.2 125.3,71.1C125.8,70.8 126.2,70.4 126.6,70.1C127.4,69.4 127.9,68.7 128.5,67.7C130.4,64.7 131.1,61.1 131.1,53.6L131.1,51.1C131,49.9 131,48.6 131,47.4L130.9,42.6L130.8,38.8L130.8,37.9C132.6,38.1 130.4,37.7 132.8,38.1L136.2,31.8ZM34.2,48.6C34.2,56.3 33.8,59.2 32.5,61.8C31.2,64.4 29.3,65.9 25.3,67.7L33.6,71.7C37.6,69.8 39.4,67.9 41,65.1C42.4,62.3 43.1,58.8 43.1,51.6L43.1,31.1L34.1,31.1L34.2,48.6ZM292.3,48.5C290.9,47.8 291,47.1 291,47.1C291,47.1 291,45.9 293.5,45.9C295.3,45.9 297.1,46.4 298.7,47.1L298.7,42.4C296.8,41.5 294.6,41.1 292.4,41.3C285.1,41.6 285.2,47 285.2,47C285,48.4 285.6,49.9 286.5,51.1C288,52.3 289.8,53.4 291.6,54C292.9,54.5 293.4,55.1 293.4,55.4C293.4,55.7 293.6,56.7 290.9,56.7C288.9,56.6 286.9,56 285.2,55.2L285.2,60.1C287.9,61.1 290.9,61.5 293.7,61.1C296.4,60.6 299.1,59.8 299.4,55.4C299.6,51.1 295.3,49.8 292.3,48.5ZM281,59.1C282.2,57.8 282.7,56.3 282.7,53.3L282.7,41.1L276.5,41.1L276.5,53C276.5,55.5 275.7,56.3 273.5,56.3C272.6,56.3 271.6,56.1 270.6,55.8L270.6,41.1L264.5,41.1L264.5,59.8C267.7,60.6 270.9,61.1 274.3,61.1C277.3,61.3 279.7,60.6 281,59.1ZM223.8,45.5C223.8,36.5 218.3,30.9 209.4,30.9C200.3,30.9 194.6,36.6 194.6,46.1C194.6,55.1 200.1,60.7 209.1,60.7C218,60.7 223.8,54.8 223.8,45.5ZM149.7,60.2C158.7,60.2 164.5,54.5 164.5,45C164.5,36 159,30.4 150.1,30.4C141,30.4 135.3,36.1 135.3,45.6C135.3,54.5 140.8,60.2 149.7,60.2ZM172,56.5C174.9,59.2 180.2,60.2 183.8,60.1C186.6,60.1 189.4,59.4 191.9,58.1L191.9,50.9C190,51.8 187.8,52.4 185.8,52.4C182.3,52.4 176.8,51.1 176.8,44.9C176.8,38.7 182.3,37.4 185.8,37.4C187.9,37.4 189.9,38.1 191.7,39.1L191.7,31.8C189.2,30.7 186.6,30.1 183.9,30.1C180.3,30.1 175.4,31.1 172.5,34C169.4,36.8 167.6,40.8 167.6,44.9C167.1,49.2 168.8,53.5 172,56.5ZM243.9,42.8L243.9,59.9L252.9,59.9L252.9,42.4C252.9,38 252.3,35.8 250.4,34C248.6,32.2 245.1,30.9 240.5,30.9C235.8,31 231,31.7 226.5,32.9L226.5,60L235.5,60L235.5,38.8C236.8,38.4 238.2,38.1 239.6,38.2C242.7,38.1 243.9,39.4 243.9,42.8ZM255.1,52.7L262.3,52.7L262.3,59.9L255.1,59.9L255.1,52.7ZM60.4,30.5C56.3,30.5 52.2,31.3 48.5,33.2L48.5,40C51.8,38.3 55.4,37.4 59,37.3C61.3,37.3 62.1,37.9 62.1,39.6L62.1,41.5C51.1,42.4 46.5,45.3 46.5,51.5C46.5,57.2 49.9,59.9 57.4,59.9C61.6,59.9 66,59.5 70.2,59L70.2,40.8C70.2,37.1 70,35.4 69.3,34C68,31.6 65.1,30.5 60.4,30.5ZM28.9,17.4L19.9,17.4L19.9,31C18.7,30.7 17.3,30.5 15.9,30.5C6.6,30.5 0.5,36.3 0.5,45.4C0.5,54.8 6.2,59.6 17.2,59.7C21.2,59.7 25,59.3 28.9,58.6L28.9,17.4ZM88.8,30.5C84.1,30.6 79.3,31.3 74.8,32.5L74.8,59.4L83.8,59.4L83.8,38.2C85.1,37.8 86.5,37.5 87.9,37.5C91.1,37.5 92.2,38.7 92.2,42.2L92.2,59.3L101.2,59.3L101.2,41.9C101.2,37.5 100.6,35.3 98.7,33.5C96.9,31.7 93.4,30.5 88.8,30.5ZM62.6,53.2C61.2,53.5 59.7,53.6 58.3,53.6C55.8,53.6 54.7,52.8 54.7,51.1C54.7,48.7 56.6,47.8 62.6,47.2L62.6,53.2ZM203.6,45.7C203.6,40.8 205.6,38 209.2,38C212.8,38 214.6,40.9 214.6,45.7C214.6,50.5 212.6,53.4 209.1,53.4C205.6,53.4 203.6,50.7 203.6,45.7ZM150,37.5C153.5,37.5 155.4,40.4 155.4,45.2C155.4,50 153.4,52.9 149.9,52.9C146.4,52.9 144.4,50.1 144.4,45.2C144.4,40.3 146.5,37.5 150,37.5ZM19.9,52.4C18.9,52.6 17.9,52.6 16.8,52.6C12.2,52.6 9.6,50 9.6,45.2C9.6,40.4 12.2,37.6 16.8,37.6C17.8,37.6 18.8,37.7 19.8,38.1L19.9,52.4ZM122.7,51.1L122.7,51.8C121.7,52.2 120.4,52.4 119.3,52.4C115.3,52.4 113.2,49.9 113.2,45.4C113.2,42.3 114.3,40.1 116.5,38.8C118,38 119.9,37.5 121.7,37.6L122.6,37.6L122.6,38.3L122.7,41.2L122.8,45.3C122.8,46.5 122.9,47.8 122.9,48.7L122.7,51.1ZM34.2,17.5L43.2,17.5L43.2,26.6L34.2,26.6L34.2,17.5Z" style="fill:rgb(233,156,86);fill-rule:nonzero;"/>
    <g>
        <path d="M139.529,88.289C138.274,87.773 137.323,87.09 136.678,86.241C136.032,85.392 135.69,84.469 135.653,83.473C135.653,83.307 135.712,83.168 135.833,83.058C135.949,82.949 136.103,82.889 136.262,82.892L139.944,82.892C140.166,82.892 140.345,82.929 140.484,83.003C140.622,83.077 140.774,83.206 140.941,83.391C141.181,83.833 141.554,84.198 142.062,84.484C142.569,84.771 143.248,84.913 144.097,84.913C145.094,84.913 145.859,84.761 146.395,84.457C146.929,84.152 147.197,83.732 147.197,83.197C147.197,82.809 147.059,82.49 146.782,82.242C146.504,81.992 146.062,81.772 145.453,81.578C144.844,81.384 143.967,81.167 142.823,80.927C140.589,80.484 138.919,79.81 137.812,78.906C136.705,78.002 136.151,76.71 136.151,75.03C136.151,73.886 136.469,72.866 137.106,71.971C137.743,71.076 138.647,70.379 139.819,69.88C140.991,69.383 142.351,69.133 143.902,69.133C145.526,69.133 146.934,69.415 148.124,69.977C149.314,70.54 150.227,71.241 150.864,72.081C151.5,72.921 151.837,73.746 151.874,74.558C151.877,74.717 151.817,74.871 151.708,74.987C151.603,75.105 151.451,75.171 151.293,75.167L147.417,75.167C147.011,75.167 146.697,75.001 146.476,74.669C146.365,74.281 146.079,73.954 145.617,73.686C145.156,73.419 144.583,73.285 143.901,73.285C143.126,73.285 142.526,73.424 142.101,73.7C141.677,73.977 141.464,74.383 141.464,74.918C141.464,75.453 141.742,75.872 142.295,76.177C142.848,76.482 143.882,76.791 145.396,77.104C147.13,77.419 148.51,77.811 149.534,78.281C150.559,78.751 151.315,79.361 151.804,80.109C152.293,80.856 152.538,81.802 152.538,82.946C152.538,84.201 152.178,85.29 151.458,86.213C150.739,87.137 149.742,87.842 148.469,88.331C147.195,88.82 145.737,89.065 144.095,89.065C142.306,89.064 140.783,88.806 139.529,88.289ZM153.412,88.608C153.3,88.504 153.235,88.359 153.233,88.206C153.233,88.095 153.242,88.012 153.26,87.957L159.711,70.211C159.896,69.676 160.265,69.408 160.819,69.408L165.137,69.408C165.691,69.408 166.06,69.676 166.245,70.211L172.696,87.957C172.718,88.038 172.727,88.122 172.724,88.206C172.724,88.354 172.664,88.488 172.544,88.608C172.424,88.728 172.29,88.787 172.143,88.787L168.544,88.787C168.101,88.787 167.787,88.584 167.602,88.178L166.606,85.493L159.352,85.493L158.355,88.178C158.17,88.584 157.857,88.787 157.413,88.787L153.815,88.787C153.662,88.786 153.515,88.721 153.412,88.608ZM160.513,81.341L165.441,81.341L162.977,74.281L160.513,81.341ZM175.033,88.581C174.9,88.455 174.825,88.279 174.826,88.096L174.826,70.129C174.826,69.926 174.89,69.755 175.02,69.617C175.148,69.479 175.33,69.403 175.518,69.409L178.646,69.409C179.07,69.409 179.384,69.585 179.588,69.935L186.122,80.261L186.122,70.129C186.122,69.926 186.186,69.755 186.316,69.617C186.444,69.479 186.626,69.403 186.814,69.409L190.329,69.409C190.532,69.409 190.698,69.478 190.827,69.617C190.956,69.756 191.026,69.94 191.021,70.129L191.021,88.069C191.026,88.258 190.956,88.442 190.827,88.581C190.699,88.718 190.517,88.794 190.329,88.788L187.2,88.788C186.775,88.788 186.461,88.613 186.258,88.263L179.752,78.352L179.752,88.096C179.758,88.284 179.683,88.466 179.545,88.594C179.406,88.724 179.222,88.794 179.032,88.788L175.517,88.788C175.334,88.788 175.159,88.713 175.033,88.581ZM200.806,88.581C200.673,88.455 200.598,88.279 200.599,88.096L200.599,70.129C200.599,69.926 200.663,69.755 200.793,69.617C200.921,69.479 201.103,69.403 201.291,69.409L208.572,69.409C211.303,69.409 213.426,70.06 214.94,71.361C216.453,72.662 217.247,74.53 217.321,76.967C217.339,77.502 217.349,78.212 217.349,79.098C217.349,79.984 217.339,80.686 217.321,81.202C217.136,86.259 214.266,88.787 208.711,88.787L201.292,88.787C201.109,88.788 200.933,88.714 200.806,88.581ZM208.572,84.635C209.735,84.635 210.593,84.358 211.147,83.805C211.701,83.251 211.996,82.365 212.033,81.147C212.07,80.612 212.089,79.92 212.089,79.071C212.089,78.222 212.07,77.539 212.033,77.022C211.996,75.841 211.678,74.969 211.078,74.406C210.479,73.844 209.597,73.562 208.435,73.562L205.804,73.562L205.804,84.636L208.572,84.636L208.572,84.635ZM220.711,88.581C220.578,88.455 220.503,88.279 220.504,88.096L220.504,70.101C220.504,69.898 220.573,69.732 220.711,69.603C220.841,69.477 221.015,69.408 221.196,69.409L225.155,69.409C225.358,69.409 225.524,69.474 225.653,69.603C225.782,69.733 225.847,69.899 225.847,70.101L225.847,88.096C225.848,88.277 225.779,88.451 225.653,88.581C225.525,88.718 225.343,88.794 225.155,88.788L221.196,88.788C221.013,88.788 220.838,88.713 220.711,88.581ZM229.82,88.581C229.687,88.455 229.612,88.279 229.613,88.096L229.613,70.129C229.613,69.926 229.677,69.755 229.807,69.617C229.935,69.479 230.117,69.403 230.305,69.409L243.372,69.409C243.575,69.409 243.746,69.478 243.884,69.617C244.021,69.751 244.097,69.937 244.092,70.129L244.092,72.869C244.099,73.057 244.022,73.239 243.884,73.367C243.746,73.497 243.562,73.566 243.372,73.561L234.623,73.561L234.623,77.077L242.762,77.077C242.965,77.077 243.136,77.145 243.274,77.284C243.411,77.419 243.486,77.604 243.482,77.796L243.482,80.316C243.487,80.508 243.411,80.694 243.274,80.828C243.14,80.965 242.954,81.041 242.762,81.036L234.623,81.036L234.623,84.634L243.593,84.634C243.796,84.634 243.966,84.703 244.105,84.842C244.242,84.977 244.317,85.162 244.312,85.354L244.312,88.094C244.318,88.282 244.243,88.464 244.105,88.592C243.967,88.722 243.782,88.791 243.593,88.786L230.304,88.786C230.121,88.788 229.946,88.713 229.82,88.581ZM249.046,87.113C247.533,85.812 246.73,83.953 246.638,81.535C246.615,80.695 246.606,79.855 246.61,79.015C246.61,77.852 246.619,77.004 246.638,76.468C246.711,74.142 247.519,72.339 249.06,71.056C250.601,69.774 252.691,69.132 255.33,69.132C257.102,69.132 258.647,69.419 259.967,69.99C261.286,70.562 262.292,71.296 262.984,72.192C263.676,73.087 264.04,74.005 264.077,74.946C264.079,75.108 264.015,75.263 263.898,75.375C263.786,75.492 263.631,75.557 263.469,75.555L259.178,75.555C258.993,75.555 258.85,75.523 258.749,75.459C258.634,75.381 258.536,75.283 258.458,75.168C258.226,74.639 257.859,74.18 257.393,73.839C256.904,73.47 256.216,73.286 255.33,73.286C253.189,73.286 252.081,74.394 252.008,76.608C251.986,77.401 251.976,78.195 251.98,78.989C251.98,80.06 251.989,80.863 252.008,81.398C252.081,83.742 253.207,84.913 255.385,84.913C256.456,84.913 257.304,84.646 257.933,84.111C258.56,83.576 258.874,82.764 258.874,81.674L258.874,81.176L256.41,81.176C256.218,81.181 256.033,81.106 255.898,80.969C255.761,80.834 255.686,80.649 255.69,80.457L255.69,78.297C255.69,78.094 255.759,77.924 255.898,77.785C256.032,77.648 256.218,77.573 256.41,77.578L263.442,77.578C263.645,77.578 263.816,77.646 263.954,77.785C264.091,77.92 264.166,78.105 264.162,78.297L264.162,81.509C264.162,83.078 263.797,84.43 263.068,85.564C262.339,86.699 261.31,87.567 259.981,88.167C258.652,88.767 257.102,89.066 255.33,89.066C252.654,89.064 250.56,88.415 249.046,87.113ZM269.061,87.155C267.548,85.882 266.745,84.008 266.653,81.535C266.634,81.018 266.625,80.225 266.625,79.154C266.625,78.083 266.634,77.28 266.653,76.745C266.726,74.309 267.534,72.431 269.075,71.112C270.616,69.793 272.678,69.132 275.262,69.132C277.827,69.132 279.881,69.793 281.422,71.112C282.963,72.431 283.77,74.309 283.844,76.745C283.881,77.816 283.899,78.619 283.899,79.154C283.899,79.707 283.881,80.501 283.844,81.535C283.751,84.008 282.954,85.881 281.45,87.155C279.945,88.428 277.883,89.065 275.263,89.065C272.642,89.064 270.575,88.428 269.061,87.155ZM277.561,84.04C278.132,83.459 278.437,82.568 278.474,81.368C278.511,80.298 278.53,79.532 278.53,79.071C278.53,78.61 278.511,77.862 278.474,76.828C278.437,75.629 278.132,74.738 277.561,74.157C276.988,73.576 276.222,73.285 275.263,73.285C274.284,73.285 273.509,73.576 272.937,74.157C272.365,74.738 272.06,75.629 272.024,76.828C272.002,77.575 271.993,78.323 271.996,79.071C271.996,80.067 272.005,80.834 272.024,81.368C272.06,82.568 272.365,83.459 272.937,84.04C273.509,84.621 274.284,84.911 275.263,84.911C276.222,84.912 276.988,84.622 277.561,84.04Z" style="fill:rgb(233,156,86);fill-rule:nonzero;"/>
    </g>
    <g transform="matrix(1,0,0,1,-98.3221,6.91906)">
        <path d="M151.299,14.081C151.094,14.081 150.921,14.011 150.781,13.871C150.641,13.731 150.571,13.568 150.571,13.381L150.571,11.393C150.571,11.262 150.608,11.062 150.683,10.791C150.758,10.52 150.954,10.264 151.271,10.021L154.183,7.165C155.676,6.026 156.904,5.06 157.865,4.267C158.826,3.474 159.54,2.769 160.007,2.153C160.474,1.537 160.707,0.958 160.707,0.417C160.707,-0.218 160.544,-0.745 160.217,-1.165C159.89,-1.585 159.326,-1.795 158.523,-1.795C157.982,-1.795 157.534,-1.678 157.179,-1.445C156.824,-1.212 156.549,-0.908 156.353,-0.535C156.157,-0.162 156.022,0.221 155.947,0.613C155.872,0.856 155.746,1.024 155.569,1.117C155.392,1.21 155.2,1.257 154.995,1.257L151.495,1.257C151.327,1.257 151.187,1.201 151.075,1.089C150.963,0.977 150.907,0.837 150.907,0.669C150.926,-0.227 151.117,-1.072 151.481,-1.865C151.845,-2.658 152.358,-3.354 153.021,-3.951C153.684,-4.548 154.477,-5.02 155.401,-5.365C156.325,-5.71 157.366,-5.883 158.523,-5.883C160.11,-5.883 161.458,-5.626 162.569,-5.113C163.68,-4.6 164.524,-3.89 165.103,-2.985C165.682,-2.08 165.971,-1.02 165.971,0.193C165.971,1.108 165.77,1.962 165.369,2.755C164.968,3.548 164.398,4.304 163.661,5.023C162.924,5.742 162.051,6.484 161.043,7.249L158.467,9.853L165.663,9.853C165.868,9.853 166.041,9.918 166.181,10.049C166.321,10.18 166.391,10.348 166.391,10.553L166.391,13.381C166.391,13.568 166.321,13.731 166.181,13.871C166.041,14.011 165.868,14.081 165.663,14.081L151.299,14.081Z" style="fill:rgb(233,156,86);fill-rule:nonzero;"/>
        <path d="M177.115,14.361C175.771,14.361 174.609,14.17 173.629,13.787C172.649,13.404 171.832,12.877 171.179,12.205C170.526,11.533 170.031,10.749 169.695,9.853C169.359,8.957 169.163,7.996 169.107,6.969C169.088,6.465 169.074,5.891 169.065,5.247C169.056,4.603 169.056,3.95 169.065,3.287C169.074,2.624 169.088,2.032 169.107,1.509C169.163,0.482 169.364,-0.474 169.709,-1.361C170.054,-2.248 170.558,-3.022 171.221,-3.685C171.884,-4.348 172.705,-4.866 173.685,-5.239C174.665,-5.612 175.808,-5.799 177.115,-5.799C178.44,-5.799 179.593,-5.612 180.573,-5.239C181.553,-4.866 182.37,-4.348 183.023,-3.685C183.676,-3.022 184.18,-2.248 184.535,-1.361C184.89,-0.474 185.095,0.482 185.151,1.509C185.17,2.032 185.184,2.624 185.193,3.287C185.202,3.95 185.202,4.603 185.193,5.247C185.184,5.891 185.17,6.465 185.151,6.969C185.095,7.996 184.894,8.957 184.549,9.853C184.204,10.749 183.709,11.533 183.065,12.205C182.421,12.877 181.609,13.404 180.629,13.787C179.649,14.17 178.478,14.361 177.115,14.361ZM177.115,10.301C178.086,10.301 178.79,9.988 179.229,9.363C179.668,8.738 179.896,7.893 179.915,6.829C179.952,6.288 179.976,5.718 179.985,5.121C179.994,4.524 179.994,3.926 179.985,3.329C179.976,2.732 179.952,2.181 179.915,1.677C179.896,0.65 179.668,-0.18 179.229,-0.815C178.79,-1.45 178.086,-1.776 177.115,-1.795C176.163,-1.776 175.468,-1.45 175.029,-0.815C174.59,-0.18 174.352,0.65 174.315,1.677C174.315,2.181 174.31,2.732 174.301,3.329C174.292,3.926 174.292,4.524 174.301,5.121C174.31,5.718 174.315,6.288 174.315,6.829C174.352,7.893 174.595,8.738 175.043,9.363C175.491,9.988 176.182,10.301 177.115,10.301Z" style="fill:rgb(233,156,86);fill-rule:nonzero;"/>
        <path d="M188.539,14.081C188.334,14.081 188.161,14.011 188.021,13.871C187.881,13.731 187.811,13.568 187.811,13.381L187.811,11.393C187.811,11.262 187.848,11.062 187.923,10.791C187.998,10.52 188.194,10.264 188.511,10.021L191.423,7.165C192.916,6.026 194.144,5.06 195.105,4.267C196.066,3.474 196.78,2.769 197.247,2.153C197.714,1.537 197.947,0.958 197.947,0.417C197.947,-0.218 197.784,-0.745 197.457,-1.165C197.13,-1.585 196.566,-1.795 195.763,-1.795C195.222,-1.795 194.774,-1.678 194.419,-1.445C194.064,-1.212 193.789,-0.908 193.593,-0.535C193.397,-0.162 193.262,0.221 193.187,0.613C193.112,0.856 192.986,1.024 192.809,1.117C192.632,1.21 192.44,1.257 192.235,1.257L188.735,1.257C188.567,1.257 188.427,1.201 188.315,1.089C188.203,0.977 188.147,0.837 188.147,0.669C188.166,-0.227 188.357,-1.072 188.721,-1.865C189.085,-2.658 189.598,-3.354 190.261,-3.951C190.924,-4.548 191.717,-5.02 192.641,-5.365C193.565,-5.71 194.606,-5.883 195.763,-5.883C197.35,-5.883 198.698,-5.626 199.809,-5.113C200.92,-4.6 201.764,-3.89 202.343,-2.985C202.922,-2.08 203.211,-1.02 203.211,0.193C203.211,1.108 203.01,1.962 202.609,2.755C202.208,3.548 201.638,4.304 200.901,5.023C200.164,5.742 199.291,6.484 198.283,7.249L195.707,9.853L202.903,9.853C203.108,9.853 203.281,9.918 203.421,10.049C203.561,10.18 203.631,10.348 203.631,10.553L203.631,13.381C203.631,13.568 203.561,13.731 203.421,13.871C203.281,14.011 203.108,14.081 202.903,14.081L188.539,14.081Z" style="fill:rgb(233,156,86);fill-rule:nonzero;"/>
        <path d="M213.963,14.361C212.526,14.361 211.289,14.188 210.253,13.843C209.217,13.498 208.372,13.05 207.719,12.499C207.066,11.948 206.58,11.36 206.263,10.735C205.946,10.11 205.778,9.508 205.759,8.929C205.759,8.761 205.82,8.621 205.941,8.509C206.062,8.397 206.207,8.341 206.375,8.341L210.043,8.341C210.248,8.341 210.416,8.383 210.547,8.467C210.678,8.551 210.799,8.686 210.911,8.873C211.06,9.228 211.28,9.517 211.569,9.741C211.858,9.965 212.208,10.119 212.619,10.203C213.03,10.287 213.478,10.329 213.963,10.329C214.915,10.329 215.657,10.11 216.189,9.671C216.721,9.232 216.987,8.63 216.987,7.865C216.987,7.062 216.735,6.488 216.231,6.143C215.727,5.798 215.008,5.625 214.075,5.625L210.967,5.625C210.762,5.625 210.594,5.56 210.463,5.429C210.332,5.298 210.267,5.13 210.267,4.925L210.267,3.357C210.267,3.133 210.314,2.937 210.407,2.769C210.5,2.601 210.603,2.48 210.715,2.405L215.307,-1.487L207.523,-1.487C207.336,-1.487 207.173,-1.552 207.033,-1.683C206.893,-1.814 206.823,-1.982 206.823,-2.187L206.823,-4.819C206.823,-5.024 206.893,-5.192 207.033,-5.323C207.173,-5.454 207.336,-5.519 207.523,-5.519L220.403,-5.519C220.608,-5.519 220.781,-5.454 220.921,-5.323C221.061,-5.192 221.131,-5.024 221.131,-4.819L221.131,-2.439C221.131,-2.234 221.084,-2.052 220.991,-1.893C220.898,-1.734 220.795,-1.608 220.683,-1.515L216.427,2.433L216.623,2.489C217.706,2.62 218.662,2.9 219.493,3.329C220.324,3.758 220.982,4.37 221.467,5.163C221.952,5.956 222.195,6.96 222.195,8.173C222.195,9.442 221.836,10.539 221.117,11.463C220.398,12.387 219.423,13.101 218.191,13.605C216.959,14.109 215.55,14.361 213.963,14.361Z" style="fill:rgb(233,156,86);fill-rule:nonzero;"/>
    </g>
</svg>
