<?xml version="1.0" encoding="utf-8"?>
<!-- Generator: Adobe Illustrator 26.2.1, SVG Export Plug-In . SVG Version: 6.00 Build 0)  -->
<svg version="1.1" id="Layer_1" xmlns="http://www.w3.org/2000/svg" xmlns:xlink="http://www.w3.org/1999/xlink" x="0px" y="0px"
	 viewBox="0 0 300 90" style="enable-background:new 0 0 300 90;" xml:space="preserve">
<style type="text/css">
	.st0{fill:#E99C56;}
</style>
<path class="st0" d="M34.2,17.5h9v9.1h-9V17.5z M28.9,17.4h-9V31c-1.2-0.3-2.6-0.5-4-0.5c-9.3,0-15.4,5.8-15.4,14.9
	c0,9.4,5.7,14.2,16.7,14.3c4,0,7.8-0.4,11.7-1.1V17.4z M19.9,52.4c-1,0.2-2,0.2-3.1,0.2c-4.6,0-7.2-2.6-7.2-7.4s2.6-7.6,7.2-7.6
	c1,0,2,0.1,3,0.5L19.9,52.4z"/>
<path class="st0" d="M34.2,48.6c0,7.7-0.4,10.6-1.7,13.2s-3.2,4.1-7.2,5.9l8.3,4c4-1.9,5.8-3.8,7.4-6.6c1.4-2.8,2.1-6.3,2.1-13.5
	V31.1h-9C34.1,31.1,34.2,48.6,34.2,48.6z M60.4,30.5c-4.1,0-8.2,0.8-11.9,2.7V40c3.3-1.7,6.9-2.6,10.5-2.7c2.3,0,3.1,0.6,3.1,2.3
	v1.9c-11,0.9-15.6,3.8-15.6,10c0,5.7,3.4,8.4,10.9,8.4c4.2,0,8.6-0.4,12.8-0.9V40.8c0-3.7-0.2-5.4-0.9-6.8
	C68,31.6,65.1,30.5,60.4,30.5z M62.6,53.2c-1.4,0.3-2.9,0.4-4.3,0.4c-2.5,0-3.6-0.8-3.6-2.5c0-2.4,1.9-3.3,7.9-3.9
	C62.6,47.2,62.6,53.2,62.6,53.2z M149.7,60.2c9,0,14.8-5.7,14.8-15.2c0-9-5.5-14.6-14.4-14.6c-9.1,0-14.8,5.7-14.8,15.2
	C135.3,54.5,140.8,60.2,149.7,60.2z M150,37.5c3.5,0,5.4,2.9,5.4,7.7s-2,7.7-5.5,7.7s-5.5-2.8-5.5-7.7S146.5,37.5,150,37.5z
	 M136.2,31.8c-3.9-0.8-7.8-1.2-11.7-1.2c-13.1,0-20.6,5.7-20.6,15.8c0,8.1,5,13.3,12.8,13.3c2,0.1,4-0.4,5.7-1.2v0.2
	c0,5.7-2.5,8-8.4,8c-3.4,0-6.7-0.8-9.6-2.4v8.2c3.1,1.1,6.3,1.7,9.6,1.7c4.7,0,8.5-1,11.3-3.1c0.5-0.3,0.9-0.7,1.3-1
	c0.8-0.7,1.3-1.4,1.9-2.4c1.9-3,2.6-6.6,2.6-14.1v-2.5c-0.1-1.2-0.1-2.5-0.1-3.7l-0.1-4.8l-0.1-3.8v-0.9c1.8,0.2-0.4-0.2,2,0.2
	L136.2,31.8L136.2,31.8z M122.7,51.1v0.7c-1,0.4-2.3,0.6-3.4,0.6c-4,0-6.1-2.5-6.1-7c0-3.1,1.1-5.3,3.3-6.6c1.5-0.8,3.4-1.3,5.2-1.2
	h0.9v0.7l0.1,2.9l0.1,4.1c0,1.2,0.1,2.5,0.1,3.4C122.9,48.7,122.7,51.1,122.7,51.1z M88.8,30.5c-4.7,0.1-9.5,0.8-14,2v26.9h9V38.2
	c1.3-0.4,2.7-0.7,4.1-0.7c3.2,0,4.3,1.2,4.3,4.7v17.1h9V41.9c0-4.4-0.6-6.6-2.5-8.4C96.9,31.7,93.4,30.5,88.8,30.5z M223.8,45.5
	c0-9-5.5-14.6-14.4-14.6c-9.1,0-14.8,5.7-14.8,15.2c0,9,5.5,14.6,14.5,14.6C218,60.7,223.8,54.8,223.8,45.5z M203.6,45.7
	c0-4.9,2-7.7,5.6-7.7s5.4,2.9,5.4,7.7s-2,7.7-5.5,7.7S203.6,50.7,203.6,45.7z M243.9,42.8v17.1h9V42.4c0-4.4-0.6-6.6-2.5-8.4
	c-1.8-1.8-5.3-3.1-9.9-3.1c-4.7,0.1-9.5,0.8-14,2V60h9V38.8c1.3-0.4,2.7-0.7,4.1-0.6C242.7,38.1,243.9,39.4,243.9,42.8L243.9,42.8z
	 M281,59.1c1.2-1.3,1.7-2.8,1.7-5.8V41.1h-6.2V53c0,2.5-0.8,3.3-3,3.3c-0.9,0-1.9-0.2-2.9-0.5V41.1h-6.1v18.7
	c3.2,0.8,6.4,1.3,9.8,1.3C277.3,61.3,279.7,60.6,281,59.1z M172,56.5c2.9,2.7,8.2,3.7,11.8,3.6c2.8,0,5.6-0.7,8.1-2v-7.2
	c-1.9,0.9-4.1,1.5-6.1,1.5c-3.5,0-9-1.3-9-7.5s5.5-7.5,9-7.5c2.1,0,4.1,0.7,5.9,1.7v-7.3c-2.5-1.1-5.1-1.7-7.8-1.7
	c-3.6,0-8.5,1-11.4,3.9c-3.1,2.8-4.9,6.8-4.9,10.9C167.1,49.2,168.8,53.5,172,56.5z M292.3,48.5c-1.4-0.7-1.3-1.4-1.3-1.4
	s0-1.2,2.5-1.2c1.8,0,3.6,0.5,5.2,1.2v-4.7c-1.9-0.9-4.1-1.3-6.3-1.1c-7.3,0.3-7.2,5.7-7.2,5.7c-0.2,1.4,0.4,2.9,1.3,4.1
	c1.5,1.2,3.3,2.3,5.1,2.9c1.3,0.5,1.8,1.1,1.8,1.4c0,0.3,0.2,1.3-2.5,1.3c-2-0.1-4-0.7-5.7-1.5v4.9c2.7,1,5.7,1.4,8.5,1
	c2.7-0.5,5.4-1.3,5.7-5.7C299.6,51.1,295.3,49.8,292.3,48.5z M255.1,52.7h7.2v7.2h-7.2V52.7z M52.1,20.7c-0.1-0.1-0.2-0.3-0.2-0.5
	v-2.1c0-0.6,0.2-1,0.7-1.4l2.6-2.6c1.8-1.4,3.1-2.4,4.1-3.2c0.9-0.8,1.6-1.4,2.1-2.1c0.5-0.6,0.7-1.2,0.7-1.7C62.1,5.7,61.4,5,60,5
	c-0.7,0-1.3,0.2-1.7,0.7c-0.4,0.4-0.7,1-0.8,1.7c-0.1,0.4-0.4,0.7-1,0.7h-3.7c-0.2,0-0.3-0.1-0.4-0.2c-0.1-0.1-0.2-0.3-0.2-0.4
	c0-1.2,0.4-2.4,1-3.4s1.6-1.8,2.7-2.4c1.2-0.6,2.5-0.9,4-0.9c1.6,0,2.9,0.3,4.1,0.8s2,1.2,2.6,2.1s0.9,2,0.9,3.2
	c0,1.4-0.4,2.6-1.3,3.7c-0.8,1.1-2.1,2.3-3.8,3.6l-2.3,2.3h7.2c0.2,0,0.4,0.1,0.5,0.2S68,17,68,17.2v3c0,0.2-0.1,0.4-0.2,0.5
	s-0.3,0.2-0.5,0.2H52.6C52.4,21,52.2,20.9,52.1,20.7z M72.9,19.2c-1.4-1.4-2.1-3.1-2.2-5.4c0-1-0.1-1.9-0.1-2.7s0-1.8,0.1-2.8
	c0.1-1.4,0.4-2.7,1.1-3.8c0.6-1.1,1.5-2,2.7-2.6s2.7-1,4.4-1s3.2,0.3,4.4,1c1.2,0.6,2.1,1.5,2.8,2.6s1,2.4,1.1,3.8
	c0,0.5,0.1,1.5,0.1,2.8s0,2.2-0.1,2.7c-0.1,2.2-0.9,4-2.2,5.4c-1.4,1.4-3.3,2-6,2.1C76.3,21.2,74.3,20.5,72.9,19.2z M80.9,16.1
	c0.4-0.6,0.7-1.4,0.7-2.4c0-0.5,0.1-1.4,0.1-2.7c0-1.2,0-2.1-0.1-2.6c0-1-0.3-1.8-0.7-2.4c-0.4-0.6-1.1-0.9-2-0.9
	c-1.7,0-2.6,1.1-2.7,3.3v5.3c0.1,2.2,1,3.3,2.7,3.3C79.8,17,80.4,16.7,80.9,16.1z M90,20.7c-0.1-0.1-0.2-0.3-0.2-0.5v-2.1
	c0-0.6,0.2-1,0.7-1.4l2.6-2.6c1.8-1.4,3.1-2.4,4.1-3.2c0.9-0.8,1.6-1.4,2.1-2.1c0.5-0.6,0.7-1.2,0.7-1.7c0-1.4-0.7-2.1-2.1-2.1
	c-0.7,0-1.3,0.2-1.7,0.7c-0.4,0.4-0.7,1-0.8,1.7c-0.1,0.4-0.4,0.7-1,0.7h-3.7c-0.2,0-0.3-0.1-0.4-0.2c-0.1-0.1-0.2-0.3-0.2-0.4
	c0-1.2,0.4-2.4,1-3.4s1.6-1.8,2.7-2.4c1.2-0.6,2.5-0.9,4-0.9c1.6,0,2.9,0.3,4.1,0.8s2,1.2,2.6,2.1s0.9,2,0.9,3.2
	c0,1.4-0.4,2.6-1.3,3.7s-2.1,2.3-3.8,3.6L98,16.5h7.2c0.2,0,0.4,0.1,0.5,0.2s0.2,0.3,0.2,0.5v3c0,0.2-0.1,0.4-0.2,0.5
	s-0.3,0.2-0.5,0.2H90.4C90.3,21,90.1,20.9,90,20.7z"/>
<g>
	<path class="st0" d="M139.5,88.3c-1.3-0.5-2.2-1.2-2.9-2c-0.6-0.8-1-1.8-1-2.8c0-0.2,0.1-0.3,0.2-0.4c0.1-0.1,0.3-0.2,0.4-0.2h3.7
		c0.2,0,0.4,0,0.5,0.1c0.1,0.1,0.3,0.2,0.5,0.4c0.2,0.4,0.6,0.8,1.1,1.1c0.5,0.3,1.2,0.4,2,0.4c1,0,1.8-0.2,2.3-0.5
		c0.5-0.3,0.8-0.7,0.8-1.3c0-0.4-0.1-0.7-0.4-1c-0.3-0.2-0.7-0.5-1.3-0.7s-1.5-0.4-2.6-0.7c-2.2-0.4-3.9-1.1-5-2s-1.7-2.2-1.7-3.9
		c0-1.1,0.3-2.2,1-3.1s1.5-1.6,2.7-2.1c1.2-0.5,2.5-0.7,4.1-0.7c1.6,0,3,0.3,4.2,0.8c1.2,0.6,2.1,1.3,2.7,2.1c0.6,0.8,1,1.7,1,2.5
		c0,0.2-0.1,0.3-0.2,0.4c-0.1,0.1-0.3,0.2-0.4,0.2h-3.9c-0.4,0-0.7-0.2-0.9-0.5c-0.1-0.4-0.4-0.7-0.9-1c-0.5-0.3-1-0.4-1.7-0.4
		c-0.8,0-1.4,0.1-1.8,0.4c-0.4,0.3-0.6,0.7-0.6,1.2s0.3,1,0.8,1.3s1.6,0.6,3.1,0.9c1.7,0.3,3.1,0.7,4.1,1.2c1,0.5,1.8,1.1,2.3,1.8
		c0.5,0.7,0.7,1.7,0.7,2.8c0,1.3-0.4,2.3-1.1,3.3c-0.7,0.9-1.7,1.6-3,2.1c-1.3,0.5-2.7,0.7-4.4,0.7
		C142.3,89.1,140.8,88.8,139.5,88.3L139.5,88.3z M153.4,88.6c-0.1-0.1-0.2-0.2-0.2-0.4c0-0.1,0-0.2,0-0.2l6.5-17.7
		c0.2-0.5,0.6-0.8,1.1-0.8h4.3c0.6,0,0.9,0.3,1.1,0.8l6.5,17.7c0,0.1,0,0.2,0,0.2c0,0.1-0.1,0.3-0.2,0.4s-0.3,0.2-0.4,0.2h-3.6
		c-0.4,0-0.8-0.2-0.9-0.6l-1-2.7h-7.3l-1,2.7c-0.2,0.4-0.5,0.6-0.9,0.6h-3.6C153.7,88.8,153.5,88.7,153.4,88.6z M160.5,81.3h4.9
		l-2.5-7.1L160.5,81.3L160.5,81.3z M175,88.6c-0.1-0.1-0.2-0.3-0.2-0.5v-18c0-0.2,0.1-0.4,0.2-0.5c0.1-0.1,0.3-0.2,0.5-0.2h3.1
		c0.4,0,0.7,0.2,0.9,0.5l6.5,10.3V70.1c0-0.2,0.1-0.4,0.2-0.5c0.1-0.1,0.3-0.2,0.5-0.2h3.5c0.2,0,0.4,0.1,0.5,0.2
		c0.1,0.1,0.2,0.3,0.2,0.5v17.9c0,0.2-0.1,0.4-0.2,0.5c-0.1,0.1-0.3,0.2-0.5,0.2h-3.1c-0.4,0-0.7-0.2-0.9-0.5l-6.5-9.9v9.7
		c0,0.2-0.1,0.4-0.2,0.5c-0.1,0.1-0.3,0.2-0.5,0.2h-3.5C175.3,88.8,175.2,88.7,175,88.6z M200.8,88.6c-0.1-0.1-0.2-0.3-0.2-0.5v-18
		c0-0.2,0.1-0.4,0.2-0.5c0.1-0.1,0.3-0.2,0.5-0.2h7.3c2.7,0,4.9,0.7,6.4,2c1.5,1.3,2.3,3.2,2.4,5.6c0,0.5,0,1.2,0,2.1s0,1.6,0,2.1
		c-0.2,5.1-3.1,7.6-8.6,7.6h-7.4C201.1,88.8,200.9,88.7,200.8,88.6z M208.6,84.6c1.2,0,2-0.3,2.6-0.8c0.6-0.6,0.8-1.4,0.9-2.7
		c0-0.5,0.1-1.2,0.1-2.1s0-1.5-0.1-2c0-1.2-0.4-2.1-1-2.6c-0.6-0.6-1.5-0.8-2.6-0.8h-2.6v11.1L208.6,84.6L208.6,84.6z M220.7,88.6
		c-0.1-0.1-0.2-0.3-0.2-0.5v-18c0-0.2,0.1-0.4,0.2-0.5c0.1-0.1,0.3-0.2,0.5-0.2h4c0.2,0,0.4,0.1,0.5,0.2c0.1,0.1,0.2,0.3,0.2,0.5v18
		c0,0.2-0.1,0.4-0.2,0.5c-0.1,0.1-0.3,0.2-0.5,0.2h-4C221,88.8,220.8,88.7,220.7,88.6z M229.8,88.6c-0.1-0.1-0.2-0.3-0.2-0.5v-18
		c0-0.2,0.1-0.4,0.2-0.5c0.1-0.1,0.3-0.2,0.5-0.2h13.1c0.2,0,0.4,0.1,0.5,0.2c0.1,0.1,0.2,0.3,0.2,0.5v2.7c0,0.2-0.1,0.4-0.2,0.5
		c-0.1,0.1-0.3,0.2-0.5,0.2h-8.7v3.5h8.1c0.2,0,0.4,0.1,0.5,0.2c0.1,0.1,0.2,0.3,0.2,0.5v2.5c0,0.2-0.1,0.4-0.2,0.5
		c-0.1,0.1-0.3,0.2-0.5,0.2h-8.1v3.6h9c0.2,0,0.4,0.1,0.5,0.2c0.1,0.1,0.2,0.3,0.2,0.5v2.7c0,0.2-0.1,0.4-0.2,0.5
		c-0.1,0.1-0.3,0.2-0.5,0.2h-13.3C230.1,88.8,229.9,88.7,229.8,88.6L229.8,88.6z M249,87.1c-1.5-1.3-2.3-3.2-2.4-5.6
		c0-0.8,0-1.7,0-2.5c0-1.2,0-2,0-2.5c0.1-2.3,0.9-4.1,2.4-5.4c1.5-1.3,3.6-1.9,6.3-1.9c1.8,0,3.3,0.3,4.6,0.9c1.3,0.6,2.3,1.3,3,2.2
		c0.7,0.9,1.1,1.8,1.1,2.8c0,0.2-0.1,0.3-0.2,0.4c-0.1,0.1-0.3,0.2-0.4,0.2h-4.3c-0.2,0-0.3,0-0.4-0.1c-0.1-0.1-0.2-0.2-0.3-0.3
		c-0.2-0.5-0.6-1-1.1-1.3c-0.5-0.4-1.2-0.6-2.1-0.6c-2.1,0-3.2,1.1-3.3,3.3c0,0.8,0,1.6,0,2.4c0,1.1,0,1.9,0,2.4
		c0.1,2.3,1.2,3.5,3.4,3.5c1.1,0,1.9-0.3,2.5-0.8c0.6-0.5,0.9-1.3,0.9-2.4v-0.5h-2.5c-0.2,0-0.4-0.1-0.5-0.2
		c-0.1-0.1-0.2-0.3-0.2-0.5v-2.2c0-0.2,0.1-0.4,0.2-0.5c0.1-0.1,0.3-0.2,0.5-0.2h7c0.2,0,0.4,0.1,0.5,0.2c0.1,0.1,0.2,0.3,0.2,0.5
		v3.2c0,1.6-0.4,2.9-1.1,4.1c-0.7,1.1-1.8,2-3.1,2.6s-2.9,0.9-4.7,0.9C252.7,89.1,250.6,88.4,249,87.1L249,87.1z M269.1,87.2
		c-1.5-1.3-2.3-3.1-2.4-5.6c0-0.5,0-1.3,0-2.4s0-1.9,0-2.4c0.1-2.4,0.9-4.3,2.4-5.6s3.6-2,6.2-2c2.6,0,4.6,0.7,6.2,2
		s2.3,3.2,2.4,5.6c0,1.1,0.1,1.9,0.1,2.4c0,0.6,0,1.3-0.1,2.4c-0.1,2.5-0.9,4.3-2.4,5.6c-1.5,1.3-3.6,1.9-6.2,1.9
		C272.6,89.1,270.6,88.4,269.1,87.2z M277.6,84c0.6-0.6,0.9-1.5,0.9-2.7c0-1.1,0.1-1.8,0.1-2.3s0-1.2-0.1-2.2c0-1.2-0.3-2.1-0.9-2.7
		c-0.6-0.6-1.3-0.9-2.3-0.9c-1,0-1.8,0.3-2.3,0.9s-0.9,1.5-0.9,2.7c0,0.7,0,1.5,0,2.2c0,1,0,1.8,0,2.3c0,1.2,0.3,2.1,0.9,2.7
		c0.6,0.6,1.3,0.9,2.3,0.9C276.2,84.9,277,84.6,277.6,84z"/>
</g>
<path class="st0" d="M108.5,20.7c-0.1-0.1-0.2-0.3-0.2-0.5v-2.1c0-0.6,0.2-1,0.7-1.4l2.6-2.6c1.8-1.4,3.1-2.4,4.1-3.2
	c0.9-0.8,1.6-1.4,2.1-2.1c0.5-0.6,0.7-1.2,0.7-1.7c0-1.4-0.7-2.1-2.1-2.1c-0.7,0-1.3,0.2-1.7,0.7c-0.4,0.4-0.7,1-0.8,1.7
	c-0.1,0.4-0.4,0.7-1,0.7h-3.7c-0.2,0-0.3-0.1-0.4-0.2c-0.1-0.1-0.2-0.3-0.2-0.4c0-1.2,0.4-2.4,1-3.4s1.6-1.8,2.7-2.4
	c1.2-0.6,2.5-0.9,4-0.9c1.6,0,2.9,0.3,4.1,0.8s2,1.2,2.6,2.1s0.9,2,0.9,3.2c0,1.4-0.4,2.6-1.3,3.7s-2.1,2.3-3.8,3.6l-2.3,2.3h7.2
	c0.2,0,0.4,0.1,0.5,0.2s0.2,0.3,0.2,0.5v3c0,0.2-0.1,0.4-0.2,0.5s-0.3,0.2-0.5,0.2h-14.8C108.8,21,108.6,20.9,108.5,20.7z"/>
</svg>
