<svg width="214" height="69" viewBox="0 0 214 69" fill="none" xmlns="http://www.w3.org/2000/svg">
<path d="M14.1217 43.7386V42.2632C12.5718 43.5895 11.3555 44.2565 8.92271 44.2565C6.12112 44.2565 3.20574 42.8165 2.13847 41.6001C0.737674 39.905 0 36.9151 0 34.2979C0 28.3965 3.65305 24.1942 8.8874 24.1942C10.8807 24.1942 12.5012 24.6729 13.9766 25.8186L14.1257 17.4452H19.9525V43.7425H14.1257L14.1217 43.7386ZM13.6038 30.8293C12.9407 29.5737 11.6851 28.6908 9.6957 28.6908C7.55723 28.6908 5.74836 31.4571 5.74836 34.4431C5.74836 36.8759 7.25902 39.238 9.36218 39.238C12.3129 39.238 14.0825 37.3938 14.0825 35.2553C14.0825 33.8899 14.1178 31.7514 13.6038 30.8293Z" fill="#140A44"/>
<path d="M27.2154 50.6366C25.6302 52.2611 22.3107 52.7398 18.7714 51.853L20.0624 46.7992C22.4598 47.427 23.272 47.2425 23.272 44.1427L23.0876 25.3713L28.5809 25.4812V45.5435C28.5809 47.9057 27.8786 49.9343 27.2154 50.6327V50.6366ZM22.6795 19.7681C22.6795 18.1437 24.304 16.5231 25.85 16.5231C27.3959 16.5231 29.1695 18.1476 29.1695 19.7681C29.1695 21.3886 27.8432 23.2721 25.8853 23.2721C24.0411 23.2721 22.6756 21.3533 22.6756 19.7681H22.6795Z" fill="#140A44"/>
<path d="M45.2139 43.7386L45.0648 42.2633C43.6248 43.5895 42.3731 44.4017 40.3091 44.4017C37.947 44.4017 35.3298 43.5149 34.2979 42.483C32.4537 40.6388 31.5669 37.5037 31.5669 34.294C31.5669 28.9459 34.8511 24.9632 40.2699 24.9632C41.8944 24.9632 43.6993 25.3321 45.0255 26.623L45.0609 25.3674H51.182C51.182 31.4885 50.9623 37.6136 51.182 43.7347H45.206L45.2139 43.7386ZM44.1427 30.4252C43.2952 29.6522 41.8944 29.354 40.7133 29.354C38.0569 29.354 36.9896 31.6415 36.9896 34.3333C36.9896 37.025 38.4296 39.2027 40.7525 39.4577C43.2598 39.752 45.2884 37.1348 45.2884 34.2587C45.2884 32.3792 44.8097 30.9745 44.1466 30.4212L44.1427 30.4252Z" fill="#140A44"/>
<path d="M59.5985 26.8467C60.9248 25.5557 61.8116 24.9279 65.4999 24.9279C68.4506 24.9279 71.2915 28.4319 71.2915 32.1556V43.7347C69.4826 43.6601 67.5678 43.77 65.5392 43.8092V32.4498C65.5392 30.1623 64.2836 29.1656 63.3615 29.1656C60.964 29.1656 59.5985 30.5664 59.5985 32.9285L59.4887 43.5503L54.0307 43.7347V25.3674H59.5985V26.8427V26.8467Z" fill="#140A44"/>
<path d="M83.6475 47.6859C85.7115 47.427 87.5556 46.3597 87.5556 43.4836V42.895C86.0057 44.1114 84.3107 44.4056 82.8353 44.4056C80.5477 44.4056 78.6682 43.9623 77.1576 42.7106C75.0191 40.9409 73.6889 38.1001 73.6889 33.0855C73.6889 29.1774 77.6363 24.9358 82.0231 24.9358C84.0517 24.9358 85.9312 25.5243 87.4458 26.6701L87.5556 25.0103L93.3079 25.3792V43.0441C93.3079 48.4668 88.9172 52.4847 85.2681 52.5593C79.6256 52.8536 76.9339 51.1193 75.3487 49.2398L79.4805 46.0301C80.2535 47.2465 82.027 47.9488 83.6475 47.6899V47.6859ZM83.3532 39.8305C86.0097 39.8305 87.999 37.951 87.999 35.9224C87.999 33.8938 87.7047 32.4538 87.1122 31.6062C86.3393 30.4644 84.8992 29.7267 83.3886 29.7267C81.8779 29.7267 80.8813 30.5389 80.1789 31.461C79.3667 32.493 79.3314 33.8232 79.3314 34.8159C79.3314 37.8019 80.7714 39.8305 83.3532 39.8305Z" fill="#140A44"/>
<path d="M98.142 27.8786C100.135 25.9599 102.788 24.6689 105.813 24.6689C108.505 24.6689 111.346 25.3321 113.041 26.6622C114.182 27.6942 115.956 31.7161 115.956 34.6275C115.956 40.1954 111.53 44.5469 105.738 44.5469C104.004 44.5469 101.387 44.1428 100.539 43.6248C97.4043 41.9297 95.67 38.3512 95.67 34.4431C95.67 32.0104 96.9962 29.0204 98.142 27.8786ZM105.703 39.7559C107.104 39.7559 108.764 39.2027 109.356 38.6494C110.314 37.8372 110.612 36.1774 110.612 34.5922C110.612 31.4924 108.583 29.4678 105.742 29.4678C102.902 29.4678 101.242 31.4964 101.242 34.4824C101.242 37.4684 102.902 39.7559 105.703 39.7559Z" fill="#140A44"/>
<path d="M120.716 26.7368C122.042 25.5949 125.252 24.5983 127.908 24.5983C130.305 24.5983 132.813 25.6695 134.323 27.3646C133.252 28.5064 132.22 29.5423 131.447 30.8332C130.046 29.4677 129.344 29.0989 126.872 29.248C124.808 29.3225 123.184 31.202 123.184 34.6314C123.184 37.4723 124.659 39.2419 127.315 39.2419C129.234 39.2419 130.007 38.6887 131.592 37.1034L134.433 39.905C132.554 42.4869 130.376 44.1467 127.904 44.2565C125.063 44.4056 121.744 43.4443 120.453 42.2632C118.499 40.5289 117.612 37.433 117.612 34.6668C117.612 31.3472 118.609 28.5064 120.712 26.7368H120.716Z" fill="#140A44"/>
<path d="M138.53 27.8786C140.523 25.9599 143.175 24.6689 146.201 24.6689C148.892 24.6689 151.733 25.3321 153.428 26.6622C154.57 27.6942 156.344 31.7161 156.344 34.6275C156.344 40.1954 151.918 44.5469 146.126 44.5469C144.392 44.5469 141.775 44.1428 140.927 43.6248C137.792 41.9297 136.058 38.3512 136.058 34.4431C136.058 32.0104 137.384 29.0204 138.53 27.8786ZM146.091 39.7559C147.492 39.7559 149.151 39.2027 149.744 38.6494C150.701 37.8372 150.999 36.1774 150.999 34.5922C150.999 31.4924 148.971 29.4678 146.13 29.4678C143.289 29.4678 141.629 31.4964 141.629 34.4824C141.629 37.4684 143.289 39.7559 146.091 39.7559Z" fill="#140A44"/>
<path d="M164.238 26.8467C165.565 25.5557 166.451 24.9279 170.14 24.9279C173.09 24.9279 175.931 28.4319 175.931 32.1556V43.7347C174.122 43.6601 172.208 43.77 170.179 43.8092V32.4498C170.179 30.1623 168.923 29.1656 168.001 29.1656C165.604 29.1656 164.238 30.5664 164.238 32.9285L164.129 43.5503L158.671 43.7347V25.3674H164.238V26.8427V26.8467Z" fill="#140A44"/>
<path d="M181.499 38.0609C183.638 38.0609 185.003 40.0895 184.744 41.4903C184.375 43.3345 183.01 44.5508 181.13 44.5508C179.73 44.5508 178.474 43.0755 178.474 41.2666C178.474 40.011 179.69 38.0569 181.499 38.0569V38.0609Z" fill="#140A44"/>
<path d="M191.144 29.5227V37.9078C191.144 39.803 192.089 40.9802 193.785 40.9802C195.162 40.9802 195.707 39.7442 195.707 38.6259V29.4677L200.043 29.4952V37.2486C200.043 42.275 197.92 44.3703 193.526 44.3703C191.171 44.3703 189.508 43.8838 188.413 42.7341C187.722 41.9886 187.036 40.0345 187.036 38.1982V29.6718L191.14 29.5266L191.144 29.5227Z" fill="#140A44"/>
<path d="M201.22 41.1489L204.693 39.5127C205.638 40.7487 206.243 41.0351 207.824 41.1214C208.628 41.1489 209.66 40.5485 209.66 39.6265C209.66 38.3905 208.138 38.4768 206.415 38.0177C203.343 37.2133 201.879 35.7772 201.879 33.7682C201.879 31.0961 204.147 29.146 208.052 29.146C208.942 29.146 210.551 29.3461 211.442 29.7189C212.446 30.1191 213.337 31.1824 213.682 31.928L210.81 33.623C210.092 32.5048 209.201 32.1006 208.169 32.1006C206.965 32.1006 206.247 32.9638 206.247 33.678C206.247 34.3921 206.819 34.6236 208.774 34.9689C212.791 35.7733 214 37.178 214 39.5911C214 42.4634 211.846 44.3272 207.628 44.3272C205.014 44.3272 202.488 43.6091 201.224 41.141L201.22 41.1489Z" fill="#140A44"/>
<path d="M42.6673 5.72898C42.6673 4.35958 41.9218 3.44141 40.4543 3.36686C39.1359 3.31585 38.516 4.06137 38.1667 6.3254L34.2115 5.70544C34.4117 4.38705 35.1336 2.94309 35.4554 2.42122C36.401 0.902713 38.5395 0.00808716 41.3725 0.00808716C43.3383 0.00808716 46.4695 1.6757 46.3204 6.15275C46.2968 7.3966 45.8966 8.71499 42.5143 11.8462L40.2503 14.0357L46.442 13.9101L46.2929 18.0889L34.5529 17.8653L34.702 15.7504C36.0204 12.3445 38.7318 10.9986 40.2228 9.45659C42.4594 7.26711 42.6595 6.52159 42.6595 5.72506L42.6673 5.72898Z" fill="#4975C3"/>
<path d="M48.8866 4.55946C49.9068 2.42099 52.367 0.180499 54.3328 0.133413C57.4405 -0.0392336 58.6843 1.27916 59.6299 2.67211C60.2499 3.61775 61.3446 6.59983 61.3446 9.11498C61.3446 11.6301 60.5756 14.1649 59.4808 15.8051C58.7589 16.8017 56.6714 18.3163 54.6075 18.3163C52.5436 18.3163 50.5307 16.9979 49.6831 15.7541C48.6119 14.1139 47.8664 11.6027 47.8664 8.98942C47.8664 7.07461 48.2156 5.92886 48.8866 4.56338V4.55946ZM56.8205 12.3207C57.2678 11.5242 57.7661 10.2568 57.7661 9.06398C57.7661 7.59648 57.2443 6.03088 56.797 5.33244C56.4242 4.73603 55.455 4.0886 54.5839 4.0886C53.6658 4.0886 52.9163 4.85767 52.4455 5.83077C51.9982 6.67438 51.7745 7.87114 51.7745 9.11498C51.7745 10.3588 51.9746 11.4771 52.3709 12.2736C52.7201 13.0427 53.6148 13.7176 54.6075 13.7176C55.6002 13.7176 56.4242 13.1212 56.8205 12.3247V12.3207Z" fill="#4975C3"/>
<path d="M70.6009 5.72874C70.6009 4.35933 69.8554 3.44117 68.3879 3.36661C67.0695 3.3156 66.4495 4.06113 66.1003 6.32516L62.1451 5.7052C62.3452 4.3868 63.0633 2.94284 63.389 2.42098C64.3346 0.902469 66.4731 0.00784302 69.31 0.00784302C71.2758 0.00784302 74.407 1.67546 74.2579 6.15251C74.2343 7.39635 73.8341 8.71475 70.4518 11.8459L68.1878 14.0354L74.3795 13.9099L74.2304 18.0887L62.4904 17.865L62.6395 15.7501C63.9579 12.3443 66.6692 10.9984 68.1603 9.45635C70.3969 7.26687 70.597 6.52135 70.597 5.72482L70.6009 5.72874Z" fill="#4975C3"/>
<path d="M75.796 12.615L79.3275 12.0931C79.6021 13.7333 80.3241 14.5534 81.7641 14.5534C82.5332 14.5534 83.3572 14.2787 83.6554 13.9569C84.0282 13.5606 84.2008 13.1369 84.2008 12.564C84.2008 10.8493 83.3807 10.0018 80.2966 10.2254V7.21586C82.9844 7.29041 83.9261 6.67045 83.9261 5.1284C83.9261 4.03366 83.0551 3.16258 82.0113 3.16258C80.5674 3.16258 79.9239 3.73545 79.4766 5.69735L76.7142 5.34813L76.0668 5.10094C76.2904 3.43332 77.0124 2.16594 77.4597 1.66761C78.4289 0.698436 80.0965 0 82.0113 0C83.9261 0 85.7429 0.820073 86.7356 1.96582C87.1829 2.5387 87.6302 3.82963 87.6302 5.10094C87.6302 5.7209 87.4576 6.89019 87.2575 7.43952C87.1083 7.88683 86.6375 8.3106 86.0882 8.68336C87.2339 9.60545 87.8774 10.6727 87.8774 12.4894C87.8774 14.1296 87.2575 16.0444 86.1352 17.0175C85.3662 17.712 83.5495 18.2614 81.7092 18.2614C77.7815 18.2614 76.0393 15.8482 75.7921 12.615H75.796Z" fill="#4975C3"/>
<path d="M111.699 59.6299C111.699 64.9271 107.622 68.482 101.901 68.482H96.5804V50.7504H101.928C109.089 50.7504 111.703 54.3054 111.703 59.6299H111.699ZM108.191 58.7118C108.191 55.6512 106.178 53.9875 103.318 53.9365L101.23 53.8855V64.3542L103.494 64.1816C106.378 64.056 108.195 62.1686 108.195 58.7118H108.191Z" fill="#4975C3"/>
<path d="M113.59 61.945C113.59 58.3626 113.59 54.2347 113.814 50.7543C115.407 50.927 116.972 50.978 118.789 50.9545L118.663 59.4338C118.538 64.158 119.758 64.9546 121.598 64.9546C123.611 64.9546 124.632 64.1855 124.584 61.4742C124.486 57.8917 124.486 54.2858 124.31 50.7073L128.414 50.6092V61.9489C128.414 63.9148 128.116 65.3312 127.519 66.1003C126.35 67.6188 123.615 68.9843 121.077 68.9843C118.538 68.9843 116.203 68.0387 115.034 66.4966C114.163 65.4254 113.59 63.9579 113.59 61.945Z" fill="#4975C3"/>
<path d="M144.105 56.0515C144.105 58.4646 143.136 59.5829 141.37 60.505L145.871 67.2931L141.892 68.486L136.968 61.325H135.002V68.486H130.698V50.7543H137.71C141.688 50.7543 144.101 52.52 144.101 56.0515H144.105ZM139.679 55.8513C139.679 54.1092 138.608 53.4892 136.968 53.7364L134.68 53.862V58.2645L136.819 58.2409C138.71 58.1154 139.679 57.3463 139.679 55.8553V55.8513Z" fill="#4975C3"/>
<path d="M151.792 57.2914H157.686L157.933 50.7504H162.112C162.284 56.5929 162.335 62.4904 162.284 68.482L158.133 68.5566L157.635 60.399L151.941 60.5246L152.165 68.482H147.39L147.664 50.7504H151.545L151.792 57.2914Z" fill="#4975C3"/>
<path d="M175.021 50.6288L180.295 68.486H176.787L175.417 64.9036H169.845L168.303 68.486H163.179C165.518 62.3688 167.978 56.4752 170.638 50.7543L175.017 50.6288H175.021ZM172.757 56.2006L170.642 61.996L174.523 61.9215L172.757 56.2006Z" fill="#4975C3"/>
<path d="M200.039 68.486H195.837L195.464 58.1664L192.058 66.3004L189.822 66.2023L185.517 58.7903V68.6625L181.464 68.4899L181.589 50.7583L185.046 50.7347L189.92 60.2107L195.44 50.7583C196.81 50.6602 198.175 50.6092 199.545 50.6327C199.596 56.5773 199.768 62.4943 200.043 68.4899L200.039 68.486Z" fill="#4975C3"/>
</svg>
