<svg version="1.1" id="Layer_1"
    xmlns="http://www.w3.org/2000/svg" x="0" y="0" viewBox="0 0 1025.19 512" xml:space="preserve">
    <style>.st0{fill:#430632}.st1{fill:#54184b}.st1,.st2{opacity:.3}.st6{fill:#7b123c}.st13{fill:#e99c56}.st14{fill:#c73b3d}.st20{fill:none}.st22{fill:#5e1b51}.st31,.st32{opacity:.3;fill:#66225c}.st32{fill:#c73b3d}</style>
    <path class="st0" d="M0 0h1025.5v512H0z"/>
    <path class="st1" d="M1003.35 561.41h61.69V608h-61.69z"/>
    <g class="st2">
        <linearGradient id="SVGID_1_" gradientUnits="userSpaceOnUse" x1="799.29" y1="530.166" x2="693.191" y2="530.166">
            <stop offset="0" stop-color="#e99c56"/>
            <stop offset=".179" stop-color="#e59253"/>
            <stop offset=".489" stop-color="#dc764c"/>
            <stop offset=".888" stop-color="#cc4941"/>
            <stop offset="1" stop-color="#c73b3d"/>
        </linearGradient>
        <path fill="url(#SVGID_1_)" d="M797.77 452.33H696.22L693.19 608h106.1z"/>
        <linearGradient id="SVGID_2_" gradientUnits="userSpaceOnUse" x1="799.29" y1="530.166" x2="770.504" y2="530.166">
            <stop offset="0" stop-color="#e99c56"/>
            <stop offset=".179" stop-color="#e59253"/>
            <stop offset=".489" stop-color="#dc764c"/>
            <stop offset=".888" stop-color="#cc4941"/>
            <stop offset="1" stop-color="#c73b3d"/>
        </linearGradient>
        <path fill="url(#SVGID_2_)" d="M798.88 452.33h-27.55L770.5 608h28.79z"/>
        <linearGradient id="SVGID_3_" gradientUnits="userSpaceOnUse" x1="719.787" y1="530.166" x2="693.191" y2="530.166">
            <stop offset="0" stop-color="#e99c56"/>
            <stop offset=".179" stop-color="#e59253"/>
            <stop offset=".489" stop-color="#dc764c"/>
            <stop offset=".888" stop-color="#cc4941"/>
            <stop offset="1" stop-color="#c73b3d"/>
        </linearGradient>
        <path fill="url(#SVGID_3_)" d="M719.41 452.33h-25.46L693.19 608h26.6z"/>
        <path class="st6" d="M693.32 451.98V608m-1.51-156.02h3.03V608h-3.03zm106.09 0V608m-1.51-156.02h3.03V608h-3.03zm-76.91 21.32V608m-1.52-134.7h3.03V608h-3.03zm53.05 1.65V608m-1.51-133.05h3.03V608h-3.03zm-70.85 4.44 13.64 13.93m0 1.52c-.39 0-.79-.15-1.08-.46l-13.64-13.93c-.59-.6-.58-1.56.02-2.14.6-.59 1.56-.58 2.14.02l13.64 13.93c.59.6.58 1.56-.02 2.14-.3.29-.68.44-1.06.44zm-13.64 2.74 13.64 13.93m0 1.52c-.39 0-.79-.15-1.08-.46l-13.64-13.93c-.59-.6-.58-1.56.02-2.14.6-.59 1.56-.58 2.14.02l13.64 13.93c.59.6.58 1.56-.02 2.14-.3.29-.68.44-1.06.44zm-13.64 2.74 13.64 13.93m0 1.51c-.39 0-.79-.15-1.08-.46l-13.64-13.93c-.59-.6-.58-1.56.02-2.14.6-.59 1.56-.57 2.14.02l13.64 13.93c.59.6.58 1.56-.02 2.14-.3.3-.68.44-1.06.44zm-13.64 2.75 13.64 13.93m0 1.51c-.39 0-.79-.15-1.08-.46l-13.64-13.93c-.59-.6-.58-1.56.02-2.14.6-.59 1.56-.58 2.14.02l13.64 13.93c.59.6.58 1.56-.02 2.14-.3.3-.68.44-1.06.44zm-13.64 2.74 13.64 13.94m0 1.51c-.39 0-.79-.15-1.08-.46l-13.64-13.93c-.59-.6-.58-1.56.02-2.14.6-.59 1.56-.57 2.14.02l13.64 13.93c.59.6.58 1.56-.02 2.14-.3.3-.68.44-1.06.44zm-13.64 2.74 13.64 13.93m0 1.52c-.39 0-.79-.15-1.08-.46l-13.64-13.93c-.59-.6-.58-1.56.02-2.14.6-.59 1.56-.58 2.14.02l13.64 13.93c.59.6.58 1.56-.02 2.14-.3.29-.68.44-1.06.44zm-13.64 2.74 13.64 13.93m0 1.52c-.39 0-.79-.15-1.08-.46l-13.64-13.93c-.59-.6-.58-1.56.02-2.14.6-.59 1.56-.57 2.14.02l13.64 13.93c.59.6.58 1.56-.02 2.14-.3.29-.68.44-1.06.44zm79.55-124.58-13.64 13.93m0 1.52c-.38 0-.77-.14-1.06-.43-.6-.59-.61-1.55-.02-2.14l13.64-13.93c.59-.6 1.54-.61 2.14-.02.6.59.61 1.55.02 2.14l-13.64 13.93c-.29.29-.69.45-1.08.45zm13.64 2.74-13.64 13.93m0 1.52c-.38 0-.77-.14-1.06-.43-.6-.59-.61-1.55-.02-2.14l13.64-13.93c.59-.6 1.54-.61 2.14-.02.6.59.61 1.55.02 2.14l-13.64 13.93c-.29.29-.69.45-1.08.45zm13.64 2.74L778.2 529.7m0 1.51c-.38 0-.77-.14-1.06-.43-.6-.59-.61-1.55-.02-2.14l13.64-13.93c.59-.6 1.54-.61 2.14-.02.6.59.61 1.55.02 2.14l-13.64 13.93c-.29.3-.69.45-1.08.45zm13.64 2.75-13.64 13.93m0 1.51c-.38 0-.77-.14-1.06-.43-.6-.59-.61-1.55-.02-2.14l13.64-13.93c.59-.6 1.54-.61 2.14-.02.6.59.61 1.55.02 2.14l-13.64 13.93c-.29.3-.69.45-1.08.45zm13.64 2.74-13.64 13.94m0 1.51c-.38 0-.77-.14-1.06-.43-.6-.59-.61-1.55-.02-2.14l13.64-13.93c.59-.6 1.54-.61 2.14-.02.6.59.61 1.55.02 2.14l-13.64 13.93c-.29.3-.69.45-1.08.45zm13.64 2.74-13.64 13.93m0 1.52c-.38 0-.77-.14-1.06-.43-.6-.59-.61-1.55-.02-2.14l13.64-13.93c.59-.6 1.54-.61 2.14-.02.6.59.61 1.55.02 2.14l-13.64 13.93c-.29.3-.69.45-1.08.45zm13.64 2.74-13.64 13.93m0 1.52c-.38 0-.77-.14-1.06-.43-.6-.59-.61-1.55-.02-2.14l13.64-13.93c.59-.6 1.54-.61 2.14-.02.6.59.61 1.55.02 2.14l-13.64 13.93c-.29.3-.69.45-1.08.45z"/>
        <path class="st6" d="M772.13 429.82h-52.95l-26.47 22.21 26.47 22.21h52.95l26.48-22.21z"/>
        <path class="st6" d="M772.13 475.08h-52.95a.84.84 0 0 1-.54-.2l-26.47-22.21a.832.832 0 0 1 0-1.28l26.47-22.21c.15-.13.34-.2.54-.2h52.95c.2 0 .38.07.54.2l26.47 22.21a.832.832 0 0 1 0 1.28l-26.47 22.21a.82.82 0 0 1-.54.2zm-52.64-1.67h52.34l25.48-21.38-25.48-21.38h-52.34L694 452.03l25.49 21.38zM728.47 499.09h33.35m-33.35-2.74h33.35v5.48h-33.35zM728.47 517.28h33.35m-33.35-2.74h33.35v5.48h-33.35zM728.47 535.47h33.35m-33.35-2.74h33.35v5.48h-33.35zM728.47 553.66h33.35m-33.35-2.74h33.35v5.48h-33.35zM728.47 571.85h33.35m-33.35-2.74h33.35v5.48h-33.35zM728.47 590.04h33.35m-33.35-2.74h33.35v5.48h-33.35z"/>
        <linearGradient id="SVGID_4_" gradientUnits="userSpaceOnUse" x1="851.986" y1="496.18" x2="745.888" y2="496.18">
            <stop offset="0" stop-color="#e99c56"/>
            <stop offset=".179" stop-color="#e59253"/>
            <stop offset=".489" stop-color="#dc764c"/>
            <stop offset=".888" stop-color="#cc4941"/>
            <stop offset="1" stop-color="#c73b3d"/>
        </linearGradient>
        <path fill="url(#SVGID_4_)" d="M850.47 384.36H748.92L745.89 608h106.1z"/>
        <linearGradient id="SVGID_5_" gradientUnits="userSpaceOnUse" x1="851.986" y1="496.18" x2="823.201" y2="496.18">
            <stop offset="0" stop-color="#e99c56"/>
            <stop offset=".179" stop-color="#e59253"/>
            <stop offset=".489" stop-color="#dc764c"/>
            <stop offset=".888" stop-color="#cc4941"/>
            <stop offset="1" stop-color="#c73b3d"/>
        </linearGradient>
        <path fill="url(#SVGID_5_)" d="M851.58 384.36h-27.56L823.2 608h28.79z"/>
        <linearGradient id="SVGID_6_" gradientUnits="userSpaceOnUse" x1="772.484" y1="496.18" x2="745.888" y2="496.18">
            <stop offset="0" stop-color="#e99c56"/>
            <stop offset=".179" stop-color="#e59253"/>
            <stop offset=".489" stop-color="#dc764c"/>
            <stop offset=".888" stop-color="#cc4941"/>
            <stop offset="1" stop-color="#c73b3d"/>
        </linearGradient>
        <path fill="url(#SVGID_6_)" d="M772.1 384.36h-25.45L745.89 608h26.59z"/>
        <path class="st6" d="M746.02 384.01V608m-1.52-223.99h3.03V608h-3.03zM850.6 384.01V608m-1.51-223.99h3.03V608h-3.03zM772.17 405.33V608m-1.51-202.67h3.03V608h-3.03zM823.71 406.98V608m-1.52-201.02h3.03V608h-3.03zM751.34 411.42l13.64 13.93m0 1.51c-.39 0-.79-.15-1.08-.46l-13.64-13.93c-.59-.6-.58-1.56.02-2.14.6-.59 1.56-.58 2.14.02l13.64 13.93c.59.6.58 1.56-.02 2.14-.29.3-.67.44-1.06.44zM751.34 429.61l13.64 13.93m0 1.51c-.39 0-.79-.15-1.08-.46l-13.64-13.93c-.59-.6-.58-1.56.02-2.14.6-.59 1.56-.58 2.14.02l13.64 13.93c.59.6.58 1.56-.02 2.14-.29.3-.67.44-1.06.44zM751.34 447.79l13.64 13.94m0 1.51c-.39 0-.79-.15-1.08-.46l-13.64-13.93c-.59-.6-.58-1.56.02-2.14.6-.59 1.56-.58 2.14.02l13.64 13.93c.59.6.58 1.56-.02 2.14-.29.3-.67.44-1.06.44zM751.34 465.98l13.64 13.93m0 1.52c-.39 0-.79-.15-1.08-.46l-13.64-13.93c-.59-.6-.58-1.56.02-2.14.6-.59 1.56-.57 2.14.02l13.64 13.93c.59.6.58 1.56-.02 2.14-.29.3-.67.44-1.06.44zM751.34 484.17l13.64 13.93m0 1.52c-.39 0-.79-.15-1.08-.46l-13.64-13.93c-.59-.6-.58-1.56.02-2.14.6-.59 1.56-.58 2.14.02l13.64 13.93c.59.6.58 1.56-.02 2.14-.29.29-.67.44-1.06.44zM751.34 502.36l13.64 13.93m0 1.52c-.39 0-.79-.15-1.08-.46l-13.64-13.93c-.59-.6-.58-1.56.02-2.14.6-.59 1.56-.57 2.14.02l13.64 13.93c.59.6.58 1.56-.02 2.14-.29.29-.67.44-1.06.44zM751.34 520.55l13.64 13.93m0 1.52c-.39 0-.79-.15-1.08-.46l-13.64-13.93c-.59-.6-.58-1.56.02-2.14.6-.59 1.56-.58 2.14.02l13.64 13.93c.59.6.58 1.56-.02 2.14-.29.29-.67.44-1.06.44zM751.34 538.74l13.64 13.93m0 1.51c-.39 0-.79-.15-1.08-.46l-13.64-13.93c-.59-.6-.58-1.56.02-2.14.6-.59 1.56-.57 2.14.02l13.64 13.93c.59.6.58 1.56-.02 2.14-.29.3-.67.44-1.06.44zM751.34 556.92l13.64 13.94m0 1.51c-.39 0-.79-.15-1.08-.46l-13.64-13.93c-.59-.6-.58-1.56.02-2.14.6-.59 1.56-.58 2.14.02l13.64 13.93c.59.6.58 1.56-.02 2.14-.29.3-.67.44-1.06.44zM751.34 575.11l13.64 13.93m0 1.52c-.39 0-.79-.15-1.08-.46l-13.64-13.93c-.59-.6-.58-1.56.02-2.14.6-.59 1.56-.58 2.14.02l13.64 13.93c.59.6.58 1.56-.02 2.14-.29.3-.67.44-1.06.44zM844.54 411.42l-13.64 13.93m0 1.51c-.38 0-.77-.14-1.06-.43-.6-.59-.61-1.55-.02-2.14l13.64-13.93c.59-.6 1.54-.61 2.14-.02.6.59.61 1.55.02 2.14l-13.64 13.93c-.3.3-.69.45-1.08.45zM844.54 429.61l-13.64 13.93m0 1.51c-.38 0-.77-.14-1.06-.43-.6-.59-.61-1.55-.02-2.14l13.64-13.93c.59-.6 1.54-.61 2.14-.02.6.59.61 1.55.02 2.14l-13.64 13.93c-.3.3-.69.45-1.08.45zM844.54 447.79l-13.64 13.94m0 1.51c-.38 0-.77-.14-1.06-.43-.6-.59-.61-1.55-.02-2.14l13.64-13.93c.59-.6 1.54-.61 2.14-.02.6.59.61 1.55.02 2.14l-13.64 13.93c-.3.3-.69.45-1.08.45zM844.54 465.98l-13.64 13.93m0 1.52c-.38 0-.77-.14-1.06-.43-.6-.59-.61-1.55-.02-2.14l13.64-13.93c.59-.6 1.54-.61 2.14-.02.6.59.61 1.55.02 2.14l-13.64 13.93c-.3.3-.69.45-1.08.45zM844.54 484.17 830.9 498.1m0 1.52c-.38 0-.77-.14-1.06-.43-.6-.59-.61-1.55-.02-2.14l13.64-13.93c.59-.6 1.54-.61 2.14-.02.6.59.61 1.55.02 2.14l-13.64 13.93c-.3.3-.69.45-1.08.45zM844.54 502.36l-13.64 13.93m0 1.52c-.38 0-.77-.14-1.06-.43-.6-.59-.61-1.55-.02-2.14l13.64-13.93c.59-.6 1.54-.61 2.14-.02.6.59.61 1.55.02 2.14l-13.64 13.93c-.3.29-.69.45-1.08.45zM844.54 520.55l-13.64 13.93m0 1.52c-.38 0-.77-.14-1.06-.43-.6-.59-.61-1.55-.02-2.14l13.64-13.93c.59-.6 1.54-.61 2.14-.02.6.59.61 1.55.02 2.14l-13.64 13.93c-.3.29-.69.45-1.08.45zM844.54 538.74l-13.64 13.93m0 1.51c-.38 0-.77-.14-1.06-.43-.6-.59-.61-1.55-.02-2.14l13.64-13.93c.59-.6 1.54-.61 2.14-.02.6.59.61 1.55.02 2.14l-13.64 13.93c-.3.3-.69.45-1.08.45zM844.54 556.92l-13.64 13.94m0 1.51c-.38 0-.77-.14-1.06-.43-.6-.59-.61-1.55-.02-2.14l13.64-13.93c.59-.6 1.54-.61 2.14-.02.6.59.61 1.55.02 2.14l-13.64 13.93c-.3.3-.69.45-1.08.45zM844.54 575.11l-13.64 13.93m0 1.52c-.38 0-.77-.14-1.06-.43-.6-.59-.61-1.55-.02-2.14l13.64-13.93c.59-.6 1.54-.61 2.14-.02.6.59.61 1.55.02 2.14l-13.64 13.93c-.3.3-.69.45-1.08.45z"/>
        <path class="st6" d="M824.83 361.85h-52.95l-26.47 22.21 26.47 22.21h52.95l26.47-22.21z"/>
        <path class="st6" d="M824.83 407.1h-52.95a.84.84 0 0 1-.54-.2l-26.47-22.21a.832.832 0 0 1 0-1.28l26.47-22.21c.15-.13.34-.2.54-.2h52.95c.2 0 .38.07.54.2l26.47 22.21a.832.832 0 0 1 0 1.28l-26.47 22.21a.86.86 0 0 1-.54.2zm-52.65-1.66h52.34L850 384.06l-25.48-21.38h-52.34l-25.48 21.38 25.48 21.38zM781.17 431.12h33.35m-33.35-2.74h33.35v5.48h-33.35zM781.17 449.31h33.35m-33.35-2.74h33.35v5.48h-33.35zM781.17 467.5h33.35m-33.35-2.74h33.35v5.48h-33.35zM781.17 485.69h33.35m-33.35-2.74h33.35v5.48h-33.35zM781.17 503.88h33.35m-33.35-2.75h33.35v5.48h-33.35zM781.17 522.06h33.35m-33.35-2.74h33.35v5.48h-33.35zM781.17 540.25h33.35m-33.35-2.74h33.35v5.48h-33.35zM781.17 558.44h33.35m-33.35-2.74h33.35v5.48h-33.35zM781.17 576.63h33.35m-33.35-2.74h33.35v5.48h-33.35zM781.17 594.82h33.35m-33.35-2.74h33.35v5.48h-33.35z"/>
        <linearGradient id="SVGID_7_" gradientUnits="userSpaceOnUse" x1="911.107" y1="552.361" x2="805.009" y2="552.361">
            <stop offset="0" stop-color="#e99c56"/>
            <stop offset=".179" stop-color="#e59253"/>
            <stop offset=".489" stop-color="#dc764c"/>
            <stop offset=".888" stop-color="#cc4941"/>
            <stop offset="1" stop-color="#c73b3d"/>
        </linearGradient>
        <path fill="url(#SVGID_7_)" d="M909.59 496.72H808.04L805.01 608h106.1z"/>
        <linearGradient id="SVGID_8_" gradientUnits="userSpaceOnUse" x1="911.107" y1="552.361" x2="882.322" y2="552.361">
            <stop offset="0" stop-color="#e99c56"/>
            <stop offset=".179" stop-color="#e59253"/>
            <stop offset=".489" stop-color="#dc764c"/>
            <stop offset=".888" stop-color="#cc4941"/>
            <stop offset="1" stop-color="#c73b3d"/>
        </linearGradient>
        <path fill="url(#SVGID_8_)" d="M910.7 496.72h-27.56L882.32 608h28.79z"/>
        <linearGradient id="SVGID_9_" gradientUnits="userSpaceOnUse" x1="831.605" y1="552.361" x2="805.009" y2="552.361">
            <stop offset="0" stop-color="#e99c56"/>
            <stop offset=".179" stop-color="#e59253"/>
            <stop offset=".489" stop-color="#dc764c"/>
            <stop offset=".888" stop-color="#cc4941"/>
            <stop offset="1" stop-color="#c73b3d"/>
        </linearGradient>
        <path fill="url(#SVGID_9_)" d="M831.22 496.72h-25.45L805.01 608h26.59z"/>
        <path class="st6" d="M805.14 496.37V608m-1.52-111.63h3.03V608h-3.03zm106.1 0V608m-1.51-111.63h3.03V608h-3.03zm-76.92 21.32V608m-1.51-90.31h3.03V608h-3.03zm53.05 1.65V608m-1.52-88.66h3.03V608h-3.03zm-70.85 4.44 13.64 13.93m.01 1.52c-.39 0-.79-.15-1.08-.46l-13.64-13.93c-.59-.6-.58-1.56.02-2.14.6-.59 1.56-.58 2.14.02l13.64 13.93c.59.6.58 1.56-.02 2.14-.3.29-.68.44-1.06.44zm-13.65 2.74 13.64 13.93m.01 1.52c-.39 0-.79-.15-1.08-.46l-13.64-13.93c-.59-.6-.58-1.56.02-2.14.6-.59 1.56-.57 2.14.02l13.64 13.93c.59.6.58 1.56-.02 2.14-.3.29-.68.44-1.06.44zm-13.65 2.74 13.64 13.93m.01 1.51c-.39 0-.79-.15-1.08-.46l-13.64-13.93c-.59-.6-.58-1.56.02-2.14.6-.59 1.56-.58 2.14.02l13.64 13.93c.59.6.58 1.56-.02 2.14-.3.3-.68.44-1.06.44zm-13.65 2.75 13.64 13.93m.01 1.51c-.39 0-.79-.15-1.08-.46l-13.64-13.93c-.59-.6-.58-1.56.02-2.14.6-.59 1.56-.57 2.14.02l13.64 13.93c.59.6.58 1.56-.02 2.14-.3.3-.68.44-1.06.44zm79.55-70.01-13.64 13.93m0 1.52c-.38 0-.77-.14-1.06-.43-.6-.59-.61-1.55-.02-2.14l13.64-13.93c.59-.6 1.54-.61 2.14-.02.6.59.61 1.55.02 2.14l-13.64 13.93c-.3.3-.69.45-1.08.45zM903.66 541.97l-13.64 13.93m0 1.52c-.38 0-.77-.14-1.06-.43-.6-.59-.61-1.55-.02-2.14l13.64-13.93c.59-.6 1.54-.61 2.14-.02.6.59.61 1.55.02 2.14l-13.64 13.93c-.3.29-.69.45-1.08.45zM903.66 560.16l-13.64 13.93m0 1.51c-.38 0-.77-.14-1.06-.43-.6-.59-.61-1.55-.02-2.14l13.64-13.93c.59-.6 1.54-.61 2.14-.02.6.59.61 1.55.02 2.14l-13.64 13.93c-.3.3-.69.45-1.08.45zM903.66 578.35l-13.64 13.93m0 1.51c-.38 0-.77-.14-1.06-.43-.6-.59-.61-1.55-.02-2.14l13.64-13.93c.59-.6 1.54-.61 2.14-.02.6.59.61 1.55.02 2.14l-13.64 13.93c-.3.3-.69.45-1.08.45z"/>
        <path class="st6" d="M883.95 474.21H831l-26.47 22.21L831 518.63h52.95l26.47-22.21z"/>
        <path class="st6" d="M883.95 519.47H831a.84.84 0 0 1-.54-.2l-26.47-22.21a.832.832 0 0 1 0-1.28l26.47-22.21c.15-.13.34-.2.54-.2h52.95c.2 0 .38.07.54.2l26.47 22.21a.832.832 0 0 1 0 1.28l-26.47 22.21a.86.86 0 0 1-.54.2zm-52.65-1.67h52.34l25.48-21.38-25.48-21.38H831.3l-25.48 21.38 25.48 21.38zM840.29 543.48h33.35m-33.35-2.74h33.34v5.48h-33.34zM840.29 561.67h33.35m-33.35-2.74h33.34v5.48h-33.34zM840.29 579.86h33.35m-33.35-2.74h33.34v5.48h-33.34zM840.29 598.05h33.35m-33.35-2.74h33.34v5.48h-33.34z"/>
    </g>
    <g class="st2">
        <path class="st0" d="M554.25 584.37h111.29v23.58H554.25z"/>
        <path class="st13" d="M557.3 346.17v-39.01l52.49-40.94 51.18 40.94v40.58z"/>
        <path class="st14" d="M660.97 347.78H557.3l-3.05 237.83h111.29z"/>
        <path class="st0" d="M660.97 347.78H557.3l1.53 39.64h102.14z"/>
        <linearGradient id="SVGID_10_" gradientUnits="userSpaceOnUse" x1="557.302" y1="367.602" x2="598.464" y2="367.602">
            <stop offset="0" stop-color="#e99c56"/>
            <stop offset=".179" stop-color="#e59253"/>
            <stop offset=".489" stop-color="#dc764c"/>
            <stop offset=".888" stop-color="#cc4941"/>
            <stop offset="1" stop-color="#c73b3d"/>
        </linearGradient>
        <path fill="url(#SVGID_10_)" d="M598.46 347.78H557.3l.61 39.64h40.55z"/>
        <linearGradient id="SVGID_11_" gradientUnits="userSpaceOnUse" x1="557.302" y1="367.602" x2="577.364" y2="367.602">
            <stop offset="0" stop-color="#e99c56"/>
            <stop offset=".179" stop-color="#e59253"/>
            <stop offset=".489" stop-color="#dc764c"/>
            <stop offset=".888" stop-color="#cc4941"/>
            <stop offset="1" stop-color="#c73b3d"/>
        </linearGradient>
        <path fill="url(#SVGID_11_)" d="M577.36 347.78H557.3l.3 39.64h19.76z"/>
        <path class="st13" d="M598.46 465.17h67.08v120.44h-67.08z"/>
        <linearGradient id="SVGID_12_" gradientUnits="userSpaceOnUse" x1="620.367" y1="565.452" x2="598.464" y2="565.452">
            <stop offset="0" stop-color="#e99c56"/>
            <stop offset=".179" stop-color="#e59253"/>
            <stop offset=".489" stop-color="#dc764c"/>
            <stop offset=".888" stop-color="#cc4941"/>
            <stop offset="1" stop-color="#c73b3d"/>
        </linearGradient>
        <path fill="url(#SVGID_12_)" d="M598.46 545.3h21.9v40.31h-21.9z"/>
        <linearGradient id="SVGID_13_" gradientUnits="userSpaceOnUse" x1="665.543" y1="487.276" x2="641.15" y2="487.276">
            <stop offset="0" stop-color="#e99c56"/>
            <stop offset=".179" stop-color="#e59253"/>
            <stop offset=".489" stop-color="#dc764c"/>
            <stop offset=".888" stop-color="#cc4941"/>
            <stop offset="1" stop-color="#c73b3d"/>
        </linearGradient>
        <path fill="url(#SVGID_13_)" d="M662.49 427.06h-21.34v120.43h24.39z"/>
        <linearGradient id="SVGID_14_" gradientUnits="userSpaceOnUse" x1="665.543" y1="526.688" x2="641.15" y2="526.688">
            <stop offset="0" stop-color="#e99c56"/>
            <stop offset=".179" stop-color="#e59253"/>
            <stop offset=".489" stop-color="#dc764c"/>
            <stop offset=".888" stop-color="#cc4941"/>
            <stop offset="1" stop-color="#c73b3d"/>
        </linearGradient>
        <path fill="url(#SVGID_14_)" d="M663.88 505.88h-22.73v41.61h24.39z"/>
        <path class="st6" d="M663.17 305.98c-.01-.69-.35-1.35-.89-1.76l-51.15-40.92c-.37-.31-.83-.47-1.29-.49a2.67 2.67 0 0 0-.4 0c-.46.01-.92.18-1.29.49L557 304.22c-.54.42-.87 1.07-.89 1.76L551 607.92l4.58.08.36-20.99h19.13v20.95h4.58v-20.95h16.69v20.95h4.56v-20.95h17.49v20.95h4.56v-20.95h16.69v20.95h4.58v-20.95h19.13l.36 20.99 4.56-.08-5.1-301.94zm-.57 236.82h-18.38v-35.07H662l.6 35.07zm-18.38-39.63V468.1h17.12l.6 35.07h-17.72zm17.04-39.65h-17.03v-35.05h16.44l.59 35.05zm-.68-39.63h-16.36v-35.07h15.77l.59 35.07zm-.67-39.64h-15.69V349.2h15.09l.6 35.05zm-.67-39.64h-15.02v-12.24l14.48-19.57.54 31.81zm-84.17 237.82h-19.06l.6-35.05h18.46v35.05zm0-39.63h-18.38l.6-35.07h17.78v35.07zm0-39.63h-17.71l.6-35.07h17.12v35.07zm0-39.65h-17.03l.6-35.05h16.44v35.05zm0-39.63h-16.35l.58-35.07h15.77v35.07zm0-39.64h-15.69l.6-35.05h15.09v35.05zm0-39.64h-15.02l.54-31.81 14.48 19.57v12.24zm1.03-18.53-14.54-19.64 41.93-33.54-27.39 53.18zm20.24 256.35h-16.69v-35.05h16.69v35.05zm0-39.63h-16.69v-35.07h16.69v35.07zm0-39.63h-16.69V468.1h16.69v35.07zm0-39.65h-16.69v-35.05h16.69v35.05zm0-39.63h-16.69v-35.07h16.69v35.07zm0-39.64h-16.69V349.2h16.69v35.05zm0-39.64h-16.69v-11.89l16.69-13.26v25.15zm-14.7-19.32 25.66-49.79v29.42l-25.66 20.37zm36.75 257.14H600.9v-35.05h17.49v35.05zm0-39.63H600.9v-35.07h17.49v35.07zm0-39.63H600.9V468.1h17.49v35.07zm0-39.65H600.9v-35.05h17.49v35.05zm0-39.63H600.9v-35.07h17.49v35.07zm0-39.64H600.9V349.2h17.49v35.05zm0-39.64H600.9v-28.77l8.75-6.95 8.74 6.95v28.77zm-6.41-39.68V275.5l25.66 49.79-25.66-20.36zm27.66 277.5h-16.69v-35.05h16.69v35.05zm0-39.63h-16.69v-35.07h16.69v35.07zm0-39.63h-16.69V468.1h16.69v35.07zm0-39.65h-16.69v-35.05h16.69v35.05zm0-39.63h-16.69v-35.07h16.69v35.07zm0-39.64h-16.69V349.2h16.69v35.05zm0-39.64h-16.69v-25.15l16.69 13.26v11.89zm3.55-18.53-27.4-53.19 41.93 33.54-14.53 19.65zm1.03 256.35v-35.05h18.46l.6 35.05h-19.06z"/>
    </g>
    <g class="st2">
        <path class="st13" d="M942.99 333.32h83.23v11.1h-83.23z"/>
        <path class="st20" d="M943.71 333.92h-1.96m83.69 0h-1.96"/>
        <path class="st14" d="M1028.09 323.4v18.95c0 1.28-1.03 2.3-2.3 2.3-1.28 0-2.3-1.03-2.3-2.3v-6.13h-22.83v7.19h-4.61v-7.19h-25.91v7.19h-4.61v-7.19h-21.82v6.13c0 1.28-1.03 2.3-2.3 2.3-1.26 0-2.3-1.03-2.3-2.3V323.4a2.3 2.3 0 0 1 4.6 0v8.21h79.78v-8.21a2.3 2.3 0 0 1 4.6 0z"/>
        <path class="st14" d="M1031.93 343.35V605.7c0 1.26-1.04 2.3-2.3 2.3h-92.05a2.3 2.3 0 0 1-2.3-2.3V343.35c0-1.28 1.03-2.3 2.3-2.3h92.05a2.3 2.3 0 0 1 2.3 2.3zm-47.64-96.51v12.27m0 2.3a2.3 2.3 0 0 1-2.3-2.3v-12.27a2.3 2.3 0 0 1 4.6 0v12.27a2.3 2.3 0 0 1-2.3 2.3z"/>
        <path class="st20" d="M941.4 342.35v-6.16m0-4.55v-8.24m84.39 18.95v-6.16m0-4.55v-8.24"/>
        <path d="M1031.92 343.35V605.7c0 1.26-1.03 2.29-2.29 2.29h-46.72V341.06h46.72c1.26 0 2.29 1.03 2.29 2.29z" fill="#a52d36"/>
        <path class="st22" d="M946.39 352.99h6.47v6.47h-6.47zm11.32 0h6.47v6.47h-6.47zm11.33 0h6.47v6.47h-6.47zm11.32 0h6.47v6.47h-6.47zm11.32 0h6.47v6.47h-6.47zm11.33 0h6.47v6.47h-6.47zm11.32 0h6.47v6.47h-6.47zm-67.94 12.27h6.47v6.47h-6.47zm11.32 0h6.47v6.47h-6.47zm11.33 0h6.47v6.47h-6.47zm22.64 0h6.47v6.47h-6.47zm11.33 0h6.47v6.47h-6.47zm11.32 0h6.47v6.47h-6.47zm-67.94 12.27h6.47V384h-6.47zm11.32 0h6.47V384h-6.47zm11.33 0h6.47V384h-6.47zm22.64 0h6.47V384h-6.47zm11.33 0h6.47V384h-6.47zm11.32 0h6.47V384h-6.47zM946.39 389.81h6.47v6.47h-6.47zm11.32 0h6.47v6.47h-6.47zm11.33 0h6.47v6.47h-6.47z"/>
        <path class="st13" d="M991.68 389.81h6.47v6.47h-6.47z"/>
        <linearGradient id="SVGID_15_" gradientUnits="userSpaceOnUse" x1="1009.477" y1="393.042" x2="1003.007" y2="393.042">
            <stop offset="0" stop-color="#e99c56"/>
            <stop offset=".179" stop-color="#e59253"/>
            <stop offset=".489" stop-color="#dc764c"/>
            <stop offset=".888" stop-color="#cc4941"/>
            <stop offset="1" stop-color="#c73b3d"/>
        </linearGradient>
        <path fill="url(#SVGID_15_)" d="M1003.01 389.81h6.47v6.47h-6.47z"/>
        <path class="st13" d="M1014.33 389.81h6.47v6.47h-6.47z"/>
        <path class="st22" d="M946.39 402.08h6.47v6.47h-6.47zm11.32 0h6.47v6.47h-6.47zm11.33 0h6.47v6.47h-6.47zm22.64 0h6.47v6.47h-6.47zm11.33 0h6.47v6.47h-6.47zm11.32 0h6.47v6.47h-6.47zM946.39 414.35h6.47v6.47h-6.47zm11.32 0h6.47v6.47h-6.47zm11.33 0h6.47v6.47h-6.47zm22.64 0h6.47v6.47h-6.47zm11.33 0h6.47v6.47h-6.47zm11.32 0h6.47v6.47h-6.47zM946.39 426.63h6.47v6.47h-6.47zm11.32 0h6.47v6.47h-6.47zm11.33 0h6.47v6.47h-6.47zm22.64 0h6.47v6.47h-6.47zm11.33 0h6.47v6.47h-6.47zm11.32 0h6.47v6.47h-6.47zM946.39 438.9h6.47v6.47h-6.47zm11.32 0h6.47v6.47h-6.47zm11.33 0h6.47v6.47h-6.47zm22.64 0h6.47v6.47h-6.47zm11.33 0h6.47v6.47h-6.47zm11.32 0h6.47v6.47h-6.47z"/>
        <path class="st13" d="M946.39 451.17h6.47v6.47h-6.47z"/>
        <linearGradient id="SVGID_16_" gradientUnits="userSpaceOnUse" x1="964.185" y1="454.41" x2="957.715" y2="454.41">
            <stop offset="0" stop-color="#e99c56"/>
            <stop offset=".179" stop-color="#e59253"/>
            <stop offset=".489" stop-color="#dc764c"/>
            <stop offset=".888" stop-color="#cc4941"/>
            <stop offset="1" stop-color="#c73b3d"/>
        </linearGradient>
        <path fill="url(#SVGID_16_)" d="M957.71 451.17h6.47v6.47h-6.47z"/>
        <path class="st13" d="M969.04 451.17h6.47v6.47h-6.47z"/>
        <path class="st22" d="M991.68 451.17h6.47v6.47h-6.47zm11.33 0h6.47v6.47h-6.47zm11.32 0h6.47v6.47h-6.47zM946.39 463.45h6.47v6.47h-6.47zm11.32 0h6.47v6.47h-6.47zm11.33 0h6.47v6.47h-6.47zm22.64 0h6.47v6.47h-6.47zm11.33 0h6.47v6.47h-6.47zm11.32 0h6.47v6.47h-6.47zM946.39 475.72h6.47v6.47h-6.47zm11.32 0h6.47v6.47h-6.47zm11.33 0h6.47v6.47h-6.47zm22.64 0h6.47v6.47h-6.47zm11.33 0h6.47v6.47h-6.47zm11.32 0h6.47v6.47h-6.47zM946.39 488h6.47v6.47h-6.47zm11.32 0h6.47v6.47h-6.47zm11.33 0h6.47v6.47h-6.47zm22.64 0h6.47v6.47h-6.47zm11.33 0h6.47v6.47h-6.47zm11.32 0h6.47v6.47h-6.47zM946.39 500.27h6.47v6.47h-6.47zm11.32 0h6.47v6.47h-6.47zm11.33 0h6.47v6.47h-6.47zm22.64 0h6.47v6.47h-6.47zm11.33 0h6.47v6.47h-6.47zm11.32 0h6.47v6.47h-6.47zM946.39 512.54h6.47v6.47h-6.47zm11.32 0h6.47v6.47h-6.47zm11.33 0h6.47v6.47h-6.47zm22.64 0h6.47v6.47h-6.47zm11.33 0h6.47v6.47h-6.47zm11.32 0h6.47v6.47h-6.47z"/>
        <path class="st13" d="M946.39 524.82h6.47v6.47h-6.47zm11.32 0h6.47v6.47h-6.47zm11.33 0h6.47v6.47h-6.47z"/>
        <linearGradient id="SVGID_17_" gradientUnits="userSpaceOnUse" x1="998.154" y1="528.052" x2="991.684" y2="528.052">
            <stop offset="0" stop-color="#e99c56"/>
            <stop offset=".179" stop-color="#e59253"/>
            <stop offset=".489" stop-color="#dc764c"/>
            <stop offset=".888" stop-color="#cc4941"/>
            <stop offset="1" stop-color="#c73b3d"/>
        </linearGradient>
        <path fill="url(#SVGID_17_)" d="M991.68 524.82h6.47v6.47h-6.47z"/>
        <linearGradient id="SVGID_18_" gradientUnits="userSpaceOnUse" x1="1009.477" y1="528.052" x2="1003.007" y2="528.052">
            <stop offset="0" stop-color="#e99c56"/>
            <stop offset=".179" stop-color="#e59253"/>
            <stop offset=".489" stop-color="#dc764c"/>
            <stop offset=".888" stop-color="#cc4941"/>
            <stop offset="1" stop-color="#c73b3d"/>
        </linearGradient>
        <path fill="url(#SVGID_18_)" d="M1003.01 524.82h6.47v6.47h-6.47z"/>
        <linearGradient id="SVGID_19_" gradientUnits="userSpaceOnUse" x1="1020.801" y1="528.052" x2="1014.33" y2="528.052">
            <stop offset="0" stop-color="#e99c56"/>
            <stop offset=".179" stop-color="#e59253"/>
            <stop offset=".489" stop-color="#dc764c"/>
            <stop offset=".888" stop-color="#cc4941"/>
            <stop offset="1" stop-color="#c73b3d"/>
        </linearGradient>
        <path fill="url(#SVGID_19_)" d="M1014.33 524.82h6.47v6.47h-6.47z"/>
        <path class="st22" d="M946.39 537.09h6.47v6.47h-6.47zm11.32 0h6.47v6.47h-6.47zm11.33 0h6.47v6.47h-6.47zm22.64 0h6.47v6.47h-6.47zm11.33 0h6.47v6.47h-6.47zm11.32 0h6.47v6.47h-6.47zM946.39 549.36h6.47v6.47h-6.47zm11.32 0h6.47v6.47h-6.47zm11.33 0h6.47v6.47h-6.47zm22.64 0h6.47v6.47h-6.47zm11.33 0h6.47v6.47h-6.47zm11.32 0h6.47v6.47h-6.47zM946.39 561.64h6.47v6.47h-6.47zm11.32 0h6.47v6.47h-6.47zm11.33 0h6.47v6.47h-6.47zm22.64 0h6.47v6.47h-6.47zm11.33 0h6.47v6.47h-6.47zm11.32 0h6.47v6.47h-6.47zM946.39 573.91h6.47v6.47h-6.47zm11.32 0h6.47v6.47h-6.47zm11.33 0h6.47v6.47h-6.47zm22.64 0h6.47v6.47h-6.47zm11.33 0h6.47v6.47h-6.47zm11.32 0h6.47v6.47h-6.47zM946.39 586.18h6.47v6.47h-6.47zm11.32 0h6.47v6.47h-6.47zm11.33 0h6.47v6.47h-6.47zm22.64 0h6.47v6.47h-6.47zm11.33 0h6.47v6.47h-6.47zm11.32 0h6.47v6.47h-6.47z"/>
        <path class="st6" d="M1024.69 330.88c-.42.69-1.17 1.11-1.97 1.11h-78.25c-.8 0-1.55-.43-1.97-1.12-.42-.69-.43-1.57-.06-2.27l39.78-73.65c.42-.78 1.29-1.25 2.08-1.21.83-.01 1.68.44 2.1 1.25l38.36 73.63c.37.72.35 1.57-.07 2.26z"/>
    </g>
    <circle cx="668.88" cy="142.86" r="2.82" opacity=".3" fill="#e99c56"/>
    <circle cx="668.45" cy="148.87" r="8.41" opacity=".3" fill="#420f3b"/>
    <path class="st1" d="M1025.19 138.6h-82.44c0-10.27 8.33-18.6 18.6-18.6 2.5 0 4.88.5 7.05 1.39 5.56-8.31 15.03-13.79 25.78-13.79 17.13 0 31.01 13.88 31.01 31zM571.07 64.04h-111.8c0-23.22 18.83-42.04 42.04-42.04 14.59 0 27.44 7.42 34.97 18.7 2.95-1.22 6.18-1.89 9.55-1.89 13.95.01 25.24 11.3 25.24 25.23z"/>
    <circle cx="765.35" cy="45.62" r="2.82" opacity=".3" fill="#e99c56" stroke="#e99c56" stroke-width="8.088" stroke-linecap="round" stroke-linejoin="round" stroke-miterlimit="10"/>
    <circle class="st31" cx="991.83" cy="241.35" r="2.82"/>
    <path class="st32" d="M564.65 146.2c0 .93-.76 1.69-1.69 1.69h-5.08v5.08c0 .93-.76 1.69-1.69 1.69-.94 0-1.69-.77-1.69-1.69v-5.08h-5.08c-.94 0-1.69-.77-1.69-1.69 0-.94.76-1.69 1.69-1.69h5.08v-5.08c0-.94.76-1.69 1.69-1.69.94 0 1.69.76 1.69 1.69v5.08h5.08c.94-.01 1.69.75 1.69 1.69z"/>
    <circle class="st31" cx="963.64" cy="175.18" r="2.82"/>
    <path class="st32" d="M725.1 253.23c0 .93-.76 1.69-1.69 1.69h-5.08V260c0 .93-.76 1.69-1.69 1.69-.94 0-1.69-.77-1.69-1.69v-5.08h-5.08c-.94 0-1.69-.77-1.69-1.69 0-.94.76-1.69 1.69-1.69h5.08v-5.08c0-.94.76-1.69 1.69-1.69.94 0 1.69.76 1.69 1.69v5.08h5.08c.93 0 1.69.76 1.69 1.69z"/>
    <svg id="annual-logo" x="762" y="364">
        <path d="M26.19 12.98h6.99v7.07h-6.99v-7.07zm-4.12-.08h-6.99v10.57c-.93-.23-2.02-.39-3.11-.39C4.74 23.08 0 27.59 0 34.66c0 7.31 4.43 11.04 12.98 11.11 3.11 0 6.06-.31 9.09-.85V12.9zm-6.99 27.2c-.78.16-1.55.16-2.41.16-3.57 0-5.6-2.02-5.6-5.75s2.02-5.91 5.6-5.91c.78 0 1.55.08 2.33.39l.08 11.11zm11.11-2.95c0 5.98-.31 8.24-1.32 10.26-1.01 2.02-2.49 3.19-5.6 4.59l6.45 3.11c3.11-1.48 4.51-2.95 5.75-5.13 1.09-2.18 1.63-4.9 1.63-10.49V23.55h-6.99l.08 13.6zm20.36-14.07c-3.19 0-6.37.62-9.25 2.1v5.28c2.56-1.32 5.36-2.02 8.16-2.1 1.79 0 2.41.47 2.41 1.79v1.48c-8.55.7-12.12 2.95-12.12 7.77 0 4.43 2.64 6.53 8.47 6.53 3.26 0 6.68-.31 9.95-.7V31.09c0-2.88-.16-4.2-.7-5.28-1.01-1.87-3.27-2.73-6.92-2.73zm1.71 17.64c-1.09.23-2.25.31-3.34.31-1.94 0-2.8-.62-2.8-1.94 0-1.87 1.48-2.56 6.14-3.03v4.66zm67.69 5.44c6.99 0 11.5-4.43 11.5-11.81 0-6.99-4.27-11.35-11.19-11.35-7.07 0-11.5 4.43-11.5 11.81 0 6.92 4.27 11.35 11.19 11.35zm.23-17.64c2.72 0 4.2 2.25 4.2 5.98s-1.55 5.98-4.27 5.98-4.27-2.18-4.27-5.98c-.01-3.8 1.62-5.98 4.34-5.98zm-10.72-4.43c-3.03-.62-6.06-.93-9.09-.93-10.18 0-16.01 4.43-16.01 12.28 0 6.29 3.89 10.34 9.95 10.34 1.55.08 3.11-.31 4.43-.93V45c0 4.43-1.94 6.22-6.53 6.22-2.64 0-5.21-.62-7.46-1.87v6.37c2.41.85 4.9 1.32 7.46 1.32 3.65 0 6.61-.78 8.78-2.41.39-.23.7-.54 1.01-.78.62-.54 1.01-1.09 1.48-1.87 1.48-2.33 2.02-5.13 2.02-10.96v-1.94c-.08-.93-.08-1.94-.08-2.88l-.08-3.73-.08-2.95v-.7c1.4.16-.31-.16 1.55.16l2.65-4.89zm-10.49 15v.54c-.78.31-1.79.47-2.64.47-3.11 0-4.74-1.94-4.74-5.44 0-2.41.85-4.12 2.56-5.13 1.17-.62 2.64-1.01 4.04-.93h.7v.54l.08 2.25.08 3.19c0 .93.08 1.94.08 2.64-.01 0-.16 1.87-.16 1.87zM68.62 23.08c-3.65.08-7.38.62-10.88 1.55v20.9h6.99V29.06c1.01-.31 2.1-.54 3.19-.54 2.49 0 3.34.93 3.34 3.65v13.29h6.99V31.94c0-3.42-.47-5.13-1.94-6.53-1.39-1.4-4.11-2.33-7.69-2.33zm104.91 11.66c0-6.99-4.27-11.35-11.19-11.35-7.07 0-11.5 4.43-11.5 11.81 0 6.99 4.27 11.35 11.27 11.35 6.92 0 11.42-4.58 11.42-11.81zm-15.69.15c0-3.81 1.55-5.98 4.35-5.98s4.2 2.25 4.2 5.98-1.55 5.98-4.27 5.98-4.28-2.09-4.28-5.98zm31.31-2.25v13.29h6.99v-13.6c0-3.42-.47-5.13-1.94-6.53-1.4-1.4-4.12-2.41-7.69-2.41-3.65.08-7.38.62-10.88 1.55V46h6.99V29.53c1.01-.31 2.1-.54 3.19-.47 2.41-.07 3.34.94 3.34 3.58zm28.84 12.67c.93-1.01 1.32-2.18 1.32-4.51v-9.48h-4.82v9.25c0 1.94-.62 2.56-2.33 2.56-.7 0-1.48-.16-2.25-.39V31.32h-4.74v14.53c2.49.62 4.97 1.01 7.62 1.01 2.32.16 4.19-.39 5.2-1.55zm-84.71-2.02c2.25 2.1 6.37 2.88 9.17 2.8 2.18 0 4.35-.54 6.29-1.55v-5.6c-1.48.7-3.19 1.17-4.74 1.17-2.72 0-6.99-1.01-6.99-5.83s4.27-5.83 6.99-5.83c1.63 0 3.19.54 4.59 1.32V24.1c-1.94-.85-3.96-1.32-6.06-1.32-2.8 0-6.61.78-8.86 3.03-2.41 2.18-3.81 5.28-3.81 8.47-.39 3.33.93 6.67 3.42 9.01zm93.49-6.22c-1.09-.54-1.01-1.09-1.01-1.09s0-.93 1.94-.93c1.4 0 2.8.39 4.04.93v-3.65a9.463 9.463 0 0 0-4.9-.85c-5.67.23-5.6 4.43-5.6 4.43-.16 1.09.31 2.25 1.01 3.19 1.17.93 2.56 1.79 3.96 2.25 1.01.39 1.4.85 1.4 1.09 0 .23.16 1.01-1.94 1.01-1.55-.08-3.11-.54-4.43-1.17v3.81c2.1.78 4.43 1.09 6.61.78 2.1-.39 4.2-1.01 4.43-4.43.16-3.35-3.18-4.36-5.51-5.37zm-28.91 3.26h5.6v5.6h-5.6v-5.6zM40.1 15.46a.584.584 0 0 1-.16-.39v-1.63c0-.47.16-.78.54-1.09l2.02-2.02c1.4-1.09 2.41-1.87 3.19-2.49.7-.62 1.24-1.09 1.63-1.63.39-.47.54-.93.54-1.32 0-1.09-.54-1.63-1.63-1.63-.54 0-1.01.16-1.32.54-.31.31-.54.78-.62 1.32-.08.31-.31.54-.78.54h-2.88c-.16 0-.23-.08-.31-.16-.08-.08-.16-.23-.16-.31 0-.93.31-1.87.78-2.64.47-.78 1.24-1.4 2.1-1.87C43.99.23 45 0 46.16 0c1.24 0 2.25.23 3.19.62.93.39 1.55.93 2.02 1.63s.7 1.55.7 2.49c0 1.09-.31 2.02-1.01 2.88-.62.85-1.63 1.79-2.95 2.8l-1.79 1.79h5.6c.16 0 .31.08.39.16.08.08.16.23.16.39v2.33c0 .16-.08.31-.16.39-.08.08-.23.16-.39.16H40.49c-.16.06-.31-.02-.39-.18zm16.16-1.16c-1.09-1.09-1.63-2.41-1.71-4.2 0-.78-.08-1.48-.08-2.1 0-.62 0-1.4.08-2.18.08-1.09.31-2.1.85-2.95.47-.85 1.17-1.55 2.1-2.02s2.1-.78 3.42-.78c1.32 0 2.49.23 3.42.78.93.47 1.63 1.17 2.18 2.02.54.85.78 1.87.85 2.95 0 .39.08 1.17.08 2.18s0 1.71-.08 2.1c-.08 1.71-.7 3.11-1.71 4.2-1.09 1.09-2.56 1.55-4.66 1.63-2.09-.08-3.65-.62-4.74-1.63zm6.22-2.41c.31-.47.54-1.09.54-1.87 0-.39.08-1.09.08-2.1 0-.93 0-1.63-.08-2.02 0-.78-.23-1.4-.54-1.87-.31-.47-.85-.7-1.55-.7-1.32 0-2.02.85-2.1 2.56v4.12c.08 1.71.78 2.56 2.1 2.56.7.02 1.16-.21 1.55-.68zm7.07 3.57a.584.584 0 0 1-.16-.39v-1.63c0-.47.16-.78.54-1.09l2.02-2.02c1.4-1.09 2.41-1.87 3.19-2.49.7-.62 1.24-1.09 1.63-1.63.39-.47.54-.93.54-1.32 0-1.09-.54-1.63-1.63-1.63-.54 0-1.01.16-1.32.54-.31.31-.54.78-.62 1.32-.08.31-.31.54-.78.54H70.1c-.16 0-.23-.08-.31-.16-.08-.08-.16-.23-.16-.31 0-.93.31-1.87.78-2.64s1.24-1.4 2.1-1.87C73.44.23 74.45 0 75.62 0c1.24 0 2.25.23 3.19.62s1.55.93 2.02 1.63.7 1.55.7 2.49c0 1.09-.31 2.02-1.01 2.88-.7.85-1.63 1.79-2.95 2.8l-1.79 1.79h5.6c.16 0 .31.08.39.16s.16.23.16.39v2.33c0 .16-.08.31-.16.39-.08.08-.23.16-.39.16h-11.5c-.09.06-.25-.02-.33-.18zM108.02 68c-1.01-.39-1.71-.93-2.25-1.55-.47-.62-.78-1.4-.78-2.18 0-.16.08-.23.16-.31.08-.08.23-.16.31-.16h2.88c.16 0 .31 0 .39.08.08.08.23.16.39.31.16.31.47.62.85.85s.93.31 1.55.31c.78 0 1.4-.16 1.79-.39.39-.23.62-.54.62-1.01 0-.31-.08-.54-.31-.78-.23-.16-.54-.39-1.01-.54-.47-.16-1.17-.31-2.02-.54-1.71-.31-3.03-.85-3.89-1.55s-1.32-1.71-1.32-3.03c0-.85.23-1.71.78-2.41s1.17-1.24 2.1-1.63c.93-.39 1.94-.54 3.19-.54 1.24 0 2.33.23 3.26.62.93.47 1.63 1.01 2.1 1.63.47.62.78 1.32.78 1.94 0 .16-.08.23-.16.31-.08.08-.23.16-.31.16h-3.03c-.31 0-.54-.16-.7-.39-.08-.31-.31-.54-.7-.78s-.78-.31-1.32-.31c-.62 0-1.09.08-1.4.31-.31.23-.47.54-.47.93s.23.78.62 1.01c.39.23 1.24.47 2.41.7 1.32.23 2.41.54 3.19.93.78.39 1.4.85 1.79 1.4.39.54.54 1.32.54 2.18 0 1.01-.31 1.79-.85 2.56-.54.7-1.32 1.24-2.33 1.63-1.01.39-2.1.54-3.42.54-1.25.32-2.42.09-3.43-.3zm10.8.23c-.08-.08-.16-.16-.16-.31v-.16L123.71 54c.16-.39.47-.62.85-.62h3.34c.47 0 .7.23.85.62l5.05 13.76v.16c0 .08-.08.23-.16.31s-.23.16-.31.16h-2.8c-.31 0-.62-.16-.7-.47l-.78-2.1h-5.67l-.78 2.1c-.16.31-.39.47-.7.47h-2.8c-.04 0-.2-.08-.28-.16zm5.52-5.67h3.81l-1.94-5.52-1.87 5.52zm11.27 5.67a.584.584 0 0 1-.16-.39V53.86c0-.16.08-.31.16-.39s.23-.16.39-.16h2.41c.31 0 .54.16.7.39l5.05 8v-7.85c0-.16.08-.31.16-.39s.23-.16.39-.16h2.72c.16 0 .31.08.39.16.08.08.16.23.16.39v13.91c0 .16-.08.31-.16.39s-.23.16-.39.16h-2.41c-.31 0-.54-.16-.7-.39l-5.05-7.69v7.54c0 .16-.08.31-.16.39s-.23.16-.39.16H136c-.16.07-.23-.01-.39-.09zm20.05 0a.584.584 0 0 1-.16-.39V53.86c0-.16.08-.31.16-.39.08-.08.23-.16.39-.16h5.67c2.1 0 3.81.54 4.97 1.55 1.17 1.01 1.79 2.49 1.87 4.35v3.26c-.16 3.96-2.41 5.91-6.68 5.91h-5.75c-.24.01-.39-.07-.47-.15zm6.06-3.11c.93 0 1.55-.23 2.02-.62.47-.47.62-1.09.7-2.1 0-.39.08-.93.08-1.63s0-1.17-.08-1.55c0-.93-.31-1.63-.78-2.02-.47-.47-1.17-.62-2.02-.62h-2.02v8.63l2.1-.09zm9.4 3.11a.584.584 0 0 1-.16-.39V53.86c0-.16.08-.31.16-.39s.23-.16.39-.16h3.11c.16 0 .31.08.39.16.08.08.16.23.16.39v13.99c0 .16-.08.31-.16.39s-.23.16-.39.16h-3.11a.67.67 0 0 1-.39-.17zm7.08 0a.584.584 0 0 1-.16-.39V53.86c0-.16.08-.31.16-.39s.23-.16.39-.16h10.18c.16 0 .31.08.39.16.08.08.16.23.16.39v2.1c0 .16-.08.31-.16.39s-.23.16-.39.16H182v2.72h6.29c.16 0 .31.08.39.16.08.08.16.23.16.39v1.94c0 .16-.08.31-.16.39-.08.08-.23.16-.39.16H182v2.8h7c.16 0 .31.08.39.16.08.08.16.23.16.39v2.1c0 .16-.08.31-.16.39-.08.08-.23.16-.39.16h-10.34c-.23.12-.39.04-.46-.04zm14.92-1.16c-1.17-1.01-1.79-2.49-1.87-4.35v-3.88c.08-1.79.7-3.19 1.87-4.2 1.17-1.01 2.8-1.48 4.9-1.48 1.4 0 2.56.23 3.57.7 1.01.47 1.79 1.01 2.33 1.71s.85 1.4.85 2.18c0 .16-.08.23-.16.31-.08.08-.23.16-.31.16h-3.34c-.16 0-.23 0-.31-.08l-.23-.23c-.16-.39-.47-.78-.85-1.01-.39-.31-.93-.47-1.63-.47-1.63 0-2.49.85-2.56 2.56v3.74c.08 1.79.93 2.72 2.64 2.72.85 0 1.48-.23 1.94-.62.47-.39.7-1.01.7-1.87v-.39h-1.94c-.16 0-.31-.08-.39-.16a.584.584 0 0 1-.16-.39v-1.71c0-.16.08-.31.16-.39.08-.08.23-.16.39-.16h5.44c.16 0 .31.08.39.16.08.08.16.23.16.39v2.49c0 1.24-.31 2.25-.85 3.19-.54.85-1.4 1.55-2.41 2.02s-2.25.7-3.65.7c-1.81-.09-3.44-.63-4.68-1.64zm15.62.07c-1.17-1.01-1.79-2.41-1.87-4.35v-3.74c.08-1.87.7-3.34 1.87-4.35 1.17-1.01 2.8-1.55 4.82-1.55 2.02 0 3.57.54 4.82 1.55 1.24 1.01 1.79 2.49 1.87 4.35 0 .85.08 1.48.08 1.87 0 .47 0 1.01-.08 1.87-.08 1.94-.7 3.34-1.87 4.35-1.17 1.01-2.8 1.48-4.82 1.48-2.1 0-3.66-.54-4.82-1.48zm6.6-2.48c.47-.47.7-1.17.7-2.1 0-.85.08-1.4.08-1.79 0-.39 0-.93-.08-1.71 0-.93-.23-1.63-.7-2.1s-1.01-.7-1.79-.7-1.4.23-1.79.7c-.39.47-.7 1.17-.7 2.1v3.5c0 .93.23 1.63.7 2.1.47.47 1.01.7 1.79.7.71 0 1.33-.24 1.79-.7zM83.93 15.46a.584.584 0 0 1-.16-.39v-1.63c0-.47.16-.78.54-1.09l2.02-2.02c1.4-1.09 2.41-1.87 3.19-2.49.7-.62 1.24-1.09 1.63-1.63.39-.47.54-.93.54-1.32 0-1.09-.54-1.63-1.63-1.63-.54 0-1.01.16-1.32.54-.31.31-.54.78-.62 1.32-.08.31-.31.54-.78.54h-2.88c-.16 0-.23-.08-.31-.16-.08-.08-.16-.23-.16-.31 0-.93.31-1.87.78-2.64s1.24-1.4 2.1-1.87C87.82.23 88.83 0 89.99 0c1.24 0 2.25.23 3.19.62.93.39 1.55.93 2.02 1.63s.7 1.55.7 2.49c0 1.09-.31 2.02-1.01 2.88-.7.85-1.63 1.79-2.95 2.8l-1.79 1.79h5.6c.16 0 .31.08.39.16s.16.23.16.39v2.33c0 .16-.08.31-.16.39-.08.08-.23.16-.39.16h-11.5c-.09.06-.24-.02-.32-.18z" style="fill:#ea9d56"/>
    </svg>
</svg>
