<?xml version="1.0" encoding="utf-8"?>
<!-- Generator: Adobe Illustrator 26.2.1, SVG Export Plug-In . SVG Version: 6.00 Build 0)  -->
<svg version="1.1" id="Layer_1" xmlns="http://www.w3.org/2000/svg" xmlns:xlink="http://www.w3.org/1999/xlink" x="0px" y="0px"
	 viewBox="0 0 149 52" style="enable-background:new 0 0 149 52;" xml:space="preserve">
<style type="text/css">
	.st0{fill:#FFFFFF;}
</style>
<path class="st0" d="M52.8,51.6h-4.4c-0.4,0-0.8-0.3-0.8-0.8V1.9c0-0.4,0.4-0.8,0.8-0.8h4.4c0.4,0,0.8,0.4,0.8,0.8v49
	C53.5,51.3,53.2,51.6,52.8,51.6z M0.3,23C0.1,22.9,0,22.7,0,22.5V2.1c0-0.2,0.1-0.4,0.2-0.6s0.3-0.2,0.6-0.2h8.3
	c3.1,0,5.5,0.7,7.2,2.2C18.1,5,19,7.1,19,9.9c0,0.6,0,1.4,0,2.4s0,1.8,0,2.4c-0.2,5.7-3.5,8.6-9.8,8.6H0.8C0.6,23.2,0.4,23.1,0.3,23
	z M9.1,18.6c1.3,0,2.3-0.3,2.9-0.9c0.6-0.6,1-1.6,1-3c0.1-1.6,0.1-3.1,0-4.7c0-1.3-0.4-2.3-1.1-3s-1.7-1-3-1h-3v12.5L9.1,18.6
	L9.1,18.6L9.1,18.6z M24.7,21.4C23,20,22.1,17.9,22,15.1c0-0.6,0-1.5,0-2.7c0-1.3,0-2.2,0-2.8c0.1-2.7,1-4.8,2.8-6.3
	c1.7-1.5,4.1-2.2,7-2.2c1.9,0,3.5,0.3,5,0.9s2.7,1.5,3.5,2.6c0.9,1.2,1.3,2.5,1.3,4.1c0,0.4-0.3,0.7-0.6,0.7c0,0,0,0,0,0h-4.5
	c-0.3,0-0.5-0.1-0.6-0.2c-0.1-0.1-0.3-0.3-0.4-0.6c-0.3-1-0.7-1.7-1.3-2.1c-0.6-0.4-1.4-0.6-2.4-0.6c-2.4,0-3.6,1.3-3.7,4
	c0,0.6,0,1.4,0,2.6s0,2,0,2.7c0.1,2.6,1.3,3.9,3.7,3.9c1,0,1.8-0.2,2.4-0.6c0.6-0.4,1.1-1.1,1.3-2.1c0.1-0.3,0.2-0.5,0.4-0.6
	c0.2-0.1,0.4-0.2,0.7-0.2h4.5c0.4,0,0.7,0.3,0.7,0.6c0,0,0,0,0,0c0,1.6-0.5,2.9-1.3,4.1c-0.9,1.1-2,2-3.5,2.6
	c-1.5,0.6-3.1,0.9-5,0.9C28.8,23.5,26.4,22.8,24.7,21.4z M2.6,49.5C0.9,48,0,45.8,0,42.9v-13c0-0.2,0.1-0.4,0.2-0.6
	c0.2-0.2,0.4-0.2,0.6-0.2h4.4c0.2,0,0.4,0.1,0.6,0.2C5.9,29.5,6,29.7,6,29.9v12.9c0,1.3,0.3,2.3,0.9,3c0.6,0.7,1.5,1,2.7,1
	s2.1-0.3,2.7-1c0.6-0.7,0.9-1.7,0.9-2.9V29.9c0-0.2,0.1-0.4,0.2-0.6c0.2-0.2,0.4-0.2,0.6-0.2h4.3c0.2,0,0.4,0.1,0.6,0.2
	c0.2,0.2,0.2,0.4,0.2,0.6v13c0,2.9-0.9,5.1-2.6,6.6c-1.7,1.5-4,2.2-7.1,2.2C6.6,51.6,4.3,50.9,2.6,49.5z M26.6,50.8
	c-1.4-0.6-2.5-1.4-3.3-2.4c-0.7-1-1.2-2-1.2-3.2c0-0.4,0.3-0.7,0.6-0.7c0,0,0,0,0,0H27c0.3,0,0.4,0,0.6,0.1c0.2,0.1,0.3,0.2,0.5,0.4
	c0.3,0.5,0.7,0.9,1.3,1.2c0.6,0.3,1.4,0.5,2.3,0.5c1.2,0,2-0.2,2.7-0.5c0.6-0.4,0.9-0.8,0.9-1.4c0-0.4-0.2-0.8-0.5-1.1
	c-0.3-0.3-0.8-0.5-1.5-0.8c-0.7-0.2-1.7-0.5-3-0.7c-2.6-0.5-4.5-1.3-5.8-2.3c-1.3-1.1-1.9-2.5-1.9-4.4c0-1.3,0.4-2.5,1.1-3.5
	s1.8-1.8,3.1-2.4c1.3-0.6,2.9-0.9,4.7-0.9c1.9,0,3.5,0.3,4.9,1c1.4,0.6,2.4,1.4,3.2,2.4c0.7,1,1.1,1.9,1.2,2.8
	c0,0.4-0.3,0.7-0.6,0.7c0,0,0,0,0,0h-4.5c-0.5,0-0.8-0.2-1.1-0.6c-0.1-0.4-0.4-0.8-1-1.1c-0.5-0.3-1.2-0.4-2-0.4
	c-0.9,0-1.6,0.2-2.1,0.5c-0.5,0.3-0.7,0.8-0.7,1.4c0,0.6,0.3,1.1,1,1.4c0.6,0.4,1.8,0.7,3.6,1.1c2,0.4,3.6,0.8,4.8,1.3
	s2.1,1.2,2.6,2.1c0.6,0.9,0.8,1.9,0.8,3.3c0,1.4-0.4,2.7-1.2,3.7c-0.8,1.1-2,1.9-3.4,2.4c-1.5,0.6-3.1,0.8-5,0.8
	C29.8,51.6,28.1,51.4,26.6,50.8L26.6,50.8z M60.1,50.8c-0.4-0.4-0.5-0.8-0.5-1.2v-5.4c0-1.4,0.6-2.7,1.8-3.6l6.7-6.5
	c4.6-3.5,8-6.1,10.4-8c2.3-1.9,4.1-3.6,5.4-5.2c1.2-1.6,1.8-3,1.8-4.4c0-3.5-1.8-5.3-5.4-5.3c-1.9,0-3.3,0.6-4.3,1.7
	c-1,1.1-1.7,2.5-2,4.2c-0.3,1.1-1.1,1.7-2.5,1.7h-9.5c-0.5,0-0.8-0.2-1.1-0.5c-0.3-0.3-0.5-0.7-0.5-1.1c0.1-3.2,1-6,2.6-8.6
	c1.7-2.6,4-4.6,7-6.1c3-1.5,6.4-2.3,10.3-2.3c4,0,7.5,0.6,10.4,1.9c2.9,1.3,5.2,3.1,6.7,5.5c1.5,2.4,2.3,5.1,2.3,8.2
	c0,3.4-1.1,6.6-3.2,9.4S91,30.8,86.6,34l-6,6h18.3c0.5,0,1,0.2,1.3,0.5c0.3,0.3,0.5,0.8,0.5,1.3v7.7c0,0.5-0.2,0.9-0.5,1.2
	c-0.4,0.4-0.8,0.5-1.3,0.5H61.4C60.9,51.3,60.5,51.1,60.1,50.8L60.1,50.8z M104.5,50.8c-0.4-0.4-0.5-0.8-0.5-1.2v-5.4
	c0-1.4,0.6-2.7,1.8-3.6l6.7-6.5c4.6-3.5,8-6.1,10.4-8c2.3-1.9,4.1-3.6,5.4-5.2c1.2-1.6,1.8-3,1.8-4.4c0-3.5-1.8-5.3-5.4-5.3
	c-1.9,0-3.3,0.6-4.3,1.7c-1,1.1-1.7,2.5-2,4.2c-0.3,1.1-1.1,1.7-2.5,1.7h-9.5c-0.4,0-0.8-0.2-1.1-0.5c-0.3-0.3-0.5-0.7-0.5-1.1
	c0.1-3.2,1-6,2.6-8.6c1.7-2.6,4-4.6,7-6.1c3-1.5,6.4-2.3,10.3-2.3c4,0,7.5,0.6,10.4,1.9c2.9,1.3,5.2,3.1,6.7,5.5
	c1.5,2.4,2.3,5.1,2.3,8.2c0,3.4-1.1,6.6-3.2,9.4c-2.1,2.8-5.4,5.8-9.8,9.1l-6,6h18.3c0.5,0,1,0.2,1.3,0.5c0.3,0.3,0.5,0.8,0.5,1.3
	v7.7c0,0.5-0.2,0.9-0.5,1.2c-0.4,0.4-0.8,0.5-1.3,0.5h-37.5C105.3,51.3,104.9,51.1,104.5,50.8L104.5,50.8z"/>
</svg>
