<svg xmlns="http://www.w3.org/2000/svg" width="401.44" height="56.3" viewBox="0 0 401.44 56.3"><defs><style>.cls-1{fill:#231f20;}</style></defs><title>butter</title><g id="Layer_2" data-name="Layer 2"><g id="Layer_1-2" data-name="Layer 1"><path class="cls-1" d="M24.62,22a2,2,0,0,0,1-.24l9.95-5.35a2,2,0,0,0-1.94-3.6l-9.95,5.35a2,2,0,0,0,1,3.85Z"/><path class="cls-1" d="M39.78,29.85a2,2,0,0,0,1-.24L56.65,21a2,2,0,0,0-1.94-3.6L38.81,26a2,2,0,0,0,1,3.85Z"/><path class="cls-1" d="M80.95,18.6a4.66,4.66,0,0,0-2.4-2.73L61.41,6.65a10.34,10.34,0,0,0-9,0L51,7.4,39.14,1a10.34,10.34,0,0,0-9,0L2.54,15.87A4.38,4.38,0,0,0,0,19.33c0,.06,0,.13,0,.2v15a2,2,0,0,0,1.07,1.8l35,19a10.35,10.35,0,0,0,9.05,0L80,36.11a2,2,0,0,0,1.06-1.79v-15A2,2,0,0,0,80.95,18.6Zm-76.47.87L32,4.64a6.38,6.38,0,0,1,5.16,0L51,12l3.34-1.8a6.38,6.38,0,0,1,5.16,0l17.14,9.22.18.11-.18.11-33.48,18a6.38,6.38,0,0,1-5.16,0l-33.48-18-.18-.11ZM43.12,51.66a6.38,6.38,0,0,1-5.15,0L4.09,33.28V24.13L36,41.31a10.34,10.34,0,0,0,9,0L77,24.13v9Z"/><path class="cls-1" d="M115.65,9.23h18.21Q147,9.23,147,18.3a8.57,8.57,0,0,1-1.58,5.19,9.53,9.53,0,0,1-4.33,3.25,10.22,10.22,0,0,1,5.74,3.08A8.22,8.22,0,0,1,149,35.54q0,5.71-4.07,8.67t-11.8,3H115.59V41.76l1.82-.17a1.62,1.62,0,0,0,1.08-.46,2.44,2.44,0,0,0,.26-1.37V15.05l-3.1-.23Zm13.17,6.33v9h2.69q5.27,0,5.27-4.79,0-4.22-5.09-4.22Zm0,15.18v9.81h3.63q5.8,0,5.8-5.19,0-4.62-5.68-4.62Z"/><path class="cls-1" d="M180.7,18V40a2.29,2.29,0,0,0,.26,1.31,1.54,1.54,0,0,0,1,.46l1.58.17v5.19H171.8V43.53h-.18q-2.58,4.39-8.55,4.39-4.57,0-6.73-2.34t-2.17-7.3V25.21a1.51,1.51,0,0,0-1.41-1.66l-1.58-.11V18H164V36.39a5.84,5.84,0,0,0,.64,3.14,2.74,2.74,0,0,0,2.46,1,3.64,3.64,0,0,0,2.9-1.26A4.89,4.89,0,0,0,171,35.94V25.27a2,2,0,0,0-.29-1.26,1.77,1.77,0,0,0-1.11-.46l-1.29-.11V18Z"/><path class="cls-1" d="M198.91,11.34V18H207q3.75-1.71,5.45-6.68h5.39V18h6.85l-.47,6.28h-6.38V36.56a5.61,5.61,0,0,0,.64,3.22q.64.83,2.69.83a7.51,7.51,0,0,0,3.63-.86l1.35,6.39a15.29,15.29,0,0,1-7.85,1.77,20.56,20.56,0,0,1-3.78-.31,11.86,11.86,0,0,1-2.72-.8A5.26,5.26,0,0,1,210,45.44a9,9,0,0,1-1.14-1.6,6.46,6.46,0,0,1-.59-2,17,17,0,0,1-.23-2.08q0-.83,0-2.25V24.3h-9.08V36.56a6.53,6.53,0,0,0,.59,3.14,2.46,2.46,0,0,0,2.34,1,8.15,8.15,0,0,0,3.22-.8l1.64,6.16a14.53,14.53,0,0,1-7.49,1.83q-5.56,0-7.85-2.57t-2.28-7.65V24.3h-3.92l.76-5.53q5.5-1.2,7.61-7.42Z"/><path class="cls-1" d="M242.65,17.22a11.92,11.92,0,0,1,7.58,2.2A7.82,7.82,0,0,1,253,26q0,10.33-16,10a5.35,5.35,0,0,0,1.7,3.51,5.93,5.93,0,0,0,4.16,1.34,13.61,13.61,0,0,0,7.44-2.28l2.58,6.33a7.66,7.66,0,0,1-1.55.91,23.23,23.23,0,0,1-4,1.37,22.3,22.3,0,0,1-5.77.74q-7.32,0-10.77-4t-3.45-10.7a16.72,16.72,0,0,1,4-11.41Q235.39,17.22,242.65,17.22Zm2,9.24A2.2,2.2,0,0,0,242.12,24a4.51,4.51,0,0,0-3.66,1.77,7.63,7.63,0,0,0-1.55,4.62Q244.64,30.63,244.64,26.46Z"/><path class="cls-1" d="M272.45,24.52a3.26,3.26,0,0,0-2.69,1.26,5.17,5.17,0,0,0-1,3.31v12.5l5.09.29v5.31H255.77V42l1.93-.17a1.47,1.47,0,0,0,1.14-.43A2.74,2.74,0,0,0,259.1,40V25.21a1.87,1.87,0,0,0-.29-1.2,1.69,1.69,0,0,0-1.05-.46l-2-.17V18h12.24v4.39h.12a9.68,9.68,0,0,1,3-3.62,8.6,8.6,0,0,1,5.42-1.57,14.74,14.74,0,0,1,5.39.86v11.3l-7.67.46V25.89q0-1-.47-1.2A3.67,3.67,0,0,0,272.45,24.52Z"/><path class="cls-1" d="M308.66,16.48a13.87,13.87,0,0,0-3.4-.4q-9.13,0-9.13,11.81,0,5.65,2.25,9t7.11,3.37a10.92,10.92,0,0,0,3.16-.34,1.4,1.4,0,0,0,1-1.54V34.68l7.38.46V45.58a27.38,27.38,0,0,1-12.12,2.34q-9.19,0-14.14-4.94t-4.95-14.47a25.32,25.32,0,0,1,1.61-9.44,15,15,0,0,1,4.36-6.25,18.73,18.73,0,0,1,6-3.28,22,22,0,0,1,6.91-1.06,28.15,28.15,0,0,1,12.18,2.4v10l-7.38.46V18Q309.48,16.71,308.66,16.48Z"/><path class="cls-1" d="M323.57,9.23h14.58L345.65,34h.23l7.73-24.72h14.58v5.42l-1.82.17a1.46,1.46,0,0,0-1.46,1.83l1.87,24.77,2.93.17v5.59H354.43V41.7l1.76-.17a1.35,1.35,0,0,0,1.05-.4,2.45,2.45,0,0,0,.18-1.37l-.88-16.09h-.18l-7.2,23.51h-7.08l-7-23.11h-.23l-1,17.35,2.81.17v5.59H321.35V41.7l1.87-.17a1.72,1.72,0,0,0,1.14-.51,2.9,2.9,0,0,0,.44-1.43l2-24.59-3.22-.23Z"/><path class="cls-1" d="M385.45,40.56q5.33,0,5.33-4.17a3.17,3.17,0,0,0-1.41-2.82,15.38,15.38,0,0,0-4.45-1.74,31.79,31.79,0,0,1-4-1.31,18.22,18.22,0,0,1-3.43-1.94,8.25,8.25,0,0,1-2.75-3.31,11.15,11.15,0,0,1-1-4.79,10.57,10.57,0,0,1,4-8.76q4-3.17,10.54-3.17A27.15,27.15,0,0,1,400,10.83v9.3l-7.38.46V17.73q0-1.25-.82-1.48a13.07,13.07,0,0,0-3.28-.34,5.44,5.44,0,0,0-3.1.83,2.91,2.91,0,0,0-1.23,2.6,3.12,3.12,0,0,0,1.41,2.77,19.35,19.35,0,0,0,4.8,2q2.11.63,3.25,1.06a23.61,23.61,0,0,1,2.87,1.37,8.9,8.9,0,0,1,2.61,2,10.45,10.45,0,0,1,1.58,2.82,10.91,10.91,0,0,1,.7,4.05,11.25,11.25,0,0,1-4.07,9.24q-4.07,3.31-11.21,3.31a31.7,31.7,0,0,1-12.65-2.28V35.88l7.55-.46v3.2q0,1.31.82,1.54A14.16,14.16,0,0,0,385.45,40.56Z"/></g></g></svg>