<?xml version="1.0" encoding="UTF-8" standalone="no"?>
<svg
   width="226"
   height="74.000397"
   viewBox="0 0 226 74.000397"
   fill="none"
   version="1.1"
   id="svg195"
   xmlns="http://www.w3.org/2000/svg"
   xmlns:svg="http://www.w3.org/2000/svg">
  <g
     id="g370"
     transform="scale(2)">
    <path
       d="m 49.1571,13.4805 c 2.855,0 4.6395,1.7464 4.6395,4.63 v 2.5994 c 0,2.8836 -1.7845,4.6301 -4.6395,4.6301 -2.8551,0 -4.6395,-1.7465 -4.6395,-4.6301 v -2.5994 c 0,-2.8836 1.7844,-4.63 4.6395,-4.63 z m 0,9.4632 c 1.2689,0 1.9827,-0.8529 1.9827,-2.4775 v -2.1526 c 0,-1.6246 -0.7138,-2.4775 -1.9827,-2.4775 -1.269,0 -1.9827,0.8529 -1.9827,2.4775 v 2.1526 c 0,1.6246 0.7137,2.4775 1.9827,2.4775 z"
       fill="#030130"
       id="path148" />
    <path
       d="m 60.1012,22.9439 c 0.9517,0 1.8637,-0.2437 2.6568,-0.7311 l 0.912,1.9495 c -0.9913,0.6498 -2.3792,1.0966 -3.7274,1.0966 -2.7361,0 -4.4016,-1.7464 -4.4016,-4.6301 v -2.5993 c 0,-2.8837 1.6655,-4.6301 4.4016,-4.6301 1.3482,0 2.6964,0.4468 3.6878,1.0966 l -0.9121,1.9495 c -0.793,-0.4467 -1.7051,-0.6904 -2.6171,-0.6904 -1.2689,0 -1.9034,0.8529 -1.9034,2.5181 v 2.0713 c 0.0397,1.7465 0.6741,2.5994 1.9034,2.5994 z"
       fill="#030130"
       id="path150" />
    <path
       d="m 71.681,24.8934 c -0.5551,0.2843 -1.5465,0.4468 -2.1809,0.4468 -2.7361,0 -3.6085,-1.1779 -3.6085,-4.0615 V 15.9176 H 64.583 v -2.1932 h 1.4275 l 0.4759,-2.1526 h 2.062 v 2.1526 h 2.974 v 2.1932 h -2.974 v 5.158 c 0,1.4215 0.2776,1.9495 1.4275,1.9495 0.4362,0 0.9914,-0.0812 1.3483,-0.2437 z"
       fill="#030130"
       id="path152" />
    <path
       d="m 77.6287,13.4805 c 2.8551,0 4.6395,1.7464 4.6395,4.63 v 2.5994 c 0,2.8836 -1.7844,4.6301 -4.6395,4.6301 -2.855,0 -4.6394,-1.7465 -4.6394,-4.6301 v -2.5994 c 0,-2.8836 1.7844,-4.63 4.6394,-4.63 z m 0,9.4632 c 1.269,0 1.9827,-0.8529 1.9827,-2.4775 v -2.1526 c 0,-1.6246 -0.7137,-2.4775 -1.9827,-2.4775 -1.2689,0 -1.9826,0.8529 -1.9826,2.4775 v 2.1526 c 0,1.6246 0.7137,2.4775 1.9826,2.4775 z"
       fill="#030130"
       id="path154" />
    <path
       d="m 93.5301,17.9075 v 2.8837 c 0,2.8836 -1.5862,4.5082 -4.2826,4.5082 -1.0706,0 -2.062,-0.3249 -2.8947,-0.8529 l -0.1586,0.6498 H 84.3701 V 8.68799 h 2.6568 v 5.84851 c 0.7138,-0.6498 1.7448,-1.056 2.8154,-1.056 2.6568,0 3.6878,1.7058 3.6878,4.427 z m -2.6568,0.2437 c 0,-1.5027 -0.4362,-2.2744 -1.6654,-2.2744 -0.6742,0 -1.5069,0.3249 -2.1413,1.1778 v 5.3612 c 0.5155,0.3249 1.2292,0.4873 1.8637,0.4873 1.2689,0 1.943,-0.731 1.943,-2.2338 z"
       fill="#030130"
       id="path156" />
    <path
       d="m 99.993,13.4805 c 2.855,0 4.639,1.7464 4.639,4.63 v 2.5994 c 0,2.8836 -1.784,4.6301 -4.639,4.6301 -2.8551,0 -4.6395,-1.7465 -4.6395,-4.6301 v -2.5994 c 0,-2.8836 1.7844,-4.63 4.6395,-4.63 z m 0,9.4632 c 1.269,0 1.983,-0.8529 1.983,-2.4775 v -2.1526 c 0,-1.6246 -0.714,-2.4775 -1.983,-2.4775 -1.2689,0 -1.9827,0.8529 -1.9827,2.4775 v 2.1526 c 0,1.6246 0.7138,2.4775 1.9827,2.4775 z"
       fill="#030130"
       id="path158" />
    <path
       d="m 113,24.8934 c -0.555,0.2843 -1.546,0.4468 -2.181,0.4468 -2.736,0 -3.608,-1.1779 -3.608,-4.0615 v -5.3611 h -1.309 v -2.1932 h 1.428 l 0.476,-2.1526 h 2.062 v 2.1526 h 2.974 v 2.1932 h -2.974 v 5.158 c 0,1.4215 0.277,1.9495 1.427,1.9495 0.436,0 0.992,-0.0812 1.348,-0.2437 z"
       fill="#030130"
       id="path160" />
    <path
       d="m 1.6258,25.9937 c 0.87239,0 1.5465,0.731 1.5465,1.5839 0,3.4117 2.73611,6.2141 6.06702,6.2141 3.33088,0 6.06698,-2.8024 6.06698,-6.2141 0,-0.8935 0.7138,-1.5839 1.5465,-1.5839 0.8724,0 1.5465,0.731 1.5465,1.5839 0,5.1987 -4.124,9.4226 -9.19963,9.4226 C 4.12399,37.0002 0,32.7763 0,27.5776 0.0396537,26.7247 0.753422,25.9937 1.6258,25.9937 Z"
       fill="#f8387b"
       id="path162" />
    <path
       d="m 21.7303,25.9937 c 0.8724,0 1.5465,0.731 1.5465,1.5839 0,3.4117 2.7361,6.2141 6.067,6.2141 3.3309,0 6.067,-2.8024 6.067,-6.2141 0,-0.8935 0.7138,-1.5839 1.5465,-1.5839 0.8724,0 1.5465,0.731 1.5465,1.5839 0,5.1987 -4.124,9.4226 -9.1996,9.4226 -5.0757,0 -9.1997,-4.2239 -9.1997,-9.4226 0.0396,-0.8529 0.7534,-1.5839 1.6258,-1.5839 z"
       fill="#f8387b"
       id="path164" />
    <path
       d="m 8.36579,27.3743 c 0.95169,0 1.74471,-0.8123 1.74471,-1.787 0,-1.0154 -0.51545,-1.8277 -1.42748,-3.2492 C 7.4141,20.4292 5.70898,17.7486 5.70898,13.3216 5.70898,5.72667 11.4984,0 19.1913,0 c 3.6878,0 7.098,1.21844 9.6358,3.49287 2.6568,2.35565 4.124,5.72667 4.124,9.46323 0,4.7113 -1.9034,7.8386 -3.2516,10.1537 -0.7138,1.1778 -1.2293,2.0713 -1.2293,2.5181 0,0.9747 0.7931,1.787 1.7448,1.787 0.8724,0 1.5465,0.7311 1.5465,1.584 0,0.8935 -0.7138,1.584 -1.5465,1.584 -2.6965,0 -4.8378,-2.2338 -4.8378,-4.955 0,-1.4215 0.7931,-2.7212 1.6655,-4.2239 1.2293,-2.0714 2.8154,-4.6707 2.8154,-8.4479 0,-2.843 -1.0706,-5.27992 -3.0533,-7.02635 -1.9431,-1.74643 -4.6395,-2.68057 -7.5739,-2.68057 -2.8947,0 -5.5119,1.01536 -7.4152,2.84303 -1.90342,1.82766 -2.97407,4.42699 -2.97407,7.26999 0,3.4929 1.26887,5.4424 2.45857,7.2701 0.9517,1.4621 1.943,3.0055 1.943,4.9956 0,2.7618 -2.181,4.955 -4.83776,4.955 -0.87238,0 -1.5465,-0.7311 -1.5465,-1.584 -0.03965,-0.8935 0.63446,-1.6246 1.50685,-1.6246 z"
       fill="url(#paint0_linear)"
       id="path166"
       style="fill:url(#paint0_linear)" />
    <path
       opacity="0.6"
       d="m 1.66584,25.9937 c 0.87238,0 1.5465,0.731 1.5465,1.5839 0,3.4117 2.73611,6.2141 6.06702,6.2141 3.33094,0 6.06704,-2.8024 6.06704,-6.2141 0,-0.8935 0.7137,-1.5839 1.5465,-1.5839 0.8724,0 1.5465,0.731 1.5465,1.5839 0,5.1987 -4.124,9.4226 -9.19969,9.4226 -5.07568,0 -9.1996709,-4.2239 -9.1996709,-9.4226 C 0.0796928,26.7247 0.793459,25.9937 1.66584,25.9937 Z"
       fill="url(#paint1_linear)"
       id="path168"
       style="fill:url(#paint1_linear)" />
    <path
       opacity="0.6"
       d="m 21.7303,25.9937 c 0.8724,0 1.5465,0.731 1.5465,1.5839 0,3.4117 2.7361,6.2141 6.067,6.2141 3.3309,0 6.067,-2.8024 6.067,-6.2141 0,-0.8935 0.7138,-1.5839 1.5465,-1.5839 0.8328,0 1.5465,0.731 1.5465,1.5839 0,5.1987 -4.124,9.4226 -9.1996,9.4226 -5.0757,0 -9.1997,-4.2239 -9.1997,-9.4226 0.0793,-0.8529 0.7931,-1.5839 1.6258,-1.5839 z"
       fill="#f8387b"
       id="path170" />
    <path
       opacity="0.6"
       d="m 8.40544,27.3743 c 0.95169,0 1.74476,-0.8123 1.74476,-1.787 0,-1.0154 -0.5155,-1.8277 -1.42753,-3.2492 C 7.45375,20.4292 5.70898,17.7486 5.70898,13.3216 5.70898,5.72667 11.5381,0 19.2309,0 c 3.6878,0 7.098,1.21844 9.6359,3.49287 2.6568,2.35565 4.124,5.72667 4.124,9.46323 0,4.7113 -1.9034,7.8386 -3.2517,10.1537 -0.7137,1.1778 -1.2292,2.0713 -1.2292,2.5181 0,0.9747 0.7931,1.787 1.7447,1.787 0.8724,0 1.5465,0.7311 1.5465,1.584 0,0.8935 -0.7137,1.584 -1.5465,1.584 -2.6964,0 -4.8377,-2.2338 -4.8377,-4.955 0,-1.4215 0.7931,-2.7212 1.6654,-4.2239 1.2293,-2.0714 2.8155,-4.6707 2.8155,-8.4479 0,-2.843 -1.0707,-5.27992 -3.0534,-7.02635 -1.943,-1.74643 -4.6395,-2.68057 -7.5738,-2.68057 -2.8948,0 -5.5119,1.01536 -7.4153,2.84303 -1.90337,1.82766 -2.97402,4.42699 -2.97402,7.26999 0,3.4929 1.26892,5.4424 2.45852,7.2701 0.912,1.4215 1.9034,2.9648 1.9034,4.955 0,2.7618 -2.181,4.955 -4.83776,4.955 -0.87238,0 -1.5465,-0.7311 -1.5465,-1.584 0,-0.8529 0.67412,-1.584 1.5465,-1.584 z"
       fill="url(#paint2_linear)"
       id="path172"
       style="fill:url(#paint2_linear)" />
  </g>
  <defs
     id="defs193">
    <linearGradient
       id="paint0_linear"
       x1="19.324499"
       y1="0"
       x2="19.324499"
       y2="30.5776"
       gradientUnits="userSpaceOnUse">
      <stop
         stop-color="#C50548"
         id="stop174" />
      <stop
         offset="1"
         stop-color="#F8387B"
         id="stop176" />
    </linearGradient>
    <linearGradient
       id="paint1_linear"
       x1="14.9772"
       y1="35.0443"
       x2="3.29866"
       y2="23.642099"
       gradientUnits="userSpaceOnUse">
      <stop
         stop-color="#F7065A"
         id="stop179" />
      <stop
         offset="0.75"
         stop-color="#D819E0"
         id="stop181" />
      <stop
         offset="0.9934"
         stop-color="#A538F8"
         id="stop183" />
    </linearGradient>
    <linearGradient
       id="paint2_linear"
       x1="27.314199"
       y1="32.560699"
       x2="9.9331503"
       y2="3.1682"
       gradientUnits="userSpaceOnUse">
      <stop
         stop-color="#F7065A"
         id="stop186" />
      <stop
         offset="0.75"
         stop-color="#D819E0"
         id="stop188" />
      <stop
         offset="0.9934"
         stop-color="#A538F8"
         id="stop190" />
    </linearGradient>
  </defs>
</svg>
