<?xml version="1.0" encoding="utf-8"?>
<!-- Generator: Adobe Illustrator 25.0.1, SVG Export Plug-In . SVG Version: 6.00 Build 0)  -->
<svg version="1.1" id="Layer_1" xmlns="http://www.w3.org/2000/svg" xmlns:xlink="http://www.w3.org/1999/xlink" x="0px" y="0px"
	 viewBox="0 0 181.6 86.7" style="enable-background:new 0 0 181.6 86.7;" xml:space="preserve">
<style type="text/css">
	.st0{fill:#266478;}
</style>
<path class="st0" d="M90.7,4.5c1.3,0.2,1.5,0.4,1.5,0.7v11.7c1.8,0.5,3.5,1.2,5.3,2.1v-3.2H99c3.8,0,6.6,1.7,6.6,5.4
	c0,1.1-0.3,2-0.8,2.8c0.9,0.8,1.8,1.6,2.7,2.5c2.6-1.1,3.8-3,3.8-5.4c0-3.5-2.9-5.8-7.7-6.3v-0.2c3.7-0.6,6.8-2.8,6.8-6.2
	s-2.8-5.6-9.9-5.6H89.3l0.1,1.6C89.4,4.4,90.7,4.5,90.7,4.5z M97.5,4.4h1.7c3.7,0,5.5,2,5.5,5c0,2.6-1.8,4.6-5,4.7h-2.2V4.4z
	 M116,26l-1.8,0.2l-0.1,1.6h3.3c1.7-2.3,3.4-4.4,5.3-5.1V5.2c0-0.4,0.3-0.6,1.4-0.8l1.9-0.2l0.1-1.6h-12l0.1,1.6l1.7,0.2
	c1.3,0.2,1.5,0.4,1.5,0.7v20C117.4,25.6,117,25.8,116,26z M15.3,2.2C7.9,2.2,1.7,7.8,1.7,15.5s5.4,12.9,13.4,12.9
	c7.4,0,13.6-5.6,13.6-13.3S23.3,2.2,15.3,2.2z M15.3,26.5c-4.3,0-7.8-4.1-7.8-11.5c0-7.2,3.4-11,7.6-11c4.3,0,7.8,4.1,7.8,11.5
	C22.9,22.8,19.5,26.5,15.3,26.5z M164.8,2.6l-10.5,0.2l0.1,1.6l1.3,0.2c1.3,0.2,1.5,0.4,1.5,0.7v20c0,0.4-0.4,0.6-1.4,0.8l-1.4,0.2
	l-0.1,1.6h10.5c9.7,0,15.1-6.2,15.1-13.1C179.8,7.6,174,2.4,164.8,2.6L164.8,2.6z M165.4,26.1l-2.9-0.6V4.4h1.3
	c6.9,0,10.3,4.5,10.3,11.2C174.1,21.4,170.9,26,165.4,26.1L165.4,26.1z M130.3,4.5c1.3,0.2,1.5,0.4,1.5,0.7v17.7
	c1.8,0.5,3.6,1.1,5.3,1.7v-7.7h2.4l4.2,7.7l1.6,3.2h7.7l-0.1-1.6l-1.1-0.2c-0.8-0.2-1.3-0.6-2.2-1.8l-5.2-8.2
	c3.6-1.3,5.7-3.7,5.7-6.9c0-3.7-3.1-6.2-9.6-6.2h-11.7l0.1,1.6L130.3,4.5L130.3,4.5z M137.1,4.5h1.9c3.4-0.1,5.5,1.8,5.5,5.4
	c0,3.4-2,5.1-4.9,5.4l-2.4-0.2V4.5H137.1z M33.4,26L32,26.1l-0.1,1.6h5.4c1.2-0.8,2.4-1.5,3.6-2.1l-0.8-0.2v-21h1.3
	c6.9,0,10.3,4.5,10.3,11.2c0,2.3-0.5,4.3-1.4,6c0.8-0.2,1.7-0.3,2.5-0.3c0.9,0,1.7,0.1,2.5,0.4c1.4-2.1,2.1-4.5,2.1-7.1
	c0-7-5.8-12.2-15-12.1L31.9,2.7L32,4.3l1.3,0.2c1.3,0.2,1.5,0.4,1.5,0.7v20C34.8,25.6,34.4,25.8,33.4,26z M62,4.5
	c1.3,0.2,1.5,0.4,1.5,0.7v20c0,0.4-0.4,0.6-1.4,0.8l-1.3,0.1c0.5,0.5,0.9,1.1,1.3,1.6h7.6c0.4-0.6,0.7-1.2,1.1-1.8l-2-0.4V4.4h1.3
	c6.9,0,10.3,4.5,10.3,11.2c0,0.6,0,1.1-0.1,1.7c0.6-0.3,1.3-0.5,1.9-0.7c1.2-0.3,2.5-0.5,3.9-0.5c0-0.5,0.1-0.9,0.1-1.4
	c0-7-5.8-12.2-15-12.1L60.6,2.7l0.1,1.6C60.7,4.3,62,4.5,62,4.5z"/>
<path class="st0" d="M143.1,28.7c-3.8-1.7-14.6-6.6-19.6-4.9c-3.4,1.1-7.3,9.4-9.9,11.8c-0.3,0.2-0.6,0.5-1,0.8
	c-7.1-13.4-20.8-21-29.9-18.5c-6.2,1.7-11.9,8.9-14.5,18.1c-4.5-2.7-6.8-7.2-10.8-11.3c-3.1-3.2-7.3-1.9-10.9-0.2
	c-7.2,3.3-16.6,8.2-16.3,15.9c4.2-3,8.3-2.1,9.6,3.4c0.3,1,2.6-3.6,5.4-4.6c3.2-1.2,6.7,1.7,7.4,4.9c0.2,0.6,2.9-3.5,5.7-2.1
	c2,0.9,3.2,5.1,3.9,4.7c2-1.3,3.4-2.8,4.8-4c-0.5,4.7-0.2,9.7,1.2,14.7c0.1,0.3,0.2,0.6,0.2,0.8c1-8.9,5.9-16.2,11.4-17.7
	c7.7-2.2,20.1,5.8,23.8,18.9c2.7,9.7,0.8,19.3-4.2,24.6c0.6-0.1,1.2-0.2,1.8-0.4c13.1-3.7,19.6-21.4,14.5-39.5
	c-0.1-0.4-0.2-0.7-0.3-1c3.2,1.7,4.7,4.5,4.8,4.1c1.2-5.6,7.9-5.7,12.3-1.7c0.4,0.4,0.6-4.3,2.3-4.9c2.7-1,5.7,0.5,8.5,2.2
	c0.5,0.3,0.4-2.2,0.3-2.5c-0.2-1.2-0.1-2.5,1.3-2.9c2.1-0.6,4.5,0.5,6.4,0.9C150.8,33.8,146.7,30.3,143.1,28.7L143.1,28.7z"/>
</svg>
