<svg enable-background="new 0 0 578.6 127" viewBox="0 0 578.6 127" xmlns="http://www.w3.org/2000/svg"><g clip-rule="evenodd" fill-rule="evenodd"><path d="m151 3.7c0-.2 0-.5-.1-.7 0-.1 0-.1-.1-.2 0-.1-.1-.3-.2-.5l-.1-.2c-.1-.1-.1-.3-.2-.4s-.1-.2-.2-.2l-.1-.1c-.1-.1-.1-.1-.2-.2v-.2l-.1-.1c-.1-.1-.2-.2-.3-.3l-.4-.1c-.1-.1-.3-.1-.4-.2l-.3-.1c-.1 0-.3-.1-.4-.1l-.3-.1c-.2 0-.3 0-.5 0h-.3c-1.9.2-27.5 2.6-56.3 15.5-17.3 7.7-30.7 19.5-39.1 33.8l-2.2.9c-30.8 13.8-49.2 40.5-49.2 71.5v.5c0 .7.2 1.4.6 2s.9 1.1 1.6 1.4c.5.2 1 .3 1.6.3h102.3c.2 0 .4 0 .6-.1l.3-.1c.1 0 .2-.1.4-.1.1 0 .2-.1.3-.1s.2-.1.3-.1c.2-.1.4-.2.5-.4l41.2-34.8c.4-.4.8-.8 1-1.3s.3-1 .3-1.6zm-37.3 107.2-4 3.3v-74l33.7-28.4v73.9zm-67.3-19.6h55.9v27.3h-88.3zm47.1-69c13.2-5.8 27-10.1 41.1-12.9l-30.2 25.4c-13.9 1.7-27.6 4.9-40.8 9.6 7.5-9 17.6-16.6 29.9-22.1zm-37 33c14.7-6 30.1-10.3 45.8-12.5v41h-53.5c.4-10 3-19.7 7.7-28.5zm-10.3 4.8c-3.2 8.2-4.8 16.9-5 25.7l-33.2 28c2.5-22.8 16-41.9 38.2-53.7z" fill="#3569f3"/><path d="m179.7 104.5v-85h35.1c9.1 0 16.4 2.4 21.9 7.1s8.3 11.7 8.3 20.8c.1 4.9-1.1 9.8-3.4 14.1-2.4 4.3-5.8 7.9-10.1 10.4l18.2 32.6h-24.2l-14.4-28.9h-9.4v28.9zm22.1-46.6h10.9c1.3.1 2.7-.2 3.9-.6 1.2-.5 2.4-1.2 3.3-2.1.9-1 1.7-2.1 2.2-3.4s.7-2.6.6-4c0-3.2-.9-5.8-2.7-7.6-1.8-1.9-4.3-2.8-7.5-2.8h-10.8v20.5zm50.8 16.6c-.1-5.6 1.3-11.2 4-16.2 2.6-4.8 6.5-8.8 11.3-11.5 5.1-2.9 10.8-4.4 16.7-4.3 6.4 0 12 1.4 16.7 4.3 4.7 2.8 8.6 6.8 11.2 11.5 2.7 4.9 4.1 10.5 4 16.1.1 5.6-1.3 11.2-4 16.2-2.6 4.8-6.5 8.8-11.2 11.5-4.8 2.8-10.4 4.3-16.7 4.3-5.8.1-11.6-1.4-16.7-4.3-4.7-2.7-8.6-6.7-11.3-11.5-2.7-4.9-4.1-10.4-4-16.1zm32 13.1c1.6.1 3.2-.2 4.7-.9s2.8-1.6 3.8-2.9c2.2-2.6 3.3-6 3.2-9.4.1-3.4-1-6.7-3.2-9.4-1.1-1.2-2.4-2.1-3.9-2.8-1.5-.6-3.1-1-4.7-1s-3.2.3-4.7 1c-1.5.6-2.8 1.6-3.9 2.8-2.2 2.6-3.3 6-3.2 9.4-.1 3.4 1 6.8 3.2 9.4 1 1.2 2.4 2.2 3.8 2.9 1.6.7 3.2 1 4.9.9zm41.8 16.8h21.6v-84.9h-21.5v84.9zm34 0h21.6v-84.9h-21.5zm34-2.8v-82.1h21.6v29.9c1.4-1.6 3.2-2.9 5.2-3.8 1.8-.8 3.7-1.4 5.6-1.8 1.4-.3 2.9-.5 4.3-.5 5.6 0 10.3 1.4 14.2 4.2s6.9 6.6 8.8 11c2 4.6 3 9.6 3 14.6 0 10.5-3.1 18.7-9.2 24.6s-15.1 8.8-27 8.8c-4.9 0-9.8-.5-14.6-1.6-4-.8-8-1.9-11.9-3.3zm21.6-28.4v14.4c1.1.4 2.1.7 3.2.9 1.4.3 2.8.4 4.3.4 1.6.1 3.2-.2 4.7-.8s2.8-1.5 3.9-2.7c2.2-2.4 3.3-6.2 3.3-11.3 0-1.9-.3-3.8-1-5.7-.6-1.8-1.6-3.5-3-4.8-1.5-1.3-3.4-2-5.3-1.9-3.6 0-6.1 1.1-7.7 3.3-1.7 2.4-2.5 5.3-2.4 8.2zm85.5 31.2-.8-5.6c-2.3 2.6-5.1 4.7-8.2 6.1-3.3 1.2-6.8 1.8-10.3 1.7-2.8 0-5.6-.6-8.3-1.5-2.9-1.1-5.5-3-7.4-5.5-2-2.7-3.1-6.4-3.1-11.1 0-4.8 1.3-8.9 3.9-12.1 2.8-3.3 6.4-5.9 10.5-7.3 4.5-1.7 9.4-2.5 14.2-2.4 2 0 3.5 0 4.7.1s2.5.2 3.8.4v-1.2c0-2.1-.5-3.7-1.6-4.8s-2.4-1.8-3.9-2.2-3-.6-4.5-.6c-3.4-.1-6.8.4-10 1.4-2.5.8-4.9 1.9-7.1 3.4l-8.1-12.3c2.5-2 6.1-3.9 10.8-5.6 4.6-1.7 10.5-2.6 17.5-2.6 8.3 0 15.1 2.1 20.2 6.4s7.7 10.7 7.7 19.2v36.2zm-.7-21.9v-3.9c-1.9-.4-3.9-.6-5.9-.5-3.6 0-6.2.7-7.9 2.1-.8.6-1.4 1.4-1.9 2.2-.4.9-.7 1.8-.7 2.8 0 4.4 2.4 6.6 7.1 6.6 2.2 0 4.4-.7 6.2-2 2.1-1.2 3.1-3.7 3.1-7.3zm33.2 21.9v-59.8h20.8l.7 7.5c1.7-2.4 3.8-4.4 6.3-6 2.7-1.7 5.9-2.6 9.1-2.5 1.5 0 2.9.1 4.4.3 1.1.1 2.2.4 3.2.7l-2.8 18.4c-2-.5-4.1-.7-6.2-.7-9.3 0-14 5.1-14 15.4v26.9z" fill="#343f55"/></g></svg>