<?xml version="1.0" encoding="utf-8"?>
<!-- Generator: Adobe Illustrator 23.0.0, SVG Export Plug-In . SVG Version: 6.00 Build 0)  -->
<svg version="1.1" id="Layer_1" xmlns="http://www.w3.org/2000/svg" xmlns:xlink="http://www.w3.org/1999/xlink" x="0px" y="0px"
	 viewBox="0 0 611.8 233.9" style="enable-background:new 0 0 611.8 233.9;" xml:space="preserve">
<style type="text/css">
	.st0{fill-rule:evenodd;clip-rule:evenodd;fill:#00B7FF;}
	.st1{fill:#00B7FF;}
</style>
<title>swan-softweb-logo</title>
<path class="st0" d="M186.9,64c0,19.8-0.1,39.6-0.1,59.3c0,19.8-0.1,39.5-0.1,59.2c0,8.1-5.2,15.9-11.7,17.4h-0.2
	c-0.7-5.1-2.2-10-4.5-14.5c-3.6-7-9.2-12.8-16.1-16.7c-7.5-4.2-16.8-7.6-28.4-10.3c-6.2-1.4-12.3-2.9-18.4-4.7
	c-6.1-1.7-12-4.2-17.5-7.4c-5.5-3.2-10.1-7.8-13.3-13.2c-3.4-5.7-5.2-13.1-5.3-21.9c0.1-8.8,2.6-16.1,7.4-21.5
	c4.6-5.3,10.6-9.1,17.4-11c6.6-1.8,13.5-2.2,20.2-1.1c6.6,1.1,11.9,2.9,16.2,5.6c3.9,2.4,7.3,5.4,10.2,9c8,10,14.1,22.9,20.2,33.2
	c0.3,0.9,0.9,1.6,1.6,2.2c0.5,0.4,1.8,1.2,1.8,0.2c0.5-12.9,1.1-25.8,1.6-38.7c0.4-8.8-21.5-19.5-28.4-22.3
	c-6.4-2.6-12.9-4.6-19.7-5.9c-9.7-2-19.7-2.2-29.5-0.7c-10.2,1.6-19.9,5.3-28.7,10.8C52.7,76.7,45,84.3,39.5,93.4
	c-5.8,9.6-8.9,20.7-8.9,32c0.1,13.4,2.8,24.7,8,34.1c4.7,8.7,11.5,16.1,19.6,21.6c7.7,5.2,16.1,9.2,24.9,11.8c8.2,2.3,16.6,4,25.1,5
	c13,1.3,22.5,3.6,29.1,6.7c1.8,0.8,3.5,1.8,5.1,2.9l-25.8,5.9L29.1,233C13.5,236.6,0,228.6,0,215V17.5C0,3.8,13.5-3.3,29.2,1.5
	l87.6,26.5l58.4,17.6C181.8,47.5,186.9,55.8,186.9,64z"/>
<path class="st1" d="M608.3,166.1l-3.8,3.8c-1.5-1.5-2.9-2.3-4.2-2.3c-0.6,0-1.1,0.1-1.6,0.4c-0.4,0.2-0.6,0.7-0.6,1.1
	c0,0.3,0.1,0.7,0.4,0.9c0.6,0.5,1.2,0.9,1.8,1.1l2.2,1.1c1.9,0.8,3.6,2,4.9,3.6c2.1,3.1,1.7,7.2-1.1,9.7c-1.8,1.5-4.1,2.3-6.4,2.2
	c-3.4,0.1-6.6-1.5-8.6-4.2l3.8-4.1c0.7,0.8,1.6,1.5,2.5,2c0.8,0.5,1.7,0.7,2.6,0.8c0.7,0,1.4-0.2,2-0.6c0.5-0.3,0.7-0.8,0.7-1.4
	c0-0.9-0.9-1.9-2.7-2.8l-2.1-1c-4-2-5.9-4.5-5.9-7.5c0-1.9,0.8-3.7,2.2-5c1.6-1.4,3.6-2.2,5.7-2.1c1.6,0,3.1,0.4,4.5,1.1
	C606.2,163.8,607.4,164.8,608.3,166.1 M565.7,162.6h6.1v2.5c1.1-1,2.4-1.8,3.8-2.4c1.1-0.5,2.3-0.7,3.5-0.7c2.3,0,4.6,0.9,6.2,2.6
	c1.4,1.4,2.1,3.6,2.1,6.4v16.2h-6.1v-10.7c0.1-2-0.1-3.9-0.4-5.8c-0.2-0.9-0.7-1.6-1.4-2.2c-0.7-0.5-1.5-0.8-2.4-0.8
	c-1.2,0-2.4,0.4-3.2,1.3c-0.9,0.9-1.6,2.1-1.9,3.4c-0.2,1.7-0.3,3.3-0.3,5v9.8h-6.1L565.7,162.6z M547.8,167.8c-1.8,0-3.5,0.7-4.8,2
	c-1.3,1.4-2,3.2-1.9,5.1c-0.1,1.9,0.6,3.8,1.9,5.2c1.2,1.3,3,2,4.8,2c1.8,0,3.6-0.7,4.8-2c1.3-1.4,2-3.3,1.9-5.2
	c0.1-1.9-0.6-3.7-1.9-5.1C551.3,168.5,549.5,167.8,547.8,167.8L547.8,167.8z M547.7,162c2.3,0,4.5,0.6,6.5,1.7
	c4,2.3,6.5,6.5,6.5,11.1c0,2.3-0.6,4.5-1.7,6.5c-1.1,2-2.7,3.6-4.7,4.7c-2,1.1-4.3,1.7-6.6,1.7c-3.4,0.1-6.7-1.3-9-3.8
	c-5-5.1-5-13.4,0.2-18.4c0.1-0.1,0.2-0.2,0.3-0.3C541.5,163.2,544.5,162,547.7,162L547.7,162z M524.4,162.6h6.2v24.5h-6.2
	L524.4,162.6z M527.5,152.6c1,0,2.1,0.4,2.8,1.2c0.8,0.7,1.2,1.8,1.2,2.8c0,1.1-0.4,2.1-1.2,2.8c-0.7,0.8-1.7,1.2-2.7,1.2
	c-1.1,0-2.1-0.4-2.8-1.2c-0.8-0.8-1.2-1.8-1.2-2.9C523.6,154.3,525.4,152.6,527.5,152.6L527.5,152.6z M512,153.7h6.1v9h3.6v5.3h-3.6
	v19.2H512V168h-3.1v-5.3h3.1V153.7z M483.5,162.7h6.2v11.8c-0.1,1.6,0.1,3.2,0.5,4.8c0.3,0.8,0.8,1.6,1.5,2.1
	c0.8,0.5,1.7,0.8,2.6,0.8c0.9,0,1.8-0.2,2.6-0.7c0.7-0.5,1.3-1.3,1.6-2.1c0.3-1.5,0.5-3,0.4-4.5v-12h6.2V173c0,4.3-0.3,7.2-1,8.8
	c-0.7,1.8-2,3.4-3.6,4.4c-1.9,1.1-4,1.6-6.1,1.5c-2.3,0.1-4.6-0.5-6.5-1.8c-1.7-1.2-2.9-3-3.5-5c-0.6-2.7-0.9-5.4-0.7-8.1
	L483.5,162.7z M471.9,153.2h6.1v34h-6.1L471.9,153.2z M454.6,167.8c-1.8,0-3.5,0.7-4.8,2c-1.3,1.4-2,3.2-1.9,5.1
	c-0.1,1.9,0.6,3.8,1.9,5.2c1.2,1.3,3,2,4.8,2c1.8,0,3.6-0.7,4.8-2c2.5-3,2.5-7.3,0-10.3C458.1,168.5,456.4,167.8,454.6,167.8
	L454.6,167.8z M454.5,162c2.3,0,4.5,0.6,6.5,1.8c4,2.3,6.5,6.5,6.5,11.1c0,2.3-0.6,4.5-1.7,6.5c-1.1,2-2.7,3.6-4.7,4.7
	c-2,1.1-4.3,1.7-6.6,1.7c-3.4,0.1-6.6-1.3-9-3.8c-5-5.1-4.9-13.4,0.2-18.4c0.1-0.1,0.2-0.2,0.3-0.3C448.3,163.2,451.3,162,454.5,162
	L454.5,162z M437.7,166.1l-3.8,3.8c-1.6-1.5-3-2.3-4.2-2.3c-0.6,0-1.1,0.1-1.6,0.4c-0.4,0.2-0.6,0.7-0.6,1.1c0,0.3,0.1,0.7,0.4,0.9
	c0.6,0.5,1.2,0.9,1.8,1.1l2.3,1.1c1.9,0.8,3.6,2,4.9,3.6c2.1,3.1,1.6,7.2-1.1,9.7c-1.8,1.5-4.1,2.3-6.4,2.2
	c-3.4,0.1-6.6-1.5-8.6-4.2l3.8-4.1c0.7,0.8,1.6,1.5,2.5,2c0.8,0.5,1.7,0.7,2.6,0.8c0.7,0,1.4-0.2,2-0.6c0.5-0.3,0.7-0.8,0.8-1.4
	c0-0.9-0.9-1.9-2.7-2.8l-2.1-1c-4-2-6-4.5-6-7.5c0-1.9,0.8-3.7,2.2-5c1.6-1.4,3.6-2.2,5.7-2.1C432.8,162,435.8,163.5,437.7,166.1
	L437.7,166.1z M391.9,167.7c-1.8,0-3.6,0.7-4.8,2c-1.3,1.4-2,3.3-1.9,5.2c-0.1,1.9,0.6,3.9,1.9,5.3c1.2,1.3,3,2.1,4.8,2
	c1.8,0,3.5-0.7,4.7-2c1.3-1.4,2-3.3,1.9-5.2c0.1-1.9-0.6-3.8-1.9-5.2C395.5,168.4,393.7,167.7,391.9,167.7L391.9,167.7z
	 M385.5,153.2v12.2c1-1,2.2-1.9,3.5-2.5c1.3-0.6,2.7-0.8,4.1-0.8c3.1,0,6.1,1.3,8.2,3.6c2.3,2.5,3.5,5.9,3.4,9.3
	c0.1,3.4-1.1,6.7-3.5,9.1c-2.1,2.4-5.1,3.7-8.2,3.7c-1.3,0-2.7-0.2-3.9-0.8c-1.3-0.6-2.6-1.4-3.6-2.5v2.6h-6.1v-34L385.5,153.2z
	 M368.2,171.8c-0.4-1.4-1.2-2.5-2.4-3.3c-1.2-0.9-2.7-1.3-4.2-1.3c-1.6,0-3.2,0.5-4.5,1.4c-1,0.9-1.8,1.9-2.3,3.2H368.2z
	 M374.4,176.7h-19.8c0.2,1.6,1,3.1,2.3,4.2c1.3,1.1,3,1.6,4.7,1.5c2.2,0,4.4-0.8,5.9-2.4l5.2,2.4c-1.2,1.7-2.8,3.1-4.6,4.1
	c-2,0.9-4.2,1.4-6.4,1.3c-3.5,0.1-6.9-1.2-9.4-3.6c-2.4-2.4-3.7-5.7-3.6-9.1c-0.1-3.5,1.2-6.8,3.6-9.3c2.4-2.4,5.7-3.8,9.1-3.7
	c3.5-0.1,6.9,1.2,9.4,3.7c2.5,2.6,3.8,6.2,3.6,9.8L374.4,176.7z M310.2,162.7h6l4.9,13.9l5.3-13.9h3.7l5.2,13.8l4.9-13.8h6
	l-8.9,24.5h-3.9l-5.2-14l-5.4,14H319L310.2,162.7z M299.9,153.7h6.1v9h3.6v5.3H306v19.2h-6.1V168h-3.1v-5.3h3.1L299.9,153.7z
	 M283.3,162.7h2.2c0-3.2,0-5.1,0.1-5.7c0.1-1.3,0.7-2.4,1.7-3.2c1.2-0.9,2.6-1.3,4.1-1.2c1.5,0,2.9,0.3,4.3,0.9v4.7
	c-0.7-0.2-1.4-0.4-2.2-0.4c-0.6,0-1.1,0.1-1.6,0.4c-0.3,0.4-0.4,0.9-0.4,1.4v3.1h3.9v5.2h-3.9v19.3h-6.1v-19.3h-2.2L283.3,162.7z
	 M268.3,167.8c-1.8,0-3.5,0.7-4.8,2c-1.3,1.4-2,3.2-1.9,5.1c-0.1,1.9,0.6,3.8,1.9,5.2c1.2,1.3,3,2,4.8,2c1.8,0,3.6-0.7,4.8-2
	c1.3-1.4,2-3.3,1.9-5.2c0.1-1.9-0.6-3.7-1.9-5.1C271.8,168.5,270.1,167.8,268.3,167.8L268.3,167.8z M268.2,162.1
	c2.3,0,4.5,0.6,6.5,1.7c4,2.3,6.5,6.5,6.5,11.1c0,2.3-0.6,4.5-1.7,6.5c-1.1,2-2.7,3.6-4.7,4.7c-2,1.1-4.3,1.7-6.6,1.7
	c-3.4,0.1-6.7-1.3-9-3.8c-5-5.1-5-13.4,0.2-18.4c0.1-0.1,0.2-0.2,0.3-0.3C262,163.2,265,162,268.2,162.1L268.2,162.1z M251.4,166.1
	l-3.8,3.8c-1.5-1.5-2.9-2.3-4.2-2.3c-0.6,0-1.1,0.1-1.6,0.4c-0.4,0.2-0.6,0.7-0.6,1.1c0,0.3,0.1,0.7,0.4,0.9
	c0.6,0.5,1.2,0.9,1.8,1.1l2.2,1.1c1.9,0.8,3.6,2,4.9,3.6c2.1,3.1,1.7,7.2-1.1,9.7c-1.8,1.5-4.1,2.3-6.4,2.2
	c-3.4,0.1-6.6-1.5-8.6-4.2l3.8-4.1c0.7,0.8,1.6,1.5,2.5,2c0.8,0.5,1.7,0.7,2.6,0.8c0.7,0,1.4-0.2,2-0.6c0.5-0.3,0.7-0.8,0.7-1.4
	c0-0.9-0.9-1.9-2.7-2.8l-2.1-1c-4-2-5.9-4.5-5.9-7.5c0-1.9,0.8-3.7,2.2-5c1.6-1.4,3.6-2.2,5.7-2.1c1.6,0,3.1,0.4,4.5,1.1
	C249.2,163.8,250.5,164.8,251.4,166.1L251.4,166.1z"/>
<path class="st1" d="M537.2,60h15.8v11.4c1.9-1.8,3.6-3.4,5.1-4.8c1.4-1.3,2.8-2.6,4.3-3.7c2.2-1.6,4.6-2.8,7.2-3.5
	c3.4-0.9,6.9-1.6,10.4-1.9c1.3,0,2.7,0.1,4,0.2c1.4,0.1,2.8,0.4,4.2,0.7c5.7,1.5,10.9,4.5,15,8.7c4.6,4.5,6.9,11.2,6.9,20.3v56.9
	h-17.2V87.2c0.1-4-1.6-7.8-4.7-10.3c-3-2.6-6.6-4.3-10.5-4.9c-0.5-0.1-1.1-0.2-1.6-0.3c-0.5-0.1-1.1-0.1-1.6-0.1h-0.5
	c-4.8,0.1-9.3,2.1-13.4,6c-4.1,3.9-6.2,10-6.2,18.3v48.4h-17L537.2,60z M500,100.1c0-6.9-2-13.7-5.8-19.5c-3.9-6-10.5-9-19.8-9
	c-8.6,0-15.2,2.5-20,7.5s-7.2,12.5-7.2,22.6c0,8.4,2.4,15.5,7.3,21.3c4.9,5.7,10.5,8.6,16.9,8.6c9.3,0,16.4-2.8,21.2-8.3
	c4.8-5.5,7.2-13.2,7.2-23.1L500,100.1z M500,58.8h17.2v85.5H500V130c-2.7,4.4-6.3,8.2-10.6,11.2c-4.3,3-10.7,4.5-19.3,4.5
	c-12.1,0-21.8-3.8-29.1-11.3c-7.3-7.6-11-18.5-11-32.7c0-14.1,4.1-25.3,12.3-33.3c8.2-8.1,17.3-12.2,27.2-12.4h0.5
	c2.2,0,4.3,0.2,6.4,0.5c2.4,0.4,4.8,1,7.2,1.8c3.2,1.1,6.3,2.8,9.1,4.8c3,2.2,5.5,5.1,7.2,8.5V58.8z M291.6,60h18.7l24.1,54.4
	l25.7-57.1l24.3,55.6L408.7,60h18.5c-15,28.6-25.3,49-31,61.3c-5.7,12.2-9.6,20.4-11.8,24.5l-25.7-54.1l-24.3,54.2L291.6,60z
	 M271.7,78.7c-1.1-1.9-2.6-3.6-4.4-5c-1.6-1.2-3.5-2.1-5.4-2.6c-0.3,0-0.7,0-1-0.1c-0.3-0.1-0.7-0.1-1-0.1c-2.1,0-4.1,0.7-5.7,2
	c-1.7,1.5-2.7,3.7-2.6,6v0.4c0,0.1,0.1,0.3,0.2,0.4v0.7c0.2,2.9,1.8,5.5,4.2,7.1c2.8,2,5.9,3.6,9.1,4.9c1.1,0.5,2.2,1,3.4,1.4
	l3.4,1.4c4.9,2.3,9.5,5.3,13.6,8.8c4.2,3.6,6.3,9,6.3,16.2c0,0.6,0,1.2-0.1,1.8s-0.1,1.2-0.3,1.8c-1.1,5.9-4.5,11.3-10.2,16.1
	c-5.3,4.7-12.2,7.3-19.3,7.3c-8.3,0-14.6-1.6-18.9-4.8c-3.9-2.9-7.2-6.5-9.6-10.8c-0.3-0.5-0.6-0.9-0.9-1.4l-0.7-1.4l14.4-7.3
	c0.8,3.1,2.7,5.7,5.3,7.3c2.7,1.8,5.9,3,9.1,3.4h1.8c2.8,0,5.4-0.7,7.8-2.2c2.5-1.5,4.1-4,4.5-6.9v-0.3c0-0.1,0.1-0.2,0.2-0.3v-0.4
	c0-2.8-1.5-5.5-4.4-8.1c-3-2.6-6.2-5-9.6-7c-0.8-0.5-1.7-0.9-2.5-1.4l-2.4-1.2c-0.1-0.1-0.3-0.2-0.4-0.3c-0.2-0.1-0.4-0.1-0.6-0.1
	c-6.8-2.9-11.6-6-14.5-9.4c-2.9-3.4-4.4-8.2-4.4-14.5c0-0.6,0-1.1,0.1-1.7c0.1-0.5,0.1-1.1,0.3-1.7c0.9-4.5,3.3-8.6,7.3-12.3
	c4-3.7,9.6-5.6,16.6-5.6c5.7,0,10.4,1.1,14.2,3.2c4,2.3,7.5,5.6,10,9.5L271.7,78.7z"/>
</svg>
