<?xml version="1.0" encoding="UTF-8"?>
<svg width="1004px" height="451px" viewBox="0 0 1004 451" version="1.1" xmlns="http://www.w3.org/2000/svg" xmlns:xlink="http://www.w3.org/1999/xlink">
    <title>creators of wagtail logo@2x</title>
    <g id="Page-1" stroke="none" stroke-width="1" fill="none" fill-rule="evenodd">
        <g id="creators-of-wagtail-logo" fill-rule="nonzero">
            <path d="M90.564,424.792 C94.4466667,424.792 97.9933333,424.269333 101.204,423.224 C104.414667,422.178667 107.252,420.890667 109.716,419.36 C112.18,417.829333 114.270667,416.205333 115.988,414.488 C117.705333,412.770667 118.974667,411.24 119.796,409.896 L119.796,409.896 L112.292,403.624 C111.545333,404.445333 110.630667,405.472 109.548,406.704 C108.465333,407.936 107.084,409.149333 105.404,410.344 C103.724,411.538667 101.670667,412.565333 99.244,413.424 C96.8173333,414.282667 93.924,414.712 90.564,414.712 C86.6066667,414.712 83.0226667,413.965333 79.812,412.472 C76.6013333,410.978667 73.876,408.925333 71.636,406.312 C69.396,403.698667 67.66,400.618667 66.428,397.072 C65.196,393.525333 64.58,389.736 64.58,385.704 C64.58,381.672 65.1773333,377.864 66.372,374.28 C67.5666667,370.696 69.3026667,367.56 71.58,364.872 C73.8573333,362.184 76.62,360.056 79.868,358.488 C83.116,356.92 86.7933333,356.136 90.9,356.136 C93.812,356.136 96.388,356.509333 98.628,357.256 C100.868,358.002667 102.846667,358.936 104.564,360.056 C106.281333,361.176 107.756,362.426667 108.988,363.808 C110.22,365.189333 111.284,366.514667 112.18,367.784 L112.18,367.784 L119.796,361.288 C118.750667,359.72 117.388,358.077333 115.708,356.36 C114.028,354.642667 112.012,353.056 109.66,351.6 C107.308,350.144 104.564,348.930667 101.428,347.96 C98.292,346.989333 94.7453333,346.504 90.788,346.504 C85.188,346.504 80.092,347.530667 75.5,349.584 C70.908,351.637333 66.9693333,354.456 63.684,358.04 C60.3986667,361.624 57.8413333,365.805333 56.012,370.584 C54.1826667,375.362667 53.268,380.477333 53.268,385.928 C53.268,391.528 54.1826667,396.698667 56.012,401.44 C57.8413333,406.181333 60.3986667,410.288 63.684,413.76 C66.9693333,417.232 70.8893333,419.938667 75.444,421.88 C79.9986667,423.821333 85.0386667,424.792 90.564,424.792 Z M139.448,423 L139.448,395.56 C139.448,393.394667 139.84,391.341333 140.624,389.4 C141.408,387.458667 142.472,385.76 143.816,384.304 C145.16,382.848 146.746667,381.709333 148.576,380.888 C150.405333,380.066667 152.402667,379.656 154.568,379.656 C156.658667,379.656 158.376,379.917333 159.72,380.44 L159.72,380.44 L161.96,371.032 C161.138667,370.733333 160.261333,370.509333 159.328,370.36 C158.394667,370.210667 157.368,370.136 156.248,370.136 C153.858667,370.136 151.749333,370.453333 149.92,371.088 C148.090667,371.722667 146.485333,372.488 145.104,373.384 C143.722667,374.28 142.546667,375.269333 141.576,376.352 C140.605333,377.434667 139.821333,378.424 139.224,379.32 L139.224,379.32 L138.888,370.92 L129.256,370.92 C129.330667,372.413333 129.368,373.496 129.368,374.168 L129.368,423 L139.448,423 Z M192.476,424.568 C195.761333,424.568 198.692,424.213333 201.268,423.504 C203.844,422.794667 206.084,421.954667 207.988,420.984 C209.892,420.013333 211.441333,419.005333 212.636,417.96 C213.830667,416.914667 214.726667,416.056 215.324,415.384 L215.324,415.384 L209.612,409.336 C208.342667,410.754667 206.289333,412.210667 203.452,413.704 C200.614667,415.197333 196.993333,415.944 192.588,415.944 C190.348,415.944 188.22,415.533333 186.204,414.712 C184.188,413.890667 182.396,412.770667 180.828,411.352 C179.26,409.933333 178.009333,408.253333 177.076,406.312 C176.142667,404.370667 175.638667,402.242667 175.564,399.928 L175.564,399.928 L216.668,399.928 C216.668,395.970667 216.182667,392.162667 215.212,388.504 C214.241333,384.845333 212.729333,381.597333 210.676,378.76 C208.622667,375.922667 205.990667,373.645333 202.78,371.928 C199.569333,370.210667 195.724,369.352 191.244,369.352 C187.436,369.352 183.945333,370.061333 180.772,371.48 C177.598667,372.898667 174.854667,374.821333 172.54,377.248 C170.225333,379.674667 168.433333,382.549333 167.164,385.872 C165.894667,389.194667 165.26,392.76 165.26,396.568 C165.26,400.749333 165.913333,404.557333 167.22,407.992 C168.526667,411.426667 170.374667,414.376 172.764,416.84 C175.153333,419.304 178.028,421.208 181.388,422.552 C184.748,423.896 188.444,424.568 192.476,424.568 Z M206.252,392.424 L175.564,392.424 C175.638667,390.557333 176.049333,388.746667 176.796,386.992 C177.542667,385.237333 178.588,383.688 179.932,382.344 C181.276,381 182.9,379.917333 184.804,379.096 C186.708,378.274667 188.854667,377.864 191.244,377.864 C195.873333,377.864 199.457333,379.282667 201.996,382.12 C204.534667,384.957333 205.953333,388.392 206.252,392.424 L206.252,392.424 Z M243.488,424.456 C246.848,424.456 250.114667,423.821333 253.288,422.552 C256.461333,421.282667 259.018667,419.341333 260.96,416.728 L260.96,416.728 L261.184,423 L270.592,423 C270.517333,421.954667 270.48,421.077333 270.48,420.368 L270.48,420.368 L270.48,388.056 C270.48,382.082667 268.557333,377.472 264.712,374.224 C260.866667,370.976 255.584,369.352 248.864,369.352 C246.026667,369.352 243.525333,369.557333 241.36,369.968 C239.194667,370.378667 237.253333,370.901333 235.536,371.536 C233.818667,372.170667 232.325333,372.861333 231.056,373.608 C229.786667,374.354667 228.704,375.101333 227.808,375.848 L227.808,375.848 L232.512,382.68 C234.08,381.56 236.021333,380.458667 238.336,379.376 C240.650667,378.293333 243.786667,377.752 247.744,377.752 C251.776,377.752 254.968,378.592 257.32,380.272 C259.672,381.952 260.848,384.733333 260.848,388.616 L260.848,388.616 L260.848,390.52 C260.474667,390.445333 259.84,390.370667 258.944,390.296 C258.048,390.221333 257.002667,390.146667 255.808,390.072 C254.613333,389.997333 253.344,389.922667 252,389.848 C250.656,389.773333 249.386667,389.736 248.192,389.736 C240.8,389.736 235.144,391.416 231.224,394.776 C227.304,398.136 225.344,402.616 225.344,408.216 C225.344,411.202667 225.885333,413.722667 226.968,415.776 C228.050667,417.829333 229.469333,419.509333 231.224,420.816 C232.978667,422.122667 234.92,423.056 237.048,423.616 C239.176,424.176 241.322667,424.456 243.488,424.456 Z M246.176,416.504 C242.741333,416.504 240.053333,415.776 238.112,414.32 C236.170667,412.864 235.2,410.717333 235.2,407.88 C235.2,406.76 235.386667,405.584 235.76,404.352 C236.133333,403.12 236.824,402 237.832,400.992 C238.84,399.984 240.221333,399.144 241.976,398.472 C243.730667,397.8 246.026667,397.464 248.864,397.464 C250.058667,397.464 251.290667,397.501333 252.56,397.576 C253.829333,397.650667 255.024,397.725333 256.144,397.8 C257.264,397.874667 258.253333,397.968 259.112,398.08 C259.970667,398.192 260.549333,398.285333 260.848,398.36 L260.848,398.36 L260.848,404.296 C260.848,405.864 260.437333,407.394667 259.616,408.888 C258.794667,410.381333 257.712,411.688 256.368,412.808 C255.024,413.928 253.474667,414.824 251.72,415.496 C249.965333,416.168 248.117333,416.504 246.176,416.504 Z M305.252,424.456 C308.388,424.456 311.094667,423.989333 313.372,423.056 C315.649333,422.122667 317.870667,420.610667 320.036,418.52 L320.036,418.52 L315.444,412.36 C314.174667,413.554667 312.905333,414.450667 311.636,415.048 C310.366667,415.645333 308.761333,415.944 306.82,415.944 C304.430667,415.944 302.582667,415.16 301.276,413.592 C299.969333,412.024 299.316,409.149333 299.316,404.968 L299.316,404.968 L299.316,379.32 L314.548,379.32 L314.548,370.92 L299.316,370.92 L299.316,353.896 L289.236,353.896 L289.236,370.92 L279.828,370.92 L279.828,379.32 L289.236,379.32 L289.236,405.976 C289.236,412.322667 290.524,416.989333 293.1,419.976 C295.676,422.962667 299.726667,424.456 305.252,424.456 Z M349.992,424.568 C353.949333,424.568 357.608,423.84 360.968,422.384 C364.328,420.928 367.24,418.930667 369.704,416.392 C372.168,413.853333 374.090667,410.922667 375.472,407.6 C376.853333,404.277333 377.544,400.712 377.544,396.904 C377.544,393.096 376.853333,389.530667 375.472,386.208 C374.090667,382.885333 372.168,379.954667 369.704,377.416 C367.24,374.877333 364.328,372.88 360.968,371.424 C357.608,369.968 353.949333,369.24 349.992,369.24 C345.96,369.24 342.264,369.968 338.904,371.424 C335.544,372.88 332.650667,374.877333 330.224,377.416 C327.797333,379.954667 325.893333,382.885333 324.512,386.208 C323.130667,389.530667 322.44,393.096 322.44,396.904 C322.44,400.712 323.130667,404.277333 324.512,407.6 C325.893333,410.922667 327.797333,413.853333 330.224,416.392 C332.650667,418.930667 335.544,420.928 338.904,422.384 C342.264,423.84 345.96,424.568 349.992,424.568 Z M349.992,415.832 C347.304,415.832 344.896,415.290667 342.768,414.208 C340.64,413.125333 338.810667,411.688 337.28,409.896 C335.749333,408.104 334.592,406.088 333.808,403.848 C333.024,401.608 332.632,399.293333 332.632,396.904 C332.632,394.514667 333.024,392.181333 333.808,389.904 C334.592,387.626667 335.730667,385.610667 337.224,383.856 C338.717333,382.101333 340.546667,380.682667 342.712,379.6 C344.877333,378.517333 347.304,377.976 349.992,377.976 C352.68,377.976 355.088,378.517333 357.216,379.6 C359.344,380.682667 361.173333,382.12 362.704,383.912 C364.234667,385.704 365.392,387.738667 366.176,390.016 C366.96,392.293333 367.352,394.589333 367.352,396.904 C367.352,399.293333 366.96,401.626667 366.176,403.904 C365.392,406.181333 364.253333,408.197333 362.76,409.952 C361.266667,411.706667 359.437333,413.125333 357.272,414.208 C355.106667,415.290667 352.68,415.832 349.992,415.832 Z M399.548,423 L399.548,395.56 C399.548,393.394667 399.94,391.341333 400.724,389.4 C401.508,387.458667 402.572,385.76 403.916,384.304 C405.26,382.848 406.846667,381.709333 408.676,380.888 C410.505333,380.066667 412.502667,379.656 414.668,379.656 C416.758667,379.656 418.476,379.917333 419.82,380.44 L419.82,380.44 L422.06,371.032 C421.238667,370.733333 420.361333,370.509333 419.428,370.36 C418.494667,370.210667 417.468,370.136 416.348,370.136 C413.958667,370.136 411.849333,370.453333 410.02,371.088 C408.190667,371.722667 406.585333,372.488 405.204,373.384 C403.822667,374.28 402.646667,375.269333 401.676,376.352 C400.705333,377.434667 399.921333,378.424 399.324,379.32 L399.324,379.32 L398.988,370.92 L389.356,370.92 C389.430667,372.413333 389.468,373.496 389.468,374.168 L389.468,423 L399.548,423 Z M447.312,424.568 C450.149333,424.568 452.874667,424.232 455.488,423.56 C458.101333,422.888 460.416,421.88 462.432,420.536 C464.448,419.192 466.053333,417.530667 467.248,415.552 C468.442667,413.573333 469.04,411.277333 469.04,408.664 C469.04,406.125333 468.573333,403.96 467.64,402.168 C466.706667,400.376 465.437333,398.864 463.832,397.632 C462.226667,396.4 460.36,395.392 458.232,394.608 C456.104,393.824 453.808,393.133333 451.344,392.536 C447.162667,391.565333 443.784,390.538667 441.208,389.456 C438.632,388.373333 437.344,386.712 437.344,384.472 C437.344,382.082667 438.314667,380.365333 440.256,379.32 C442.197333,378.274667 444.773333,377.752 447.984,377.752 C451.12,377.752 453.864,378.237333 456.216,379.208 C458.568,380.178667 460.528,381.373333 462.096,382.792 L462.096,382.792 L467.584,375.848 C465.194667,373.757333 462.413333,372.133333 459.24,370.976 C456.066667,369.818667 452.277333,369.24 447.872,369.24 C445.258667,369.24 442.738667,369.576 440.312,370.248 C437.885333,370.92 435.701333,371.909333 433.76,373.216 C431.818667,374.522667 430.269333,376.128 429.112,378.032 C427.954667,379.936 427.376,382.157333 427.376,384.696 C427.376,387.16 427.861333,389.269333 428.832,391.024 C429.802667,392.778667 431.072,394.272 432.64,395.504 C434.208,396.736 435.981333,397.725333 437.96,398.472 C439.938667,399.218667 441.936,399.816 443.952,400.264 C446.789333,400.936 449.16,401.552 451.064,402.112 C452.968,402.672 454.498667,403.288 455.656,403.96 C456.813333,404.632 457.634667,405.397333 458.12,406.256 C458.605333,407.114667 458.848,408.141333 458.848,409.336 C458.848,411.650667 457.728,413.349333 455.488,414.432 C453.248,415.514667 450.448,416.056 447.088,416.056 C443.653333,416.056 440.629333,415.496 438.016,414.376 C435.402667,413.256 433.162667,411.762667 431.296,409.896 L431.296,409.896 L425.136,416.616 C430.064,421.917333 437.456,424.568 447.312,424.568 Z M522.66,424.568 C526.617333,424.568 530.276,423.84 533.636,422.384 C536.996,420.928 539.908,418.930667 542.372,416.392 C544.836,413.853333 546.758667,410.922667 548.14,407.6 C549.521333,404.277333 550.212,400.712 550.212,396.904 C550.212,393.096 549.521333,389.530667 548.14,386.208 C546.758667,382.885333 544.836,379.954667 542.372,377.416 C539.908,374.877333 536.996,372.88 533.636,371.424 C530.276,369.968 526.617333,369.24 522.66,369.24 C518.628,369.24 514.932,369.968 511.572,371.424 C508.212,372.88 505.318667,374.877333 502.892,377.416 C500.465333,379.954667 498.561333,382.885333 497.18,386.208 C495.798667,389.530667 495.108,393.096 495.108,396.904 C495.108,400.712 495.798667,404.277333 497.18,407.6 C498.561333,410.922667 500.465333,413.853333 502.892,416.392 C505.318667,418.930667 508.212,420.928 511.572,422.384 C514.932,423.84 518.628,424.568 522.66,424.568 Z M522.66,415.832 C519.972,415.832 517.564,415.290667 515.436,414.208 C513.308,413.125333 511.478667,411.688 509.948,409.896 C508.417333,408.104 507.26,406.088 506.476,403.848 C505.692,401.608 505.3,399.293333 505.3,396.904 C505.3,394.514667 505.692,392.181333 506.476,389.904 C507.26,387.626667 508.398667,385.610667 509.892,383.856 C511.385333,382.101333 513.214667,380.682667 515.38,379.6 C517.545333,378.517333 519.972,377.976 522.66,377.976 C525.348,377.976 527.756,378.517333 529.884,379.6 C532.012,380.682667 533.841333,382.12 535.372,383.912 C536.902667,385.704 538.06,387.738667 538.844,390.016 C539.628,392.293333 540.02,394.589333 540.02,396.904 C540.02,399.293333 539.628,401.626667 538.844,403.904 C538.06,406.181333 536.921333,408.197333 535.428,409.952 C533.934667,411.706667 532.105333,413.125333 529.94,414.208 C527.774667,415.290667 525.348,415.832 522.66,415.832 Z M576.136,423 L576.136,379.32 L591.032,379.32 L591.032,370.92 L576.136,370.92 L576.136,367.56 C576.136,363.005333 577.013333,359.794667 578.768,357.928 C580.522667,356.061333 582.856,355.128 585.768,355.128 C588.904,355.128 591.853333,356.285333 594.616,358.6 L594.616,358.6 L599.656,352.104 C597.416,350.013333 594.970667,348.538667 592.32,347.68 C589.669333,346.821333 586.962667,346.392 584.2,346.392 C581.810667,346.392 579.533333,346.784 577.368,347.568 C575.202667,348.352 573.28,349.565333 571.6,351.208 C569.92,352.850667 568.576,354.96 567.568,357.536 C566.56,360.112 566.056,363.154667 566.056,366.664 L566.056,366.664 L566.056,370.92 L556.648,370.92 L556.648,379.32 L566.056,379.32 L566.056,423 L576.136,423 Z M657.892,423 L670.884,374.168 L683.652,423 L701.46,423 L720.5,348.296 L703.028,348.296 L692.164,402.392 L678.948,350.312 L663.604,350.312 L650.5,402.392 L639.524,348.296 L621.38,348.296 L640.084,423 L657.892,423 Z M739.592,424.568 C742.952,424.568 745.994667,424.008 748.72,422.888 C751.445333,421.768 753.704,420.162667 755.496,418.072 L755.496,418.072 L755.944,423 L771.064,423 L771.064,392.424 C771.064,385.181333 769.16,379.413333 765.352,375.12 C761.544,370.826667 755.645333,368.68 747.656,368.68 C744.52,368.68 741.738667,368.885333 739.312,369.296 C736.885333,369.706667 734.701333,370.248 732.76,370.92 C730.818667,371.592 729.138667,372.338667 727.72,373.16 C726.301333,373.981333 725.032,374.802667 723.912,375.624 L723.912,375.624 L730.52,385.48 C732.162667,384.36 734.16,383.352 736.512,382.456 C738.864,381.56 741.832,381.112 745.416,381.112 C746.76,381.112 748.029333,381.242667 749.224,381.504 C750.418667,381.765333 751.482667,382.213333 752.416,382.848 C753.349333,383.482667 754.096,384.266667 754.656,385.2 C755.216,386.133333 755.496,387.272 755.496,388.616 L755.496,388.616 L755.496,389.736 C754.898667,389.586667 753.648,389.474667 751.744,389.4 C749.84,389.325333 747.954667,389.288 746.088,389.288 C742.653333,389.288 739.461333,389.698667 736.512,390.52 C733.562667,391.341333 731.005333,392.554667 728.84,394.16 C726.674667,395.765333 724.976,397.762667 723.744,400.152 C722.512,402.541333 721.896,405.266667 721.896,408.328 C721.896,411.464 722.474667,414.077333 723.632,416.168 C724.789333,418.258667 726.245333,419.92 728,421.152 C729.754667,422.384 731.658667,423.261333 733.712,423.784 C735.765333,424.306667 737.725333,424.568 739.592,424.568 Z M745.304,413.144 C740.077333,413.144 737.464,410.978667 737.464,406.648 C737.464,404.333333 738.397333,402.541333 740.264,401.272 C742.130667,400.002667 745.304,399.368 749.784,399.368 C751.128,399.368 752.322667,399.424 753.368,399.536 C754.413333,399.648 755.122667,399.741333 755.496,399.816 L755.496,399.816 L755.496,404.072 C755.496,405.565333 755.197333,406.872 754.6,407.992 C754.002667,409.112 753.237333,410.045333 752.304,410.792 C751.370667,411.538667 750.288,412.117333 749.056,412.528 C747.824,412.938667 746.573333,413.144 745.304,413.144 Z M807.292,446.744 C815.58,446.744 822.113333,444.672 826.892,440.528 C831.670667,436.384 834.06,429.981333 834.06,421.32 L834.06,421.32 L834.06,373.272 C830.924,372.152 827.396,371.218667 823.476,370.472 C819.556,369.725333 815.430667,369.352 811.1,369.352 C806.545333,369.352 802.42,370.024 798.724,371.368 C795.028,372.712 791.854667,374.634667 789.204,377.136 C786.553333,379.637333 784.5,382.624 783.044,386.096 C781.588,389.568 780.86,393.432 780.86,397.688 C780.86,401.346667 781.401333,404.706667 782.484,407.768 C783.566667,410.829333 785.116,413.48 787.132,415.72 C789.148,417.96 791.630667,419.696 794.58,420.928 C797.529333,422.16 800.870667,422.776 804.604,422.776 C810.204,422.776 814.684,421.32 818.044,418.408 L818.044,418.408 L818.044,422.104 C818.044,425.986667 816.998667,428.898667 814.908,430.84 C812.817333,432.781333 809.942667,433.752 806.284,433.752 C803.446667,433.752 800.852,433.397333 798.5,432.688 C796.148,431.978667 793.926667,430.989333 791.836,429.72 L791.836,429.72 L785.34,441.144 C788.252,443.085333 791.462667,444.504 794.972,445.4 C798.481333,446.296 802.588,446.744 807.292,446.744 Z M807.852,409.56 C804.342667,409.56 801.673333,408.44 799.844,406.2 C798.014667,403.96 797.1,400.936 797.1,397.128 C797.1,395.186667 797.38,393.338667 797.94,391.584 C798.5,389.829333 799.358667,388.298667 800.516,386.992 C801.673333,385.685333 803.110667,384.64 804.828,383.856 C806.545333,383.072 808.561333,382.68 810.876,382.68 C812.593333,382.68 813.974667,382.773333 815.02,382.96 C816.065333,383.146667 817.110667,383.426667 818.156,383.8 L818.156,383.8 L818.156,399.592 C818.156,403.026667 817.26,405.546667 815.468,407.152 C813.676,408.757333 811.137333,409.56 807.852,409.56 Z M870.4,424.904 C876.373333,424.904 881.898667,422.888 886.976,418.856 L886.976,418.856 L880.48,409 C879.434667,409.746667 878.314667,410.4 877.12,410.96 C875.925333,411.52 874.506667,411.8 872.864,411.8 C870.698667,411.8 869.112,411.109333 868.104,409.728 C867.096,408.346667 866.592,406.386667 866.592,403.848 L866.592,403.848 L866.592,383.128 L880.144,383.128 L880.144,370.472 L866.592,370.472 L866.592,353.224 L850.464,353.224 L850.464,370.472 L842.176,370.472 L842.176,383.128 L850.464,383.128 L850.464,402.952 C850.464,406.237333 850.8,409.224 851.472,411.912 C852.144,414.6 853.264,416.896 854.832,418.8 C856.4,420.704 858.453333,422.197333 860.992,423.28 C863.530667,424.362667 866.666667,424.904 870.4,424.904 Z M908.42,424.568 C911.78,424.568 914.822667,424.008 917.548,422.888 C920.273333,421.768 922.532,420.162667 924.324,418.072 L924.324,418.072 L924.772,423 L939.892,423 L939.892,392.424 C939.892,385.181333 937.988,379.413333 934.18,375.12 C930.372,370.826667 924.473333,368.68 916.484,368.68 C913.348,368.68 910.566667,368.885333 908.14,369.296 C905.713333,369.706667 903.529333,370.248 901.588,370.92 C899.646667,371.592 897.966667,372.338667 896.548,373.16 C895.129333,373.981333 893.86,374.802667 892.74,375.624 L892.74,375.624 L899.348,385.48 C900.990667,384.36 902.988,383.352 905.34,382.456 C907.692,381.56 910.66,381.112 914.244,381.112 C915.588,381.112 916.857333,381.242667 918.052,381.504 C919.246667,381.765333 920.310667,382.213333 921.244,382.848 C922.177333,383.482667 922.924,384.266667 923.484,385.2 C924.044,386.133333 924.324,387.272 924.324,388.616 L924.324,388.616 L924.324,389.736 C923.726667,389.586667 922.476,389.474667 920.572,389.4 C918.668,389.325333 916.782667,389.288 914.916,389.288 C911.481333,389.288 908.289333,389.698667 905.34,390.52 C902.390667,391.341333 899.833333,392.554667 897.668,394.16 C895.502667,395.765333 893.804,397.762667 892.572,400.152 C891.34,402.541333 890.724,405.266667 890.724,408.328 C890.724,411.464 891.302667,414.077333 892.46,416.168 C893.617333,418.258667 895.073333,419.92 896.828,421.152 C898.582667,422.384 900.486667,423.261333 902.54,423.784 C904.593333,424.306667 906.553333,424.568 908.42,424.568 Z M914.132,413.144 C908.905333,413.144 906.292,410.978667 906.292,406.648 C906.292,404.333333 907.225333,402.541333 909.092,401.272 C910.958667,400.002667 914.132,399.368 918.612,399.368 C919.956,399.368 921.150667,399.424 922.196,399.536 C923.241333,399.648 923.950667,399.741333 924.324,399.816 L924.324,399.816 L924.324,404.072 C924.324,405.565333 924.025333,406.872 923.428,407.992 C922.830667,409.112 922.065333,410.045333 921.132,410.792 C920.198667,411.538667 919.116,412.117333 917.884,412.528 C916.652,412.938667 915.401333,413.144 914.132,413.144 Z M969.176,362.744 L969.176,348.296 L951.928,348.296 L951.928,362.744 L969.176,362.744 Z M968.616,423 L968.616,370.472 L952.488,370.472 L952.488,423 L968.616,423 Z M997.564,423 L997.564,348.296 L981.436,348.296 L981.436,423 L997.564,423 Z" id="CreatorsofWagtail" fill="#251657"></path>
            <g id="tbx-logo-coral" transform="translate(0.000000, -0.000000)">
                <polygon id="Path" fill="#251657" points="55.26 150.457684 0 150.457684 0 116.457684 149.14 116.457684 149.14 150.457684 94.14 150.457684 94.14 287.057684 55.26 287.057684"></polygon>
                <path d="M117.63,226.987684 C117.56136,218.424692 119.171714,209.931266 122.37,201.987684 C125.395196,194.418548 129.868854,187.512743 135.54,181.657684 C141.317903,175.762901 148.239509,171.111066 155.88,167.987684 C164.196647,164.580852 173.113252,162.880508 182.1,162.987684 C191.045416,162.871629 199.921299,164.572641 208.19,167.987684 C215.783927,171.135891 222.659508,175.793323 228.4,181.677684 C234.068741,187.528999 238.545201,194.427094 241.58,201.987684 C247.886893,218.019715 247.886893,235.845653 241.58,251.877684 C235.471372,267.272528 223.443487,279.574182 208.19,286.027684 C199.941131,289.520711 191.057205,291.264126 182.1,291.147684 C173.101561,291.255013 164.177034,289.512314 155.88,286.027684 C140.556483,279.636919 128.469755,267.319349 122.37,251.877684 C119.184573,243.968749 117.574435,235.513826 117.63,226.987684 L117.63,226.987684 Z M182.1,259.217684 C190.392346,259.409511 198.296498,255.709066 203.46,249.217684 C205.935898,246.145813 207.802641,242.62955 208.96,238.857684 C211.34652,231.107238 211.34652,222.818129 208.96,215.067684 C207.820494,211.327822 205.951155,207.850852 203.46,204.837684 C200.969446,201.837569 197.875843,199.394713 194.38,197.667684 C190.553136,195.824684 186.34676,194.90668 182.1,194.987684 C177.812415,194.916149 173.565969,195.833189 169.69,197.667684 C166.165959,199.349761 163.063366,201.799717 160.61,204.837684 C158.181262,207.8924 156.318588,211.356973 155.11,215.067684 C152.550241,222.791115 152.550241,231.134252 155.11,238.857684 C156.337277,242.600181 158.1976,246.104354 160.61,249.217684 C163.032617,252.316741 166.140627,254.812049 169.69,256.507684 C173.566791,258.33873 177.813199,259.252341 182.1,259.177684 L182.1,259.217684 Z" id="Shape" fill="#251657"></path>
                <path d="M261.71,167.077684 L297,167.077684 L298.28,182.177684 C301.868622,177.604276 306.162339,173.631237 311,170.407684 C316.373333,166.661017 323.323333,164.78435 331.85,164.777684 C334.631964,164.748366 337.412444,164.918804 340.17,165.287684 C342.487754,165.638995 344.760884,166.239129 346.95,167.077684 L341,199.567684 C336.683844,198.296477 332.198663,197.692832 327.7,197.777684 C319,197.777684 311.963333,200.377684 306.59,205.577684 C301.216667,210.777684 298.53,218.15435 298.53,227.707684 L298.53,287.057684 L261.71,287.057684 L261.71,167.077684 Z" id="Path" fill="#251657"></path>
                <path d="M461.53,271.197684 C455.981152,277.095151 449.351001,281.871712 442,285.267684 C433.893333,289.187684 424.3,291.151017 413.22,291.157684 C404.171806,291.281026 395.183565,289.672104 386.74,286.417684 C379.101823,283.46078 372.171586,278.929209 366.4,273.117684 C360.69207,267.288145 356.21346,260.371296 353.23,252.777684 C349.989823,244.569309 348.366722,235.812037 348.45,226.987684 C348.322297,210.070189 354.898235,193.790337 366.74,181.707684 C372.576581,175.810752 379.537383,171.145281 387.21,167.987684 C395.452979,164.591992 404.295508,162.891506 413.21,162.987684 C424.116667,162.987684 433.58,164.777684 441.6,168.357684 C449.256473,171.683014 456.138567,176.562796 461.81,182.687684 L439.56,206.737684 C436.652204,203.525889 433.281825,200.765548 429.56,198.547684 C425.626667,196.15435 420.423333,194.961017 413.95,194.967684 C409.829106,194.894686 405.751099,195.813867 402.06,197.647684 C398.626347,199.362472 395.567232,201.741783 393.06,204.647684 C390.550042,207.622223 388.641402,211.055737 387.44,214.757684 C386.147369,218.704027 385.50894,222.835234 385.55,226.987684 C385.55549,230.942785 386.203949,234.870688 387.47,238.617684 C388.688116,242.351727 390.594257,245.824838 393.09,248.857684 C395.58564,251.851604 398.643106,254.328151 402.09,256.147684 C405.755188,258.066051 409.843798,259.032325 413.98,258.957684 C420.286667,258.957684 425.573333,257.721017 429.84,255.247684 C433.64103,253.112825 437.071952,250.377543 440,247.147684 L461.53,271.197684 Z" id="Path" fill="#251657"></path>
                <path d="M471.81,116.427684 L508.39,116.427684 L508.39,178.597684 C512.606004,173.79065 517.978793,170.138806 524,167.987684 C530.28351,165.553114 536.961357,164.295509 543.7,164.277684 C557.506667,164.277684 568.55,168.371017 576.83,176.557684 C585.11,184.74435 589.243333,196.851017 589.230032,212.877684 L589.230032,287.067684 L552.65,287.067684 L552.65,218.497684 C552.65,211.511017 550.86,206.05435 547.28,202.127684 C543.7,198.201017 538.94,196.241017 533,196.247684 C529.385418,196.181367 525.801612,196.922726 522.51,198.417684 C519.572711,199.770229 516.957829,201.733948 514.84,204.177684 C512.766818,206.612499 511.202679,209.438149 510.24,212.487684 C509.194372,215.754833 508.674557,219.167384 508.7,222.597684 L508.7,287.057684 L471.81,287.057684 L471.81,116.427684 Z" id="Path" fill="#251657"></path>
                <path d="M610.31,116.427684 L647.15,116.427684 L647.15,176.037684 C651.056894,172.150388 655.836349,169.253229 661.09,167.587684 C666.720036,165.589332 672.645926,164.551541 678.62,164.517684 C686.482606,164.377816 694.272471,166.043896 701.39,169.387684 C707.871787,172.495891 713.590306,176.992183 718.14,182.557684 C722.746297,188.261332 726.258634,194.767292 728.5,201.747684 C733.637658,218.085605 733.233372,235.663245 727.35,251.747684 C724.376699,259.664294 719.703626,266.832632 713.66,272.747684 C707.355621,278.75643 699.860907,283.3759 691.66,286.307684 C682.140903,289.677185 672.09656,291.319635 662,291.157684 C652.26276,291.202586 642.546166,290.257731 633,288.337684 C625.33815,286.851497 617.77673,284.887666 610.36,282.457684 L610.31,116.427684 Z M647.15,257.897684 C649.329249,258.794539 651.604085,259.438741 653.93,259.817684 C657.360846,260.305913 660.825148,260.519924 664.29,260.457684 C674.01,260.457684 681.556667,257.301017 686.93,250.987684 C692.303333,244.67435 694.993333,236.40435 695.000041,226.177684 C695.005104,222.465632 694.531191,218.768438 693.59,215.177684 C692.72729,211.765168 691.301026,208.520586 689.37,205.577684 C687.48507,202.762731 684.994236,200.405151 682.08,198.677684 C678.767961,196.801948 675.004534,195.871469 671.2,195.987684 C663.006667,195.987684 656.95,198.247684 653.03,202.767684 C649.11,207.287684 647.15,213.287684 647.15,220.767684 L647.15,257.897684 Z" id="Shape" fill="#251657"></path>
                <path d="M742,226.987684 C741.927924,218.425333 743.534885,209.931882 746.73,201.987684 C749.758849,194.420439 754.232073,187.515304 759.9,181.657684 C765.680831,175.761774 772.605937,171.109872 780.25,167.987684 C788.566647,164.580852 797.483252,162.880508 806.47,162.987684 C815.418579,162.872495 824.297556,164.573448 832.57,167.987684 C840.161155,171.141035 847.03576,175.797806 852.78,181.677684 C858.466897,187.522451 862.957613,194.421576 866,201.987684 C872.32085,218.017065 872.32085,235.848302 866,251.877684 C859.899461,267.274363 847.873573,279.57766 832.62,286.027684 C824.367355,289.519839 815.480355,291.263189 806.52,291.147684 C797.521561,291.255013 788.597034,289.512314 780.3,286.027684 C772.668966,282.823003 765.753999,278.128033 759.96,272.217684 C754.293992,266.35472 749.821114,259.446721 746.79,251.877684 C743.587216,243.972256 741.960061,235.517163 742,226.987684 Z M806.46,259.217684 C814.754517,259.406424 822.660403,255.706898 827.83,249.217684 C830.30161,246.142986 832.167896,242.627582 833.33,238.857684 C835.71652,231.107238 835.71652,222.818129 833.33,215.067684 C832.186591,211.329449 830.317646,207.853211 827.83,204.837684 C825.335707,201.837321 822.238801,199.394547 818.74,197.667684 C814.91641,195.825506 810.713469,194.907504 806.47,194.987684 C802.185638,194.916251 797.942465,195.833324 794.07,197.667684 C790.544333,199.347148 787.441201,201.797528 784.99,204.837684 C782.554449,207.889488 780.688033,211.354723 779.48,215.067684 C776.933719,222.793284 776.933719,231.132083 779.48,238.857684 C780.711999,242.596009 782.579354,246.093917 785,249.197684 C787.420265,252.299061 790.52887,254.794846 794.08,256.487684 C797.948604,258.323988 802.188219,259.244453 806.47,259.177684 L806.46,259.217684 Z" id="Shape" fill="#251657"></path>
                <polygon id="Path" fill="#251657" points="912.51 226.987684 868.76 167.117684 912.76 167.117684 934.24 199.117684 955.99 167.117684 996.15 167.117684 954 224.387684 1000 287.057684 956 287.057684 932.21 252.527684 908.16 287.057684 868 287.057684"></polygon>
                <path d="M998.45,82.8076835 C998.35275,82.1031945 997.815054,81.5402801 997.115759,81.410865 C996.416463,81.2814499 995.712927,81.6146558 995.37,82.2376835 C990.65,90.6376835 984.05,97.8676835 979.37,100.007684 L979.37,99.0676835 C978.67,40.9876835 936.68,9.51768352 921.91,0.247683518 C921.288024,-0.137947789 920.486351,-0.0678137267 919.940785,0.419959615 C919.395219,0.907732957 919.236129,1.69658557 919.55,2.35768352 C929.22,22.4176835 925.66,41.4976835 909.36,59.9176835 C905.962046,63.7774263 902.834611,67.8671492 900,72.1576835 L900,72.1576835 C897.43909,76.0221638 895.153439,80.0621521 893.16,84.2476835 L893,84.0476835 C886.27,73.8876835 884.8,61.6176835 884.54,54.9776835 C884.548862,54.2557163 884.090033,53.6108174 883.405063,53.3824941 C882.720093,53.1541708 881.966091,53.3947924 881.54,53.9776835 C877.34,59.8176835 870.12,71.5676835 869.05,84.5276835 C866.48,115.747684 884.95,147.627684 916.78,156.157684 C917.43938,156.325264 918.13349,156.065681 918.521095,155.50655 C918.908699,154.947419 918.908263,154.206358 918.52,153.647684 C915.72,149.227684 914.03,143.057684 914.03,135.017684 C914.03,116.497684 934.03,88.3776835 934.03,88.3776835 C934.03,88.3776835 954.03,116.497684 954.03,135.017684 C954.03,143.107684 952.33,149.317684 949.48,153.727684 C949.103634,154.288213 949.106736,155.021485 949.487832,155.57881 C949.868928,156.136136 950.551116,156.405052 951.21,156.257684 C982.08,148.257684 996.66,119.757684 998.85,102.257684 C999.443227,95.7797489 999.309058,89.2557511 998.45,82.8076835 L998.45,82.8076835 Z" id="Path" fill="#FD5765"></path>
            </g>
        </g>
    </g>
</svg>