<?xml version="1.0" encoding="UTF-8"?>
<!-- Created with Inkscape (http://www.inkscape.org/) -->
<svg width="1733.3" height="800" version="1.1" viewBox="0 0 1733.3 800" xmlns="http://www.w3.org/2000/svg">
 <defs>
  <clipPath id="clipPath164">
   <path d="m0 600h1300v-600h-1300z"/>
  </clipPath>
  <clipPath id="clipPath220">
   <path d="m0 600h1300v-600h-1300z"/>
  </clipPath>
  <clipPath id="clipPath276">
   <path d="m0 600h1300v-600h-1300z"/>
  </clipPath>
 </defs>
 <g transform="matrix(1.3333 0 0 -1.3333 0 800)">
  <g clip-path="url(#clipPath164)">
   <g transform="translate(851.82 391.29)">
    <path d="m0 0h-51.06c-1.464 0-2.673-1.198-2.673-2.674v-30.716c0-1.466 1.209-2.675 2.673-2.675h51.06c1.466 0 2.675 1.209 2.675 2.675v30.716c0 1.476-1.209 2.674-2.675 2.674" fill="#f22f46"/>
   </g>
   <g transform="translate(571.83 253.75)">
    <path d="m0 0c-8.969 0-13.673 3.734-13.673 13.93v34.321h28.662c1.471 0 2.675 1.204 2.675 2.675v32.235l37.68-125.61c0.422-1.406 1.969-2.558 3.437-2.558h41.656c1.469 0 3.041 1.147 3.489 2.546l17.845 55.644 9.073-29.089 8.28-26.55c0.438-1.402 1.997-2.551 3.467-2.551h41.918c1.467 0 3.016 1.15 3.443 2.554l38.249 125.97v-125.9c0-1.476 1.197-2.674 2.675-2.674h51.106c1.472 0 2.675 1.204 2.675 2.674v131.49c0 1.471-1.203 2.674-2.675 2.674h-101.83c-1.469 0-2.976-1.164-3.347-2.586l-13.064-50.041-0.685-2.578-15.888 53.14c-0.422 1.413-1.974 2.568-3.447 2.568h-39.668c-1.469 0-3.013-1.152-3.432-2.56l-14.894-50.099-0.76-2.556-0.653 2.588-6.312 24.768-6.302 24.77c-0.362 1.422-1.859 2.586-3.327 2.586h-80.047v42.96c0 1.804-1.749 3.09-3.471 2.554l-49.792-15.52c-1.899-0.592-3.193-2.351-3.193-4.341v-25.653h-13.246c-1.471 0-2.674-1.203-2.674-2.674v-38.173c0-1.471 1.203-2.675 2.674-2.675h13.246v-46.753c0-33.08 17.909-48.497 51.235-48.497 12.87 0 25.521 2.645 34.43 6.899 1.012 0.484 1.625 1.527 1.625 2.649v37.429c0 1.873-1.859 3.163-3.611 2.501-3.039-1.146-7.795-2.479-13.55-2.479" fill="#f22f46"/>
   </g>
   <g transform="translate(919.08 391.29)">
    <path d="m0 0c1.466 0 2.675-1.198 2.675-2.674v-177.26c0-1.465-1.209-2.663-2.675-2.663h-51.107c-1.477 0-2.675 1.198-2.675 2.663v177.26c0 1.476 1.236 2.674 2.675 2.674z" fill="#f22f46"/>
   </g>
   <g transform="translate(986.29 391.29)">
    <path d="m0 0c1.466 0 2.675-1.198 2.675-2.674v-30.716c0-1.466-1.209-2.675-2.675-2.675h-51.106c-1.466 0-2.675 1.209-2.675 2.675v30.716c0 1.476 1.209 2.674 2.675 2.674z" fill="#f22f46"/>
   </g>
   <g transform="translate(986.29 345.53)">
    <path d="m0 0c1.466 0 2.675-1.198 2.675-2.674v-131.49c0-1.476-1.209-2.674-2.675-2.674h-51.106c-1.477 0-2.675 1.198-2.675 2.674v131.49c0 1.476 1.198 2.674 2.675 2.674z" fill="#f22f46"/>
   </g>
   <g transform="translate(1092.7 277.14)">
    <path d="m0 0c0-12.935-9.201-23.622-21.89-23.622-12.431 0-22.381 10.687-22.381 24.125v0.492c0 12.935 9.201 23.623 21.889 23.623 12.432 0 22.382-10.688 22.382-24.115zm-21.89 71.627c-44.762 0-76.591-32.834-76.591-71.124v-0.503c0-38.301 31.583-70.632 76.099-70.632 44.763 0 76.603 32.834 76.603 71.135v0.492c0 38.301-31.594 70.632-76.111 70.632" fill="#f22f46"/>
   </g>
   <g transform="translate(300 189.53)">
    <path d="m0 0c-61.014 0-110.47 49.46-110.47 110.47 0 61.004 49.46 110.46 110.47 110.46s110.47-49.459 110.47-110.46c0-61.014-49.46-110.47-110.47-110.47m0 260.47c-82.839 0-150-67.156-150-150 0-82.85 67.166-150 150-150s150 67.155 150 150c0 82.839-67.166 150-150 150" fill="#f22f46"/>
   </g>
   <g transform="translate(306.17 337.36)">
    <path d="m0 0c0 17.225 13.962 31.187 31.187 31.187 17.224 0 31.197-13.962 31.197-31.187s-13.973-31.187-31.197-31.187c-17.225 0-31.187 13.962-31.187 31.187" fill="#f22f46"/>
   </g>
   <g transform="translate(306.17 262.64)">
    <path d="m0 0c0 17.225 13.962 31.187 31.187 31.187 17.224 0 31.197-13.962 31.197-31.187s-13.973-31.187-31.197-31.187c-17.225 0-31.187 13.962-31.187 31.187" fill="#f22f46"/>
   </g>
   <g transform="translate(231.46 262.64)">
    <path d="m0 0c0 17.225 13.962 31.187 31.187 31.187 17.224 0 31.197-13.962 31.197-31.187s-13.973-31.187-31.197-31.187c-17.225 0-31.187 13.962-31.187 31.187" fill="#f22f46"/>
   </g>
   <g transform="translate(231.46 337.36)">
    <path d="m0 0c0 17.225 13.962 31.187 31.187 31.187 17.224 0 31.197-13.962 31.197-31.187s-13.973-31.187-31.197-31.187c-17.225 0-31.187 13.962-31.187 31.187" fill="#f22f46"/>
   </g>
  </g>
 </g>
 <g transform="matrix(1.3333 0 0 -1.3333 1753.3 800)">
  <g clip-path="url(#clipPath220)">
   <g transform="translate(851.82 391.29)">
    <path d="m0 0h-51.06c-1.464 0-2.673-1.198-2.673-2.675v-30.716c0-1.464 1.209-2.673 2.673-2.673h51.06c1.466 0 2.675 1.209 2.675 2.673v30.716c0 1.477-1.209 2.675-2.675 2.675"/>
   </g>
   <g transform="translate(571.83 253.76)">
    <path d="m0 0c-8.969 0-13.673 3.733-13.673 13.929v34.321h28.662c1.471 0 2.675 1.204 2.675 2.675v32.235l37.68-125.61c0.422-1.406 1.969-2.557 3.437-2.557h41.656c1.469 0 3.041 1.146 3.489 2.545l17.845 55.644 9.073-29.089 8.28-26.55c0.438-1.402 1.997-2.55 3.467-2.55h41.918c1.467 0 3.016 1.149 3.443 2.553l38.249 125.97v-125.9c0-1.477 1.197-2.675 2.675-2.675h51.106c1.472 0 2.675 1.204 2.675 2.675v131.49c0 1.47-1.203 2.674-2.675 2.674h-101.83c-1.469 0-2.976-1.164-3.347-2.585l-13.064-50.041-0.685-2.579-15.888 53.14c-0.422 1.413-1.974 2.568-3.447 2.568h-39.668c-1.469 0-3.013-1.152-3.432-2.559l-14.894-50.1-0.76-2.556-0.653 2.588-6.312 24.768-6.302 24.771c-0.362 1.421-1.859 2.585-3.327 2.585h-80.047v42.96c0 1.804-1.749 3.09-3.471 2.554l-49.792-15.52c-1.899-0.592-3.193-2.351-3.193-4.341v-25.653h-13.246c-1.471 0-2.674-1.204-2.674-2.674v-38.173c0-1.471 1.203-2.675 2.674-2.675h13.246v-46.753c0-33.079 17.909-48.497 51.235-48.497 12.87 0 25.521 2.646 34.43 6.899 1.012 0.484 1.625 1.528 1.625 2.649v37.43c0 1.872-1.859 3.163-3.611 2.501-3.039-1.147-7.795-2.479-13.55-2.479"/>
   </g>
   <g transform="translate(919.08 391.29)">
    <path d="m0 0c1.466 0 2.675-1.198 2.675-2.675v-177.25c0-1.466-1.209-2.664-2.675-2.664h-51.107c-1.477 0-2.675 1.198-2.675 2.664v177.25c0 1.477 1.236 2.675 2.675 2.675z"/>
   </g>
   <g transform="translate(986.29 391.29)">
    <path d="m0 0c1.466 0 2.675-1.198 2.675-2.675v-30.716c0-1.464-1.209-2.673-2.675-2.673h-51.106c-1.466 0-2.675 1.209-2.675 2.673v30.716c0 1.477 1.209 2.675 2.675 2.675z"/>
   </g>
   <g transform="translate(986.29 345.53)">
    <path d="m0 0c1.466 0 2.675-1.198 2.675-2.675v-131.49c0-1.477-1.209-2.675-2.675-2.675h-51.106c-1.477 0-2.675 1.198-2.675 2.675v131.49c0 1.477 1.198 2.675 2.675 2.675z"/>
   </g>
   <g transform="translate(1092.7 277.14)">
    <path d="m0 0c0-12.935-9.201-23.622-21.89-23.622-12.431 0-22.381 10.687-22.381 24.125v0.492c0 12.935 9.201 23.623 21.889 23.623 12.432 0 22.382-10.688 22.382-24.115zm-21.89 71.628c-44.762 0-76.591-32.834-76.591-71.125v-0.503c0-38.301 31.583-70.632 76.099-70.632 44.763 0 76.603 32.834 76.603 71.135v0.492c0 38.301-31.594 70.633-76.111 70.633"/>
   </g>
   <g transform="translate(300 189.53)">
    <path d="m0 0c-61.014 0-110.47 49.46-110.47 110.48 0 61.003 49.46 110.46 110.47 110.46s110.47-49.46 110.47-110.46c0-61.015-49.46-110.48-110.47-110.48m0 260.47c-82.839 0-150-67.156-150-149.99 0-82.851 67.166-150.01 150-150.01s150 67.155 150 150.01c0 82.838-67.166 149.99-150 149.99"/>
   </g>
   <g transform="translate(306.17 337.36)">
    <path d="m0 0c0 17.225 13.962 31.187 31.187 31.187 17.224 0 31.197-13.962 31.197-31.187s-13.973-31.187-31.197-31.187c-17.225 0-31.187 13.962-31.187 31.187"/>
   </g>
   <g transform="translate(306.17 262.64)">
    <path d="m0 0c0 17.225 13.962 31.187 31.187 31.187 17.224 0 31.197-13.962 31.197-31.187s-13.973-31.187-31.197-31.187c-17.225 0-31.187 13.962-31.187 31.187"/>
   </g>
   <g transform="translate(231.46 262.64)">
    <path d="m0 0c0 17.225 13.962 31.187 31.187 31.187 17.224 0 31.197-13.962 31.197-31.187s-13.973-31.187-31.197-31.187c-17.225 0-31.187 13.962-31.187 31.187"/>
   </g>
   <g transform="translate(231.46 337.36)">
    <path d="m0 0c0 17.225 13.962 31.187 31.187 31.187 17.224 0 31.197-13.962 31.197-31.187s-13.973-31.187-31.197-31.187c-17.225 0-31.187 13.962-31.187 31.187"/>
   </g>
  </g>
 </g>
 <g transform="matrix(1.3333 0 0 -1.3333 3506.7 800)">
  <g clip-path="url(#clipPath276)">
   <g transform="translate(851.82 391.29)">
    <path d="m0 0h-51.06c-1.464 0-2.673-1.198-2.673-2.675v-30.716c0-1.465 1.209-2.674 2.673-2.674h51.06c1.466 0 2.675 1.209 2.675 2.674v30.716c0 1.477-1.209 2.675-2.675 2.675" fill="#fff"/>
   </g>
   <g transform="translate(571.83 253.76)">
    <path d="m0 0c-8.969 0-13.673 3.733-13.673 13.93v34.321h28.662c1.471 0 2.675 1.203 2.675 2.675v32.234l37.68-125.61c0.422-1.406 1.969-2.557 3.437-2.557h41.656c1.469 0 3.041 1.146 3.489 2.546l17.845 55.644 9.073-29.09 8.28-26.549c0.438-1.403 1.997-2.551 3.467-2.551h41.918c1.467 0 3.016 1.15 3.443 2.554l38.249 125.97v-125.9c0-1.477 1.197-2.675 2.675-2.675h51.106c1.472 0 2.675 1.205 2.675 2.675v131.49c0 1.471-1.203 2.674-2.675 2.674h-101.83c-1.469 0-2.976-1.163-3.347-2.585l-13.064-50.041-0.685-2.578-15.888 53.14c-0.422 1.412-1.974 2.567-3.447 2.567h-39.668c-1.469 0-3.013-1.151-3.432-2.559l-14.894-50.099-0.76-2.557-0.653 2.589-6.312 24.767-6.302 24.771c-0.362 1.422-1.859 2.585-3.327 2.585h-80.047v42.96c0 1.804-1.749 3.091-3.471 2.554l-49.792-15.519c-1.899-0.593-3.193-2.352-3.193-4.341v-25.654h-13.246c-1.471 0-2.674-1.203-2.674-2.674v-38.172c0-1.472 1.203-2.675 2.674-2.675h13.246v-46.753c0-33.08 17.909-48.497 51.235-48.497 12.87 0 25.521 2.645 34.43 6.899 1.012 0.484 1.625 1.527 1.625 2.648v37.43c0 1.872-1.859 3.163-3.611 2.501-3.039-1.147-7.795-2.479-13.55-2.479" fill="#fff"/>
   </g>
   <g transform="translate(919.08 391.29)">
    <path d="m0 0c1.466 0 2.675-1.198 2.675-2.675v-177.26c0-1.465-1.209-2.664-2.675-2.664h-51.107c-1.477 0-2.675 1.199-2.675 2.664v177.26c0 1.477 1.236 2.675 2.675 2.675z" fill="#fff"/>
   </g>
   <g transform="translate(986.29 391.29)">
    <path d="m0 0c1.466 0 2.675-1.198 2.675-2.675v-30.716c0-1.465-1.209-2.674-2.675-2.674h-51.106c-1.466 0-2.675 1.209-2.675 2.674v30.716c0 1.477 1.209 2.675 2.675 2.675z" fill="#fff"/>
   </g>
   <g transform="translate(986.29 345.53)">
    <path d="m0 0c1.466 0 2.675-1.198 2.675-2.675v-131.48c0-1.477-1.209-2.675-2.675-2.675h-51.106c-1.477 0-2.675 1.198-2.675 2.675v131.48c0 1.477 1.198 2.675 2.675 2.675z" fill="#fff"/>
   </g>
   <g transform="translate(1092.7 277.14)">
    <path d="m0 0c0-12.935-9.201-23.623-21.89-23.623-12.431 0-22.381 10.688-22.381 24.126v0.492c0 12.935 9.201 23.622 21.889 23.622 12.432 0 22.382-10.687 22.382-24.114zm-21.89 71.627c-44.762 0-76.591-32.834-76.591-71.124v-0.503c0-38.302 31.583-70.633 76.099-70.633 44.763 0 76.603 32.834 76.603 71.136v0.492c0 38.301-31.594 70.632-76.111 70.632" fill="#fff"/>
   </g>
   <g transform="translate(300 189.53)">
    <path d="m0 0c-61.014 0-110.47 49.459-110.47 110.47 0 61.004 49.46 110.46 110.47 110.46s110.47-49.459 110.47-110.46c0-61.015-49.46-110.47-110.47-110.47m0 260.47c-82.839 0-150-67.155-150-149.99 0-82.851 67.166-150.01 150-150.01s150 67.155 150 150.01c0 82.839-67.166 149.99-150 149.99" fill="#fff"/>
   </g>
   <g transform="translate(306.17 337.36)">
    <path d="m0 0c0 17.225 13.962 31.187 31.187 31.187 17.224 0 31.197-13.962 31.197-31.187 0-17.226-13.973-31.187-31.197-31.187-17.225 0-31.187 13.961-31.187 31.187" fill="#fff"/>
   </g>
   <g transform="translate(306.17 262.64)">
    <path d="m0 0c0 17.225 13.962 31.187 31.187 31.187 17.224 0 31.197-13.962 31.197-31.187 0-17.226-13.973-31.187-31.197-31.187-17.225 0-31.187 13.961-31.187 31.187" fill="#fff"/>
   </g>
   <g transform="translate(231.46 262.64)">
    <path d="m0 0c0 17.225 13.962 31.187 31.187 31.187 17.224 0 31.197-13.962 31.197-31.187 0-17.226-13.973-31.187-31.197-31.187-17.225 0-31.187 13.961-31.187 31.187" fill="#fff"/>
   </g>
   <g transform="translate(231.46 337.36)">
    <path d="m0 0c0 17.225 13.962 31.186 31.187 31.186 17.224 0 31.197-13.961 31.197-31.186 0-17.226-13.973-31.187-31.197-31.187-17.225 0-31.187 13.961-31.187 31.187" fill="#fff"/>
   </g>
  </g>
 </g>
</svg>
