<svg xmlns="http://www.w3.org/2000/svg" width="177" height="120" viewBox="0 0 177 120">
    <g fill="none" fill-rule="evenodd">
        <path fill="#0052FF" d="M176.513 45.48l-7.257-9.109-1.705-2.14L140.984.887c-.468-.589-1.46-.98-2.205-.868L22.882 17.34c-.744.112-1.578.776-1.853 1.476L.135 71.986c-.275.7-.117 1.755.352 2.343l7.107 8.92L9.3 85.39l26.823 33.667c.47.589 1.462.98 2.206.868l115.727-17.297c.744-.111 1.578-.775 1.853-1.475l20.957-53.329c.275-.7.116-1.755-.352-2.343z"/>
        <path fill="#FFF" d="M150.283 69.595c.556 0 1.17.421 1.368.942l1.284 3.362c.234.504-.025.913-.581.913h-4.022c-.558 0-1.191-.412-1.418-.921l-1.666-4.296h5.035zm-19.244 0l-1.667 4.296c-.225.51-.86.921-1.417.921h-4.021c-.558 0-.817-.409-.58-.913l1.282-3.362c.199-.521.811-.942 1.368-.942h5.034zm-13.517 0c.558 0 1.009.45 1.009 1.01v3.199c0 .556-.451 1.008-1.009 1.008h-3.912c-.558 0-1.01-.452-1.01-1.008v-4.208h4.922zM80.617 44.997c.558 0 1.308.338 1.677.755L96.366 68.74c.29.472.974.857 1.53.857h1.85c.557 0 1.008.45 1.008 1.009v3.199c0 .556-.45 1.008-1.008 1.008h-4.112c-.557 0-1.308-.337-1.676-.754l-14.071-22.99c-.293-.471-.977-.854-1.533-.854h-1.847c-.556 0-1.01-.451-1.01-1.008v-3.202c0-.556.452-1.008 1.01-1.008h4.11zm-3.4 10.436c.28 0 .46.191.608.428l3.164 5.144-.014 12.8c0 .556-.452 1.008-1.01 1.008h-3.458c-.556 0-1.008-.452-1.008-1.008V56.441c0-.558.348-1.009.777-1.009h.941zm-13.595-.476v14.64h6.459c.557 0 1.01.45 1.01 1.009v3.198c0 .557-.453 1.01-1.01 1.01H51.232c-.557 0-1.008-.453-1.008-1.009v-3.2c0-.558.45-1.008 1.008-1.008h6.459V55.964c0-.556.453-1.008 1.009-1.008h4.922zm-30.81.01l5.227 13.529 4.923-12.583c.194-.522.804-.946 1.36-.946h4.96L41.907 73.87c-.201.519-.816.941-1.372.942h-4.905c-.557 0-1.172-.423-1.373-.942l-7.063-17.965c-.204-.518.081-.94.64-.94h4.98zm107.759-9.96c.558.001 1.173.423 1.372.944l7.065 17.964c.205.518-.082.94-.639.94h-4.981l-5.225-13.53-4.925 12.584c-.194.522-.804.946-1.36.946h-4.961l7.378-18.904c.2-.52.816-.943 1.372-.944h4.904zm-15.58-.01c.557 0 1.008.452 1.008 1.008v3.202c0 .557-.451 1.008-1.008 1.008h-6.46v13.632c0 .556-.451 1.008-1.007 1.008h-4.923v-14.64h-6.46c-.556 0-1.008-.451-1.008-1.008v-3.2c0-.558.452-1.009 1.009-1.009h18.849zm-25.245 0c.557 0 1.008.452 1.008 1.008V63.37c0 .557-.347 1.009-.777 1.009h-.94c-.28 0-.462-.192-.608-.43l-3.165-5.143.016-12.8c0-.557.45-1.009 1.007-1.009h3.46zm-47.48.01c.558 0 .818.41.581.914l-1.283 3.361c-.198.521-.812.943-1.368.943H45.16l1.666-4.295c.227-.51.86-.923 1.419-.923h4.02zm-24.397 0c.558 0 1.19.413 1.416.923l1.667 4.295h-5.034c-.557 0-1.17-.422-1.369-.943l-1.284-3.36c-.235-.505.025-.915.582-.915h4.022zm34.746-.01c.558 0 1.008.452 1.008 1.008v4.21H58.7c-.556 0-1.008-.451-1.008-1.008v-3.202c0-.556.452-1.008 1.008-1.008h3.915z"/>
    </g>
</svg>
