<?xml version="1.0" encoding="utf-8"?>
<!-- Generator: Adobe Illustrator 25.0.0, SVG Export Plug-In . SVG Version: 6.00 Build 0)  -->
<svg version="1.1" id="Layer_1" xmlns="http://www.w3.org/2000/svg" xmlns:xlink="http://www.w3.org/1999/xlink" x="0px" y="0px"
	 viewBox="0 0 863.9 217.4" style="enable-background:new 0 0 863.9 217.4;" xml:space="preserve">
<style type="text/css">
	.st0{fill:#011F5B;}
	.st1{fill:#FFFFFF;}
	.st2{fill:#990000;}
</style>
<polygon class="st0" points="863.9,160.1 197.7,160.1 197.7,157.5 863.9,157.5 863.9,160.1 "/>
<path class="st0" d="M206.5,192c0,6.7,1.8,11.8,8.9,11.8c6.5,0,10-4.4,10-12v-13.3c0-1-0.2-1.8-0.3-2.6c-0.2-1.7-1.9-2.4-4.1-2.6
	V172h11.3v1.2c-2.3,0.2-3.9,0.9-4.1,2.6c-0.1,0.8-0.3,1.6-0.3,2.6V192c0,10.3-6.5,14.1-12.7,14.1c-10.2,0-13.3-5.2-13.3-13.8V178
	c0-4.4,0.2-4.2-4.1-4.7V172h12.9v1.2c-4.3,0.5-4.1,0.3-4.1,4.7V192L206.5,192L206.5,192z"/>
<path class="st0" d="M259.3,205.5c-5.9-6.9-12-14.2-18-21.3v16.3c0,0.8,0.1,1.4,0.2,2c0.2,1.3,1.4,1.9,3.9,2v1h-9v-1
	c1.8-0.2,3-0.7,3.2-2c0.1-0.6,0.2-1.2,0.2-2v-17.4c-1-1.3-2.2-2.5-4.3-2.5v-1h6.7c5.5,6.7,11.2,13.5,16.7,20.1h0.1v-15.2
	c0-0.8-0.1-1.4-0.2-2c-0.2-1.3-1.4-1.8-3.9-2v-1h9v1c-1.7,0.2-3,0.7-3.2,2c-0.1,0.6-0.2,1.2-0.2,2v20.8H259.3L259.3,205.5
	L259.3,205.5z"/>
<path class="st0" d="M278.3,200.9c0,3.4-0.1,3.2,3.2,3.7v1h-9.9v-1c3.3-0.4,3.2-0.2,3.2-3.7v-16.6c0-3.4,0.1-3.2-3.2-3.7v-1h9.9v1
	c-3.3,0.4-3.2,0.2-3.2,3.7V200.9L278.3,200.9L278.3,200.9z"/>
<path class="st0" d="M297.2,180.6c-2,0-3.5,0.6-2.3,4.1c1.4,4.4,3.6,10.7,5.5,16.3c2.4-5.6,4.6-11.3,6.9-17c0.9-2.3,0-3.5-2.5-3.5
	v-1h8v1c-1.1,0-2.3,0.4-3.1,2.2c-3.1,7.6-6.2,15.1-9.3,22.6h-1.9c-2.2-6.4-4.8-13.5-7-19.8c-1.4-3.9-2.5-5.1-4.3-5.1v-1h10V180.6
	L297.2,180.6L297.2,180.6z"/>
<path class="st0" d="M318.4,204.5c3.3-0.4,3.2-0.2,3.2-3.7v-16.6c0-3.4,0.1-3.2-3.2-3.7v-1h16.5v5.9h-1c-0.4-2.7-1.1-4.8-3.8-4.8h-5
	v10.5h3.1c2.3,0,3.3-0.9,3.4-3.2h1v7.9h-1c-0.1-2.2-0.9-3.5-3.4-3.5h-3.1v8.3c0,3.1,1.4,3.4,4.8,3.4c5.3,0,5.1-1.5,6.8-5.5h1
	l-1.1,6.6h-18.1V204.5L318.4,204.5L318.4,204.5z"/>
<path class="st0" d="M343.3,179.7H354c3.7,0,7.5,2,7.5,6.3c0,3.8-2.3,6.4-5.2,7.5l3.6,5.5c1.8,2.7,3.9,5.3,5.2,6v0.5h-3.8
	c-2.2,0-3.4-4-7.8-11.4H350v6.8c0,3.4-0.1,3.2,3.2,3.7v1h-9.9v-1c3.3-0.4,3.2-0.2,3.2-3.7v-16.6c0-3.4,0.1-3.2-3.2-3.7V179.7
	L343.3,179.7L343.3,179.7z M350,192.9h3.1c3.2,0,4.7-2.4,4.7-6.6c0-4-2.2-5.4-4.9-5.4H350V192.9L350,192.9L350,192.9z"/>
<path class="st0" d="M383.4,185.2c-0.3-2.6-1.7-4.6-4.6-4.6c-2.1,0-4.1,1.1-4.1,3.8c0,2.6,2.6,4.1,6.3,6.9c3.9,2.9,5.2,4.8,5.2,7.9
	c0,4.4-4.5,6.8-8.9,6.8c-2.4,0-4.4-0.4-6.3-1.2c-0.1-0.1-0.3-0.2-0.3-0.5v-5.3h1c0.4,4.1,3.1,5.7,5.9,5.7c2.6,0,4.8-2,4.8-4.7
	c0-2.4-1.3-4.4-6.8-8c-2-1.3-4.5-2.8-4.5-6.8c0-3.3,3.7-5.9,7.9-5.9c1.6,0,3.7,0.2,5.2,0.7c0.2,0.1,0.3,0.2,0.3,0.4v4.8H383.4
	L383.4,185.2L383.4,185.2z"/>
<path class="st0" d="M399.5,200.9c0,3.4-0.2,3.2,3.2,3.7v1h-9.9v-1c3.3-0.4,3.2-0.2,3.2-3.7v-16.6c0-3.4,0.1-3.2-3.2-3.7v-1h9.9v1
	c-3.3,0.4-3.2,0.2-3.2,3.7V200.9L399.5,200.9L399.5,200.9z"/>
<path class="st0" d="M420.9,200.9c0,3.4-0.1,3.2,3.2,3.7v1h-9.9v-1c3.3-0.4,3.2-0.2,3.2-3.7v-20H414c-3.2,0-3.9,2-5.2,4.5h-0.9
	l1-5.6h20.4l1,5.6h-0.9c-1.2-2.4-2-4.5-5.2-4.5h-3.3V200.9L420.9,200.9L420.9,200.9z"/>
<path class="st0" d="M441,204.5c3.3-0.4,3.2-0.2,3.2-3.7v-5.7l-5.7-11.2c-1.2-2.4-2.2-3.3-3.9-3.3v-1h9.4v1c-2.8,0-2.5,1.4-1.6,3.3
	l4.5,9.3l5.1-9.3c1.3-2.2,0.1-3.3-2.1-3.3v-1h7.6v1c-1,0-2,0.5-3,2.2l-6.2,11.2c-0.4,0.7-0.4,1.8-0.4,2.7v4.1c0,3.4-0.1,3.2,3.2,3.7
	v1H441V204.5L441,204.5L441,204.5z"/>
<path class="st0" d="M474.2,196.7c0-6.3,5.4-15.6,13.4-15.6c6.4,0,7.7,4.3,7.7,8.6c0,5.3-4.2,16.4-13.3,16.4
	C475.8,206.1,474.2,201.1,474.2,196.7L474.2,196.7L474.2,196.7z M490.9,187.3c0-5-3-5.2-3.8-5.2c-5.2,0-8.6,9.3-8.6,15.5
	c0,2.5,0.4,7,4,7C488,204.6,490.9,195.6,490.9,187.3L490.9,187.3L490.9,187.3z"/>
<path class="st0" d="M519.3,182.6l-1.1,1h-6.3c-2.3,11.4-6.2,26.5-8.9,33.8h-2.2l6.8-33.8h-4.5l0.4-2h4.5
	c2.5-10.2,10.9-11.2,13-11.2c1.1,0,3.4,0.2,4.1,0.9l-0.6,3.2l-1.2,0.6c-0.7-1.3-2.2-2.8-4.2-2.8c-2.9,0-5,2-6.2,7.1l-0.5,2.3h7
	L519.3,182.6L519.3,182.6L519.3,182.6z"/>
<path class="st0" d="M548.5,199.5c0,4.4-0.2,4.2,4.1,4.7v1.2h-12.9v-1.2c4.3-0.5,4.1-0.3,4.1-4.7V178c0-4.4,0.2-4.2-4.1-4.7V172
	h12.5c7.9,0,11.9,3.2,11.9,8.9c0,6.9-6.2,10.6-13.5,10.2v-1c6,0.1,8.7-3.5,8.7-8.7c0-5.4-2.6-7.8-7.9-7.8h-2.9V199.5L548.5,199.5
	L548.5,199.5z"/>
<path class="st0" d="M570.7,204.5c3.3-0.4,3.2-0.2,3.2-3.7v-16.6c0-3.4,0.1-3.2-3.2-3.7v-1h16.5v5.9h-1c-0.4-2.7-1.1-4.8-3.8-4.8h-5
	v10.5h3.1c2.3,0,3.3-0.9,3.4-3.2h1v7.9h-1c-0.1-2.2-0.9-3.5-3.4-3.5h-3.1v8.3c0,3.1,1.4,3.4,4.8,3.4c5.3,0,5.1-1.5,6.8-5.5h1
	l-1.1,6.6h-18.1V204.5L570.7,204.5L570.7,204.5z"/>
<path class="st0" d="M619.3,205.5c-5.9-6.9-12-14.2-18-21.3v16.3c0,0.8,0.1,1.4,0.2,2c0.2,1.3,1.4,1.9,3.9,2v1h-9v-1
	c1.8-0.2,3-0.7,3.2-2c0.1-0.6,0.2-1.2,0.2-2v-17.4c-1-1.3-2.2-2.5-4.3-2.5v-1h6.7c5.5,6.7,11.2,13.5,16.7,20.1h0.1v-15.2
	c0-0.8-0.1-1.4-0.2-2c-0.2-1.3-1.4-1.8-3.9-2v-1h9v1c-1.7,0.2-3,0.7-3.2,2c-0.1,0.6-0.2,1.2-0.2,2v20.8H619.3L619.3,205.5
	L619.3,205.5z"/>
<path class="st0" d="M652.3,205.5c-5.9-6.9-11.9-14.2-18-21.3v16.3c0,0.8,0.1,1.4,0.2,2c0.2,1.3,1.4,1.9,3.9,2v1h-9v-1
	c1.8-0.2,3-0.7,3.2-2c0.1-0.6,0.2-1.2,0.2-2v-17.4c-1-1.3-2.2-2.5-4.3-2.5v-1h6.7c5.5,6.7,11.2,13.5,16.7,20.1h0.1v-15.2
	c0-0.8-0.1-1.4-0.2-2c-0.2-1.3-1.4-1.8-3.9-2v-1h9v1c-1.7,0.2-3,0.7-3.2,2c-0.1,0.6-0.2,1.2-0.2,2v20.8H652.3L652.3,205.5
	L652.3,205.5z"/>
<path class="st0" d="M676.3,185.2c-0.3-2.6-1.7-4.6-4.6-4.6c-2.1,0-4.1,1.1-4.1,3.8c0,2.6,2.6,4.1,6.3,6.9c3.9,2.9,5.2,4.8,5.2,7.9
	c0,4.4-4.5,6.8-8.9,6.8c-2.4,0-4.4-0.4-6.3-1.2c-0.1-0.1-0.3-0.2-0.3-0.5v-5.3h1c0.4,4.1,3.1,5.7,5.9,5.7c2.6,0,4.8-2,4.8-4.7
	c0-2.4-1.3-4.4-6.8-8c-2-1.3-4.5-2.8-4.5-6.8c0-3.3,3.7-5.9,7.9-5.9c1.6,0,3.7,0.2,5.2,0.7c0.2,0.1,0.3,0.2,0.3,0.4v4.8H676.3
	L676.3,185.2L676.3,185.2z"/>
<path class="st0" d="M691.2,204.5c3.3-0.4,3.2-0.2,3.2-3.7v-5.7l-5.7-11.2c-1.2-2.4-2.2-3.3-3.9-3.3v-1h9.4v1
	c-2.8,0-2.6,1.4-1.6,3.3l4.5,9.3l5.1-9.3c1.3-2.2,0.1-3.3-2.1-3.3v-1h7.6v1c-1,0-2,0.5-3,2.2l-6.2,11.2c-0.4,0.7-0.4,1.8-0.4,2.7
	v4.1c0,3.4-0.1,3.2,3.2,3.7v1h-9.9V204.5L691.2,204.5L691.2,204.5z"/>
<path class="st0" d="M713.6,204.5c3.3-0.4,3.2-0.2,3.2-3.7v-16.6c0-3.4,0.1-3.2-3.2-3.7v-1h9.9v1c-3.3,0.4-3.2,0.2-3.2,3.7v17.2
	c0,2.6,1.4,2.8,4.7,2.8c5.3,0,5.1-1.5,6.8-5.5h0.9l-1.1,6.6h-18.1V204.5L713.6,204.5L713.6,204.5z"/>
<path class="st0" d="M745.7,180.6c-2,0-3.5,0.6-2.3,4.1c1.4,4.4,3.6,10.7,5.5,16.3c2.4-5.6,4.6-11.3,6.9-17c0.9-2.3,0-3.5-2.5-3.5
	v-1h8v1c-1.1,0-2.3,0.4-3.1,2.2c-3.1,7.6-6.2,15.1-9.3,22.6h-1.9c-2.3-6.4-4.8-13.5-7-19.8c-1.4-3.9-2.5-5.1-4.3-5.1v-1h10V180.6
	L745.7,180.6L745.7,180.6z"/>
<path class="st0" d="M767.3,196.9l-1.7,4.9c-0.5,1.4,0.2,2.7,1.8,2.7v1h-6.7v-1c1,0,2.1-0.6,2.7-1.8c1.6-3.2,5.9-15.3,9-23.5h2.1
	c2.5,7.4,6.3,18.8,7.5,22.1c0.8,2.1,1.4,3.2,3,3.2v1h-8.6v-1c2.3,0,2.5-1.2,2-2.8l-1.6-4.8H767.3L767.3,196.9L767.3,196.9z
	 M776.3,195.5l-3.9-12h-0.1l-4.4,12H776.3L776.3,195.5L776.3,195.5z"/>
<path class="st0" d="M813.4,205.5c-5.9-6.9-12-14.2-18-21.3v16.3c0,0.8,0.1,1.4,0.2,2c0.2,1.3,1.4,1.9,3.9,2v1h-9v-1
	c1.8-0.2,3-0.7,3.2-2c0.1-0.6,0.2-1.2,0.2-2v-17.4c-1-1.3-2.2-2.5-4.3-2.5v-1h6.7c5.5,6.7,11.2,13.5,16.7,20.1h0.1v-15.2
	c0-0.8-0.1-1.4-0.2-2c-0.2-1.3-1.4-1.8-3.9-2v-1h9v1c-1.7,0.2-3,0.7-3.2,2c-0.1,0.6-0.2,1.2-0.2,2v20.8H813.4L813.4,205.5
	L813.4,205.5z"/>
<path class="st0" d="M830.8,200.9c0,3.4-0.1,3.2,3.2,3.7v1h-9.9v-1c3.3-0.4,3.2-0.2,3.2-3.7v-16.6c0-3.4,0.1-3.2-3.2-3.7v-1h9.9v1
	c-3.3,0.4-3.2,0.2-3.2,3.7V200.9L830.8,200.9L830.8,200.9z"/>
<path class="st0" d="M846.2,196.9l-1.7,4.9c-0.5,1.4,0.2,2.7,1.8,2.7v1h-6.7v-1c1,0,2.1-0.6,2.7-1.8c1.6-3.2,5.9-15.3,9-23.5h2.1
	c2.5,7.4,6.3,18.8,7.5,22.1c0.8,2.1,1.4,3.2,3,3.2v1h-8.6v-1c2.3,0,2.5-1.2,1.9-2.8l-1.6-4.8H846.2L846.2,196.9L846.2,196.9z
	 M855.2,195.5l-3.9-12h-0.1l-4.4,12H855.2L855.2,195.5L855.2,195.5z"/>
<path class="st1" d="M178.9,4.9H0c0,0,0,88.7,0,89.2c-0.1,38.8,21.4,66.9,39.5,83.7c19.9,18.4,41.8,29,49.1,30.6l0.9,0.2l0.9-0.2
	c7.3-1.6,29.2-12.2,49.1-30.6c18.1-16.7,39.6-44.9,39.5-83.7C178.9,93,178.9,4.9,178.9,4.9L178.9,4.9z"/>
<path class="st2" d="M167.9,42.3L167.9,42.3c0.3,0.2,0.5,0.4,0.7,0.7c0.2,0.3,0.3,0.7,0.3,1c0,0.4-0.1,0.7-0.3,1
	c-0.2,0.3-0.5,0.5-0.7,0.7c-0.4,0.3-0.8,0.6-0.8,1.1V50l-18.8,0l-18.8,0v-3.2c0-0.5-0.4-0.8-0.8-1.1c-0.3-0.2-0.5-0.4-0.7-0.7
	c-0.2-0.3-0.3-0.7-0.3-1c0-0.4,0.1-0.7,0.3-1c0.2-0.3,0.5-0.5,0.7-0.7c0.4-0.3,0.8-0.6,0.8-1.1V30.7c0-0.5-0.4-0.8-0.8-1.1
	c-0.3-0.2-0.5-0.4-0.7-0.7c-0.2-0.3-0.3-0.7-0.3-1c0-0.4,0.1-0.7,0.3-1c0.2-0.3,0.5-0.5,0.7-0.7c0.4-0.3,0.8-0.6,0.8-1.1v-3.3h0.5
	c2.2,0,4.1,0,5.5-0.6c0.5-0.2,1.1-0.6,1.6-0.9c1.1-0.7,2.5-1.5,4.4-1.5c1.6,0,3,0.6,4.3,1.1c0.9,0.4,1.8,0.7,2.4,0.7h0.3
	c0.6,0,1.5-0.3,2.4-0.7c1.3-0.5,2.7-1.1,4.3-1.1c1.9,0,3.3,0.8,4.4,1.5c0.5,0.3,1,0.7,1.6,0.9c1.3,0.6,3.3,0.6,5.5,0.6h0.5V25
	c0,0.5,0.4,0.8,0.8,1.1c0.2,0.2,0.5,0.4,0.7,0.7c0.2,0.3,0.3,0.7,0.3,1c0,0.4-0.1,0.7-0.3,1c-0.2,0.3-0.5,0.5-0.7,0.7
	c-0.4,0.3-0.8,0.6-0.8,1.1v10.4C167.1,41.6,167.5,41.9,167.9,42.3L167.9,42.3z M121.9,47.7c-2.9,4.6-8.5,5.8-8.7,5.8
	c-1.1,0.2-2.2,0.3-3.4,0.3h0c-5.8,0-11.2-2.5-16.7-5.4c-0.6-0.3-1.3-0.7-2-1.1c-3.5-1.9-8.4-4.6-12.5-4.6c-1.2,0-2.3,0.2-3.4,0.8
	L75,43.6l0,0.2c0,0.5-0.1,1.1-0.3,1.5c-0.7,1.8-2.8,3.6-3.9,4.4c-2.4,1.7-5.4,3.5-9,3.5c-0.6,0-1.1-0.1-1.5-0.2
	c-0.7-0.2-1.2-0.6-1.6-1.2c-0.2-0.3-0.4-0.6-0.5-0.9c-0.1-0.3-0.2-0.5-0.2-0.8l0-0.2l-0.2-0.1c-1.4-0.4-2.3-1.4-2.3-2.5
	c0-0.9,0.6-1.6,1.2-2.3c1-1.1,1.8-2.1,0.4-3.4c-0.1-0.1-0.3-0.2-0.4-0.3c-0.2-0.1-0.4-0.3-0.5-0.5c-1.2-1.3-0.5-3.9-0.1-5.5l0-0.2
	c0.5-1.7,1.1-3.5,2.1-5.4c1.3-2.6,2.9-5.6,5.1-7.4c0,0,0.1-0.1,0.2,0c0.1,0,0.1,0,0.1,0.1c0,0.1,0.3,0.4,0.6,1l0.4,0.6l0.2-0.7
	c0.6-1.9,1.6-3.1,3-3.6c1.5-0.5,2.9,0.2,3.6,0.7l0.3,0.2l0.2-0.3c0.4-0.7,1.3-1.6,2.7-1.7c1.5-0.1,2.8,1,3.4,1.6l0.2,0.2l0.2-0.2
	c0.7-0.6,2.4-1.9,4.2-1.6c1.7,0.2,2.3,1.7,2.5,2.3l0.1,0.4l0.4-0.2c0.8-0.4,2.3-0.9,3.8,0c0.9,0.6,1,1.6,1,2.3l0,0.4l0.4-0.1
	c1.1-0.2,3.1-0.3,4.3,0.9c0.9,1,1,2.2,0.9,3.1l-0.1,0.4l0.4-0.1c1-0.1,2.2,0,2.9,1.1c0.5,0.7,0.3,1.8,0.1,2.3L99.3,32l0.3,0.1
	c0.6,0.1,1.5,0.5,1.8,1.3c0.2,0.6,0.1,1.6-0.2,2.7l-0.1,0.3l0.3,0.1c0.5,0.2,1.4,0.7,1.8,1.6c0.5,0.9,0.4,2.1-0.1,3.4l-0.1,0.2
	l0.2,0.2c1.2,1.1,2.5,2.1,3.7,3c2.5,1.8,6.4,2.8,9,0.6c1-0.8,1.4-2.3,1.1-3.7c-0.3-1.2-1.1-2.1-2.3-2.4c-2-0.4-3.6,1.5-4.9,3.4
	c0,0.1-0.1,0.1-0.2,0.1c-0.1,0-0.1-0.1-0.2-0.1c-1.2-2.8-1.2-5.2-0.2-7c0.9-1.5,2.7-2.6,4.8-2.9l0.3,0l0-0.3c0-3.4,0.8-5.8,2.4-7.3
	c1-0.9,2.8-1.9,5.8-1.5c0.1,0,0.1,0,0.1,0.1c0,0.1,0,0.1,0,0.2c-2.2,5.4-1.7,7.4-0.5,11.8c0.1,0.4,0.2,0.8,0.3,1.2l0,0
	C124,41.2,123.7,44.8,121.9,47.7L121.9,47.7z M50.1,42.3L50.1,42.3c0.3,0.2,0.5,0.4,0.7,0.7c0.2,0.3,0.3,0.7,0.3,1
	c0,0.4-0.1,0.7-0.3,1c-0.2,0.3-0.5,0.5-0.7,0.7c-0.4,0.3-0.8,0.6-0.8,1.1V50l-18.8,0l-18.8,0v-3.2c0-0.5-0.4-0.8-0.8-1.1
	c-0.3-0.2-0.5-0.4-0.7-0.7c-0.2-0.3-0.3-0.7-0.3-1c0-0.4,0.1-0.7,0.3-1c0.2-0.3,0.5-0.5,0.7-0.7c0.4-0.3,0.8-0.6,0.8-1.1V30.7
	c0-0.5-0.4-0.8-0.8-1.1c-0.3-0.2-0.5-0.4-0.7-0.7c-0.2-0.3-0.3-0.7-0.3-1c0-0.4,0.1-0.7,0.3-1c0.2-0.3,0.5-0.5,0.7-0.7
	c0.4-0.3,0.8-0.6,0.8-1.1v-3.3h0.5c2.2,0,4.1,0,5.5-0.6c0.5-0.2,1.1-0.6,1.6-0.9c1.1-0.7,2.5-1.5,4.4-1.5c1.6,0,3,0.6,4.3,1.1
	c0.9,0.4,1.8,0.7,2.4,0.7h0.3c0.6,0,1.5-0.3,2.4-0.7c1.3-0.5,2.7-1.1,4.3-1.1c1.9,0,3.3,0.8,4.4,1.5c0.5,0.3,1,0.7,1.6,0.9
	c1.3,0.6,3.3,0.6,5.5,0.6h0.5V25c0,0.5,0.4,0.8,0.8,1.1c0.2,0.2,0.5,0.4,0.7,0.7c0.2,0.3,0.3,0.7,0.3,1c0,0.4-0.1,0.7-0.3,1
	c-0.2,0.3-0.5,0.5-0.7,0.7c-0.4,0.3-0.8,0.6-0.8,1.1v10.4C49.3,41.6,49.7,41.9,50.1,42.3L50.1,42.3z M4.5,9.6c0,0,0.2,51.8,0,51.6
	l169.9,0c0-24.3,0-51.6,0-51.6H4.5L4.5,9.6z"/>
<path class="st0" d="M63,40c0.6,0,1.2,0.2,1.7,0.6c0.2,0.2,0.4,0.3,0.5,0.4c0.4,0.4,0.4,1-0.1,1.3c-0.4,0.3-0.9,0.7-1.2,0.9
	c-0.7,0.5-1.9,1.3-2.7,0.7c-0.4-0.3,0.4-0.9,0-2.3C61.1,40.5,62.2,40,63,40L63,40z"/>
<path class="st0" d="M63.3,23.3c-1.9,1.8-3.3,4.4-4.5,6.8c-0.9,1.9-1.6,3.6-2.1,5.3l0,0.2c-0.3,1.2-1,3.8-0.1,4.8
	c0.1,0.1,0.3,0.2,0.4,0.4c0.2,0.1,0.3,0.2,0.5,0.4c1.9,1.8,0.6,3.3-0.4,4.4c-0.5,0.7-1.1,1.3-1.1,1.8c0,1.3,1.6,1.8,2.1,1.9
	c0.2,0.1,0.4,0.2,0.4,0.5c0,0.4,0.1,0.7,0.2,1c0.1,0.3,0.2,0.5,0.4,0.7c0.3,0.4,0.8,0.7,1.3,0.9c0.4,0.1,0.8,0.2,1.3,0.2
	c3.5,0,6.3-1.7,8.6-3.4c1.4-1,3.1-2.7,3.6-4c0.1-0.4,0.2-0.7,0.2-1.1l-2.4-0.4c0,0,0,0-0.1,0c-0.3-0.1-0.4-0.3-0.5-0.5
	c-0.1-0.5,0.4-0.8,1.2-1.4c0.3-0.2,0.5-0.4,0.8-0.5c1.3-0.9,2.3-1.7,2.9-2.1c-0.7-0.8-1.2-1.6-1.7-2.3c-0.4-0.6-0.7-1-1-1.3
	c-1.2-1.3-3.3-2.1-5.1-1c-0.7,0.4-1.3,1-2,1.5c-0.5,0.5-1.1,0.9-1.7,1.4c-0.2,0.2-0.5,0.1-0.7-0.1c-0.2-0.2-0.2-0.5,0-0.7
	c0.1-0.1,0.2-0.2,0.3-0.3c0.8-0.7,2.6-2.5,2.6-3.7C67,29.5,64.3,24.9,63.3,23.3L63.3,23.3z M78.5,42c4.2,0,9.1,2.6,12.8,4.7
	c0.7,0.4,1.4,0.8,2,1.1c6.4,3.3,12.8,6.2,19.6,5c0,0,5.5-1.1,8.2-5.5c1.7-2.7,2-6.1,0.9-10c-0.1-0.4-0.2-0.8-0.3-1.2
	c-1.1-4.1-1.8-6.5,0.2-11.6c-2.3-0.1-3.7,0.6-4.5,1.3c-1.5,1.4-2.2,3.8-2.1,7.2c0,0.3-0.2,0.5-0.5,0.6c-2.1,0.2-3.9,1.2-4.7,2.6
	c-0.8,1.4-0.9,3.2-0.1,5.4c1-1.4,2.8-3.3,5.1-2.8c1.4,0.3,2.5,1.4,2.8,2.9c0.4,1.7-0.1,3.5-1.4,4.5c-3,2.4-7.2,1.4-9.9-0.6
	c-3.2-2.3-6.4-5.3-9.7-9.1c-0.6-0.7-1.2-1.3-1.7-2c-2.1-2.4-4.3-5-6.9-7c-4.1-3.1-8.9-3.6-12.2-3.5c-2.3,0.1-6.8,0.7-9.8,2.6
	c0.9,1.9,1.8,4.2,1.8,5.9c0,0.3-0.1,0.6-0.2,0.9c2.2-1.3,4.8-0.4,6.3,1.2c0.3,0.4,0.7,0.9,1.1,1.5c0.6,0.9,1.2,1.9,2,2.6
	c0.1,0.1,0.2,0.3,0.2,0.4c0,0.2-0.1,0.3-0.2,0.4c0,0-1.4,1-3.4,2.5c-0.3,0.2-0.5,0.4-0.8,0.6c0,0-0.1,0.1-0.1,0.1l1.7,0.3
	C75.9,42.2,77.2,42,78.5,42L78.5,42z M109.8,54.1c-5.9,0-11.3-2.5-16.9-5.4c-0.6-0.3-1.3-0.7-2-1.1c-4.5-2.4-11.2-6.1-15.6-3.8
	c0,0.6-0.1,1.1-0.3,1.6c-0.7,1.8-2.9,3.8-4,4.5c-2.4,1.8-5.5,3.6-9.2,3.6c-0.6,0-1.1-0.1-1.6-0.3c-0.7-0.2-1.3-0.7-1.8-1.3
	c-0.2-0.3-0.4-0.6-0.6-1c-0.1-0.3-0.2-0.6-0.2-0.9C56,49.7,55,48.6,55,47.3c0-1,0.7-1.8,1.3-2.5c1.1-1.3,1.5-1.9,0.5-2.9
	c-0.1-0.1-0.2-0.2-0.4-0.3c-0.2-0.1-0.4-0.3-0.6-0.5c-1.3-1.4-0.6-4.1-0.1-5.8l0-0.2c0.5-1.7,1.2-3.5,2.1-5.5
	c1.3-2.7,2.9-5.6,5.2-7.5c0.1-0.1,0.3-0.1,0.4-0.1c0.2,0,0.3,0.1,0.4,0.2c0.1,0.1,1,1.5,1.9,3.4c4-2.4,9.6-2.6,10.3-2.7
	c3.5-0.1,8.6,0.4,12.9,3.8c2.7,2.1,4.9,4.6,7,7.1c0.6,0.6,1.1,1.3,1.7,2c3.3,3.7,6.4,6.6,9.6,8.9c2.4,1.7,6.1,2.7,8.6,0.6
	c0.9-0.7,1.3-2.1,1-3.4c-0.3-1.1-1-1.9-2-2.1c-1.8-0.4-3.3,1.4-4.5,3.2c-0.1,0.2-0.3,0.3-0.5,0.2c-0.2,0-0.4-0.1-0.4-0.3
	c-1.2-2.9-1.3-5.4-0.2-7.3c1-1.6,2.8-2.8,5-3.1c0-3.5,0.8-6,2.5-7.5c1-0.9,2.9-2,6.1-1.5c0.2,0,0.3,0.1,0.4,0.3
	c0.1,0.1,0.1,0.3,0,0.5c-2.2,5.3-1.6,7.2-0.5,11.6c0.1,0.4,0.2,0.8,0.3,1.2c1.1,4.3,0.8,7.9-1.1,10.9c-3,4.8-8.7,5.9-9,6
	C112,54,110.9,54.1,109.8,54.1L109.8,54.1z"/>
<path class="st0" d="M59.7,50.4c-0.5,0-1,0-1.6-0.1c-0.3,0-0.5-0.3-0.5-0.6c0-0.3,0.3-0.5,0.6-0.5c2.5,0.3,6,0,9.2-3.3
	c0.2-0.2,0.5-0.2,0.8,0c0.2,0.2,0.2,0.5,0,0.8C65.8,49.1,62.9,50.4,59.7,50.4L59.7,50.4z"/>
<path class="st0" d="M103,42.3c-0.1,0-0.1,0-0.2,0c-0.3-0.1-0.4-0.4-0.3-0.7c0.6-1.3,0.6-2.4,0.2-3.2c-0.6-1.1-1.9-1.4-1.9-1.4
	c-0.1,0-0.3-0.1-0.3-0.3c-0.1-0.1-0.1-0.3,0-0.4c0.2-0.5,0.6-2,0.3-2.7c-0.2-0.6-1.4-0.9-1.8-0.9c-0.2,0-0.3-0.1-0.4-0.2
	c-0.1-0.1-0.1-0.3,0-0.5c0.2-0.4,0.5-1.6,0.1-2.2c-0.8-1.2-2.9-0.6-2.9-0.6c-0.2,0.1-0.4,0-0.5-0.1c-0.1-0.1-0.2-0.3-0.1-0.5
	c0,0,0.6-1.9-0.6-3.1c-1.4-1.4-4.3-0.6-4.4-0.6c-0.2,0.1-0.4,0-0.5-0.1c-0.1-0.1-0.2-0.3-0.1-0.5c0-0.1,0.5-1.6-0.5-2.3
	c-1.7-1.1-3.6,0.3-3.6,0.3c-0.1,0.1-0.3,0.1-0.5,0.1c-0.2-0.1-0.3-0.2-0.3-0.4c0-0.1-0.3-2.1-2.1-2.4c-2-0.3-4,1.7-4,1.8
	c-0.1,0.1-0.2,0.2-0.4,0.1c-0.1,0-0.3-0.1-0.4-0.2c0,0-1.4-1.8-3.1-1.7c-1.7,0.1-2.3,1.8-2.3,1.8c-0.1,0.2-0.2,0.3-0.4,0.3
	c-0.2,0-0.3,0-0.5-0.1c0,0-1.7-1.6-3.4-1c-2.1,0.8-2.7,3.4-2.9,4.3l0,0c-0.1,0.3-0.3,0.4-0.6,0.4c-0.3-0.1-0.4-0.3-0.4-0.6l0,0
	c0.2-1,0.9-4,3.6-5c1.6-0.6,3.1,0.2,3.9,0.8c0.4-0.7,1.3-1.8,2.9-1.8c1.7-0.1,3,1.1,3.6,1.7c0.8-0.7,2.6-1.9,4.5-1.7
	c1.6,0.2,2.5,1.5,2.8,2.5c0.9-0.4,2.5-1,4.1,0c1.1,0.7,1.2,1.9,1.1,2.7c1.1-0.2,3.3-0.3,4.6,1c1.1,1.1,1.1,2.5,1,3.3
	c0.9-0.1,2.4-0.1,3.3,1.2c0.5,0.8,0.4,1.9,0.2,2.6c0.7,0.2,1.7,0.6,2.1,1.5c0.3,0.9,0,2.2-0.2,2.9c0.6,0.2,1.5,0.8,2,1.8
	c0.6,1.1,0.5,2.5-0.2,4.1C103.3,42.2,103.2,42.3,103,42.3L103,42.3z"/>
<path class="st0" d="M100.4,49.3C100.4,49.3,100.4,49.3,100.4,49.3c-0.3,0-0.5-0.3-0.5-0.6c0.2-1.9-0.9-2.3-1.9-2.6
	c-0.3-0.1-0.5-0.2-0.7-0.3c-0.5-0.3-0.6-1-0.6-1.6c0-0.7,0-1.5-0.6-2.1c-0.9-1-2.8-0.4-2.8-0.4c-0.2,0.1-0.4,0-0.5-0.1
	c-0.1-0.1-0.2-0.3-0.2-0.5c0,0,0.3-2.1-0.9-3.1c-1-0.8-2.9-0.6-3.5-0.5c-0.2,0-0.3,0-0.4-0.1c-0.1-0.1-0.2-0.3-0.2-0.4
	c0.1-1.3-0.4-2.3-1.4-3c-0.8-0.5-1.8-0.6-2.6-0.2c-2.1,1.1-2.9,1.2-5.2-0.4c-0.7-0.5-1.4-0.7-2.1-0.5c-0.8,0.2-1.6,1-2.2,2.1
	c-0.1,0.2-0.4,0.4-0.7,0.2c-0.2-0.1-0.4-0.4-0.2-0.7c0.7-1.4,1.7-2.4,2.9-2.7c1-0.2,2,0,2.9,0.6c1.9,1.3,2.3,1.3,4.1,0.3
	c1.1-0.6,2.5-0.5,3.6,0.2c1.1,0.7,1.8,1.9,1.8,3.3c0.9-0.1,2.6-0.2,3.8,0.8c1.1,0.9,1.3,2.4,1.3,3.2c0.8-0.2,2.3-0.2,3.2,0.8
	c0.8,0.9,0.8,2,0.9,2.8c0,0.3,0,0.7,0.1,0.8c0.1,0,0.3,0.1,0.5,0.2c1,0.3,2.9,0.9,2.6,3.7C100.9,49.1,100.7,49.3,100.4,49.3
	L100.4,49.3z"/>
<path class="st0" d="M50.4,44c0,0.2-0.1,0.4-0.2,0.6c-0.1,0.2-0.3,0.4-0.6,0.5c-0.5,0.4-1.1,0.8-1.1,1.7v2.3h-18h0h-18v-2.3
	c0-0.9-0.6-1.3-1.1-1.7c-0.2-0.2-0.4-0.3-0.6-0.5c-0.1-0.2-0.2-0.4-0.2-0.6l0,0l0,0c0-0.2,0.1-0.4,0.2-0.6c0.1-0.2,0.3-0.4,0.6-0.5
	c0.5-0.4,1.1-0.8,1.1-1.7V30.7c0-0.9-0.6-1.3-1.1-1.7c-0.2-0.2-0.4-0.3-0.6-0.5c-0.1-0.2-0.2-0.4-0.2-0.6l0,0l0,0
	c0-0.2,0.1-0.4,0.2-0.6c0.1-0.2,0.3-0.4,0.6-0.5c0.5-0.4,1.1-0.8,1.1-1.7v-2.4c0,0,0,0,0.1,0c0.9,0,1.9,0,2.7-0.1v23.8h13.1
	c0.2,0.9,1.1,1.6,2.1,1.6c1,0,1.9-0.7,2.1-1.6h13.1l0,0V22.5c0.9,0.1,1.8,0.1,2.7,0.1c0,0,0.1,0,0.1,0V25c0,0.9,0.6,1.3,1.1,1.7
	c0.2,0.2,0.4,0.3,0.6,0.5c0.1,0.2,0.2,0.4,0.2,0.6v0v0c0,0.2-0.1,0.4-0.2,0.6c-0.1,0.2-0.3,0.4-0.6,0.5c-0.5,0.4-1.1,0.8-1.1,1.7
	v10.4c0,0.9,0.6,1.3,1.1,1.7c0.2,0.2,0.4,0.3,0.6,0.5C50.4,43.5,50.4,43.7,50.4,44L50.4,44L50.4,44L50.4,44z M18.1,21.9
	c0.6-0.3,1.2-0.6,1.7-1c1.2-0.7,2.2-1.4,3.9-1.4c1.4,0,2.8,0.6,4,1c0.8,0.3,1.6,0.6,2.3,0.7v20.8c0,0-0.1,0-0.1,0
	c-1,0.1-2.4,0.5-4.1,1.1c-0.5,0.2-1.1,0.3-1.6,0.5c-1.6,0.5-3.2,0.5-4.8,0.5c-1,0-2,0-2.9,0.1v-22C17.1,22.3,17.6,22.1,18.1,21.9
	L18.1,21.9z M33.4,20.6c1.2-0.5,2.6-1,4-1c1.7,0,2.8,0.7,3.9,1.4c0.5,0.3,1.1,0.7,1.7,1c0.5,0.2,1,0.4,1.6,0.5v22
	c-0.9-0.1-1.9-0.1-2.9-0.1c-1.6,0-3.2,0-4.8-0.5c-0.5-0.2-1.1-0.3-1.6-0.5c-1.6-0.5-3.1-1-4.1-1.1c0,0,0,0-0.1,0V21.3
	C31.9,21.2,32.6,20.9,33.4,20.6L33.4,20.6z M50.3,42c-0.4-0.3-0.7-0.5-0.7-0.9V30.7c0-0.3,0.2-0.5,0.7-0.9c0.3-0.2,0.6-0.4,0.8-0.8
	c0.2-0.4,0.4-0.8,0.4-1.2c0-0.4-0.1-0.9-0.4-1.2c-0.2-0.3-0.5-0.6-0.8-0.8c-0.4-0.3-0.7-0.5-0.7-0.9v-3.6h-0.8l0,0
	c-1.9,0-4,0-5.3-0.6c-0.5-0.2-1-0.5-1.5-0.9c-1.2-0.7-2.5-1.6-4.6-1.6c-1.6,0-3.1,0.6-4.4,1.1c-0.9,0.4-1.7,0.7-2.3,0.7h-0.1l0,0h0
	l0,0h-0.1c-0.6,0-1.4-0.3-2.3-0.7c-1.3-0.5-2.8-1.1-4.4-1.1c-2,0-3.4,0.8-4.6,1.6c-0.5,0.3-1,0.6-1.5,0.9c-1.3,0.6-3.4,0.6-5.3,0.6
	l0,0h-0.8V25c0,0.3-0.2,0.5-0.7,0.9c-0.3,0.2-0.6,0.4-0.8,0.8c-0.2,0.4-0.4,0.8-0.4,1.2c0,0.4,0.1,0.9,0.4,1.2
	c0.2,0.3,0.5,0.6,0.8,0.8c0.4,0.3,0.7,0.5,0.7,0.9v10.4c0,0.3-0.2,0.5-0.7,0.9c-0.3,0.2-0.6,0.4-0.8,0.8c-0.2,0.4-0.4,0.8-0.4,1.2
	c0,0.4,0.1,0.9,0.4,1.2c0.2,0.3,0.5,0.6,0.8,0.8c0.4,0.3,0.7,0.5,0.7,0.9v3.5l0,0h0v0l19.1,0l19.1,0v0h0l0,0v-3.5
	c0-0.3,0.2-0.5,0.7-0.9c0.3-0.2,0.6-0.4,0.8-0.8c0.2-0.4,0.4-0.8,0.4-1.2c0-0.4-0.1-0.9-0.4-1.2C50.9,42.4,50.6,42.2,50.3,42
	L50.3,42z"/>
<path class="st0" d="M168.2,44c0,0.2-0.1,0.4-0.2,0.6c-0.1,0.2-0.3,0.4-0.6,0.5c-0.5,0.4-1.1,0.8-1.1,1.7v2.3h-18h0h-18v-2.3
	c0-0.9-0.6-1.3-1.1-1.7c-0.2-0.2-0.4-0.3-0.6-0.5c-0.1-0.2-0.2-0.4-0.2-0.6v0v0c0-0.2,0.1-0.4,0.2-0.6c0.1-0.2,0.3-0.4,0.6-0.5
	c0.5-0.4,1.1-0.8,1.1-1.7V30.7c0-0.9-0.6-1.3-1.1-1.7c-0.2-0.2-0.4-0.3-0.6-0.5c-0.1-0.2-0.2-0.4-0.2-0.6v0v0c0-0.2,0.1-0.4,0.2-0.6
	c0.1-0.2,0.3-0.4,0.6-0.5c0.5-0.4,1.1-0.8,1.1-1.7v-2.4c0,0,0,0,0.1,0c0.9,0,1.9,0,2.7-0.1v23.8h13.1c0.2,0.9,1.1,1.6,2.1,1.6
	c1,0,1.9-0.7,2.1-1.6h13.1l0,0V22.5c0.9,0.1,1.8,0.1,2.7,0.1c0,0,0.1,0,0.1,0V25c0,0.9,0.6,1.3,1.1,1.7c0.2,0.2,0.4,0.3,0.6,0.5
	c0.1,0.2,0.2,0.4,0.2,0.6v0v0c0,0.2-0.1,0.4-0.2,0.6c-0.1,0.2-0.3,0.4-0.6,0.5c-0.5,0.4-1.1,0.8-1.1,1.7v10.4c0,0.9,0.6,1.3,1.1,1.7
	c0.2,0.2,0.4,0.3,0.6,0.5C168.1,43.5,168.2,43.7,168.2,44L168.2,44L168.2,44L168.2,44z M135.8,21.9c0.6-0.3,1.2-0.6,1.7-1
	c1.2-0.7,2.2-1.4,3.9-1.4c1.4,0,2.8,0.6,4,1c0.8,0.3,1.6,0.6,2.3,0.7v20.8c0,0-0.1,0-0.1,0c-1,0.1-2.4,0.5-4.1,1.1
	c-0.5,0.2-1.1,0.3-1.6,0.5c-1.6,0.5-3.2,0.5-4.8,0.5c-1,0-2,0-2.9,0.1v-22C134.8,22.3,135.3,22.1,135.8,21.9L135.8,21.9z
	 M151.2,20.6c1.2-0.5,2.6-1,4-1c1.7,0,2.8,0.7,3.9,1.4c0.5,0.3,1.1,0.7,1.7,1c0.5,0.2,1,0.4,1.6,0.5v22c-0.9-0.1-1.9-0.1-2.9-0.1
	c-1.6,0-3.2,0-4.8-0.5c-0.5-0.2-1.1-0.3-1.6-0.5c-1.6-0.5-3.1-1-4.1-1.1c0,0,0,0-0.1,0V21.3C149.6,21.2,150.4,20.9,151.2,20.6
	L151.2,20.6z M168.1,42c-0.4-0.3-0.7-0.5-0.7-0.9V30.7c0-0.3,0.2-0.5,0.7-0.9c0.3-0.2,0.6-0.4,0.8-0.8c0.2-0.4,0.4-0.8,0.4-1.2
	c0-0.4-0.1-0.9-0.4-1.2c-0.2-0.3-0.5-0.6-0.8-0.8c-0.4-0.3-0.7-0.5-0.7-0.9v-3.6h-0.8l0,0c-1.9,0-4,0-5.3-0.6
	c-0.5-0.2-1-0.5-1.5-0.9c-1.2-0.7-2.5-1.6-4.6-1.6c-1.6,0-3.1,0.6-4.4,1.1c-0.9,0.4-1.7,0.7-2.3,0.7h-0.1l0,0h0l0,0h-0.1
	c-0.6,0-1.4-0.3-2.3-0.7c-1.3-0.5-2.8-1.1-4.4-1.1c-2,0-3.4,0.8-4.6,1.6c-0.5,0.3-1,0.6-1.5,0.9c-1.3,0.6-3.4,0.6-5.3,0.6l0,0h-0.8
	V25c0,0.3-0.2,0.5-0.7,0.9c-0.3,0.2-0.6,0.4-0.8,0.8c-0.2,0.4-0.4,0.8-0.4,1.2c0,0.4,0.1,0.9,0.4,1.2c0.2,0.3,0.5,0.6,0.8,0.8
	c0.4,0.3,0.7,0.5,0.7,0.9v10.4c0,0.3-0.2,0.5-0.7,0.9c-0.3,0.2-0.6,0.4-0.8,0.8c-0.2,0.4-0.4,0.8-0.4,1.2c0,0.4,0.1,0.9,0.4,1.2
	c0.2,0.3,0.5,0.6,0.8,0.8c0.4,0.3,0.7,0.5,0.7,0.9v3.5l0,0h0v0l19.1,0l19.1,0v0h0l0,0v-3.5c0-0.3,0.2-0.5,0.7-0.9
	c0.3-0.2,0.6-0.4,0.8-0.8c0.2-0.4,0.4-0.8,0.4-1.2c0-0.4-0.1-0.9-0.4-1.2C168.7,42.4,168.3,42.2,168.1,42L168.1,42z"/>
<path class="st0" d="M163.6,136.2L89.4,64.7l-74.1,71.5C9.6,124.1,5.7,110,5.8,94.1c0-0.5,0-14.9,0-31.7h167.3c0,16.8,0,31.2,0,31.7
	C173.1,110,169.3,124.1,163.6,136.2L163.6,136.2z M139.9,143.6c-5.8,5.8-15.1,5.8-20.8,0c-5.8-5.8-5.8-15.1,0-20.8
	c5.8-5.8,15.1-5.8,20.8,0C145.7,128.5,145.7,137.9,139.9,143.6L139.9,143.6z M74.7,96.6c0-8.1,6.6-14.7,14.7-14.7
	c8.1,0,14.7,6.6,14.7,14.7c0,8.1-6.6,14.7-14.7,14.7C81.3,111.4,74.7,104.8,74.7,96.6L74.7,96.6z M135.5,173.5
	c-19.9,18.5-40.5,27.7-46,29.1c-5.5-1.4-26.1-10.7-46-29.1c-0.5-0.4-1-0.9-1.5-1.4l47.5-50.4l47.5,50.4
	C136.5,172.6,136,173.1,135.5,173.5L135.5,173.5z M39,143.6c-5.8-5.8-5.8-15.1,0-20.8c5.8-5.8,15.1-5.8,20.8,0
	c5.8,5.8,5.8,15.1,0,20.8C54.1,149.4,44.7,149.4,39,143.6L39,143.6z M173.1,10.7c0,5.5,0,28.7,0,49.3H5.8c0-20.6,0-43.8,0-49.3
	H173.1L173.1,10.7z M175.5,8.3H3.4c0,0,0,84.7,0,85.8c-0.1,37.6,20.8,64.9,38.4,81.2c19.2,17.8,40.7,28.3,47.5,29.8l0.2,0l0.2,0
	c6.8-1.5,28.3-12,47.5-29.8c17.6-16.3,38.5-43.6,38.4-81.2C175.5,93,175.5,8.3,175.5,8.3L175.5,8.3z"/>
<path class="st0" d="M525.6,126.6V98.9c-9,3.9-32.1,9.5-32.1,21.6c0,8,6,14.6,14.4,14.6C515.4,135,519.8,130.9,525.6,126.6
	L525.6,126.6L525.6,126.6L525.6,126.6z M525.8,94.1V72.9c0-7.8-5-9.8-12.4-9.8c-7.2,0-17.5,4.8-17.5,9.1c0,1.2,0.5,2.6,0.5,4.5
	c0,7.4-1.9,12.4-10.4,12.4c-3.6,0-6-3.5-6-6.6c0-4.3,3-8.4,7.2-11.9c9-7.4,23.3-13.4,35.1-13.4c12.2,0,18.7,7.2,18.7,18.9v52.1
	c0,3.3,0,9.1,4.6,9.1c3.2,0,5-4.1,5.6-6.6h3.2c-1,9.3-5,14.8-14.5,14.8c-7.4,0-13.6-6.6-13.8-13.4c-9.4,6.8-15.7,13.4-28.1,13.4
	c-9.2,0-17.7-7.2-17.7-16.5C480.2,107.5,509.7,100.9,525.8,94.1L525.8,94.1L525.8,94.1L525.8,94.1z"/>
<path class="st0" d="M699,101.2c0,15,5.6,39.7,25.1,39.7c18.9,0,25.5-19.7,25.5-35c0-16.5-2.4-44.8-25.3-44.8
	C704.8,61.1,699,86.6,699,101.2L699,101.2L699,101.2L699,101.2z M682.1,100.4c0-23.5,16.9-43.6,41.7-43.6
	c26.1,0,42.9,19.6,42.9,44.3c0,25.3-16.4,44-42.7,44C697.2,145.1,682.1,125.1,682.1,100.4L682.1,100.4L682.1,100.4L682.1,100.4z"/>
<path class="st0" d="M197.6,13V8.4h45.3V13c-8.4,0.2-11.6,0.2-11.6,5.2c0,0.2,0.1,1.5,0.9,3.5l27.3,92.8L298.1,4h3.2l33.5,109.1
	c0,0,26.5-79.7,26.5-91c0-8.9-5.6-8.3-12.8-9.1V8.4l27.8,0c12.2,0,24.7-4.2,31.8-8.4v70.5c8.6-7.7,15.9-13.8,28.3-13.8
	c9.2,0,17.7,4.1,22.3,11.9c4.2,6.8,5,13.2,5,20.8v39.1c0,10.1,2.6,10.1,11.4,10.7v3.7h-37.9v-3.7c8.2-0.6,10.8-0.6,10.8-10.7V89.4
	c0-6.2,0-8.9-2.8-14.8c-3.2-5.6-8.9-11.1-16.1-9.9c-11,1.8-15.2,6.9-20.9,12.4v51.4c0,10.1,2.6,10.1,11,10.7v3.7h-38.3v-3.7
	c9-0.6,11.6-0.6,11.6-10.7V14.2c0.2-0.2-3.1,0-7.2,0c-15.3,1-15.7,12.6-20.6,26.5l-34.4,104.6h-3.6L292.7,40.5l-39.3,104.9h-3.4
	L213.8,30.2c-2.2-6-3.2-11.1-6.4-14.4C205.7,14.1,205.6,12.9,197.6,13L197.6,13L197.6,13L197.6,13z"/>
<path class="st0" d="M806.7,143v-3.7c-8.6-0.6-11.2-0.6-11.2-10.7V82.5c0-9,12-17.1,20.5-17.1c13,0,19.9,8.2,19.9,20.4v42.8
	c0,10.1-2.6,10.1-11.6,10.7v3.7h39.5v-3.7c-6.8-0.6-12.2-0.6-12.2-10.7V82.5c0-14.6-14.7-25.7-29.1-25.7c-12.6,0-18.9,5.8-27.1,14
	v-14c-8.6,3.1-17.7,7.6-27,8.9v3.1c8.3,0.9,11.3,3.5,11.3,10.9v48.9c0,10.1-2.6,10.1-11.6,10.7v3.7H806.7L806.7,143L806.7,143
	L806.7,143z"/>
<path class="st0" d="M598.4,143v-3.7c-10.2-0.6-12.8-0.6-12.8-10.7V77.1c0-3.1,5.2-8,10.8-8c5.2-0.1,6.1,6,12.6,6
	c8,0,9.9-4.3,9.9-10.1c0-6-6.5-9.5-13.8-9.5c-8.6,0-15.2,7.4-19.9,14V56.3c-9,4.1-18.8,8-27.8,9.4v3.1c8.9,0.9,12.4,3,12.4,10.6
	v49.2c0,10.1-2.6,10.1-11.2,10.7v3.7H598.4L598.4,143L598.4,143L598.4,143z"/>
<path class="st0" d="M681.6,61.6l2.9-10.7h-34.3V33.6h-2c-8,9.5-15.7,17.6-25,25.8v2.3h10.9v58.6c0,13.9,6.3,25.5,21.3,25.5
	c12.9,0,22.8-9.4,28.1-15.7l-2.4-3.3c-4.7,5.3-10.9,8.3-16.6,8.3c-11.5,0-14.4-6.2-14.4-16.9V61.6H681.6L681.6,61.6L681.6,61.6
	L681.6,61.6z"/>
</svg>
