<svg width="100" height="100" viewBox="0 0 100 100" fill="none" xmlns="http://www.w3.org/2000/svg">
<g clip-path="url(#clip0_342_7)">
<path d="M73.1308 31.4174L68.9985 31.4094L63.5399 18.6499L50.5687 13.138L37.3792 18.433L32.0258 31.313L27.9986 31.4174L34.8076 15.8458L50.5687 9L66.5401 15.6368L73.1308 31.4174Z" fill="#140A44"/>
<path d="M48.3287 51.336L52.6875 51.4485L52.6147 56.0364L93 56.3578L92.9272 33.394L8.25878 33.5788L8 56.5989L48.4985 55.8275L48.3287 51.336Z" fill="#4975BD"/>
<path d="M52.7036 65.0516L48.5066 65.0034V60.6243L8.16173 60.1985L8.32346 89.5018L92.9919 90L92.6927 60.5761L52.5823 60.1503L52.7036 65.0516Z" fill="#4975BD"/>
</g>
<defs>
<clipPath id="clip0_342_7">
<rect width="85" height="81" fill="white" transform="translate(8 9)"/>
</clipPath>
</defs>
</svg>
