<svg width="100" height="100" viewBox="0 0 100 100" fill="none" xmlns="http://www.w3.org/2000/svg">
<g clip-path="url(#clip0_349_74)">
<path d="M95.6306 9.76685C95.5854 9.41 95.5552 9.14426 95.5477 9C92.8329 15.4993 87.4486 25.3013 69.7273 24.2763C64.5391 24.0485 60.7083 23.4563 57.707 22.6363C54.3437 21.7176 52.0286 20.5104 50.0001 19.1893C47.9716 20.5028 45.6565 21.71 42.2932 22.6363C39.2994 23.4563 35.4686 24.0485 30.2729 24.2763C12.5516 25.3013 7.16732 15.4993 4.45256 9C4.45256 9.14426 4.41486 9.41 4.36961 9.76685C3.84174 14.2693 1.48895 34.1315 20.907 39.9702L36.1247 91H63.8755L79.0932 39.9702C98.5113 34.1239 96.1585 14.2693 95.6306 9.76685ZM35.3103 50.0304V46.0367L38.6886 44.0398L42.067 46.0367V50.0304L38.6886 52.0272L35.3103 50.0304ZM39.8876 80.8107L50.0001 72.1628L60.1126 80.8107H39.8876ZM64.6899 50.0304L61.3116 52.0272L57.9332 50.0304V46.0367L61.3116 44.0398L64.6899 46.0367V50.0304Z" fill="#4975BD"/>
</g>
<defs>
<clipPath id="clip0_349_74">
<rect width="92" height="82" fill="white" transform="translate(4 9)"/>
</clipPath>
</defs>
</svg>
