<svg width="100" height="100" viewBox="0 0 100 100" fill="none" xmlns="http://www.w3.org/2000/svg">
<g clip-path="url(#clip0_342_3)">
<path d="M22.92 16.19L4 16.15L4.04 35.07L23.03 35.17L22.92 16.19Z" fill="#4975BD"/>
<path d="M96.02 16L29.05 16.38L28.92 34.35L95.93 34.92L96.02 16Z" fill="#9BC6DE"/>
<path d="M95.94 41.27L29.02 41.26L28.92 59.34L95.96 59.04L95.94 41.27Z" fill="#9BC6DE"/>
<path d="M95.95 66.24L29.02 65.27L28.93 83.33L96.05 83.42L95.95 66.24Z" fill="#9BC6DE"/>
<path d="M22.98 41.23L4.03001 41.19L4.01001 59.09L23.01 59.16L23.06 41.13L22.98 41.23Z" fill="#4975BD"/>
<path d="M22.98 65.18H4.02999L4.01999 83.09L21.98 83.13L23 65.13L22.98 65.18Z" fill="#4975BD"/>
</g>
<defs>
<clipPath id="clip0_342_3">
<rect width="92.05" height="67.42" fill="white" transform="translate(4 16)"/>
</clipPath>
</defs>
</svg>
