<svg width="100" height="100" viewBox="0 0 100 100" fill="none" xmlns="http://www.w3.org/2000/svg">
<g clip-path="url(#clip0_342_6)">
<path d="M7.21062 82.3712L93.9676 83L94 32.3892L7.23492 33.1148L7.21062 82.3712ZM57.0291 69.787L76.7782 70.5045V73.7695L57.0129 74.5837L57.0291 69.7951V69.787ZM29.3656 43.6916L32.1684 40.7733L50.5567 57.0578L32.5897 73.9952L29.8841 70.8109L44.5866 57.0658L29.3737 43.6916H29.3656Z" fill="#9BC6DE"/>
<path d="M7.0405 16.0887L7 28.9066L93.7408 28.4391V16.2902L7.0405 16.0887ZM18.3813 25.0935L14.9223 24.9161L14.5659 20.8128H18.5352L18.3813 25.0935ZM29.6654 25.0935L26.2064 24.9161L25.85 20.8128H29.8193L29.6654 25.0935ZM40.9494 25.0935L37.4905 24.9161L37.1341 20.8128H41.1034L40.9494 25.0935Z" fill="#4975BD"/>
</g>
<defs>
<clipPath id="clip0_342_6">
<rect width="87" height="67" fill="white" transform="translate(7 16)"/>
</clipPath>
</defs>
</svg>
