<svg width="100" height="100" viewBox="0 0 100 100" fill="none" xmlns="http://www.w3.org/2000/svg">
<g clip-path="url(#clip0_342_8)">
<path d="M41.245 45.65L33.9766 65.9584L54.1215 58.6338L41.245 45.65Z" fill="#76658C"/>
<path d="M45.3664 41.6894L58.2182 54.6732L65.4865 34.3565L45.3664 41.6894Z" fill="#76658C"/>
<path d="M49.7274 5L9.29733 27.8604L9.43774 72.355L49.7274 94.4117L91 72.9516L89.918 28.0013L49.7274 5ZM59.1184 59.7192L59.6223 60.0838L59.5397 60.3572V60.3986L29.7395 70.2007L39.4692 40.2891L40.4768 40.6371L40.5346 40.9271L39.9978 40.1897V40.1565L70.3183 29.4927L59.3167 59.7772L59.1184 59.7192Z" fill="#9CC7DF"/>
<path d="M59.3663 59.8766L59.3828 59.8435L59.3497 59.8518L59.3663 59.8766Z" fill="#F7F1E9"/>
<path d="M40.0391 40.4879L40.0639 40.5045L40.0721 40.4714L40.0391 40.4879Z" fill="#F7F1E9"/>
<path d="M40.0886 40.4382L40.0721 40.4714L40.1052 40.4631L40.0886 40.4382Z" fill="#F7F1E9"/>
<path d="M59.4158 59.8269L59.391 59.8103L59.3828 59.8435L59.4158 59.8269Z" fill="#F7F1E9"/>
</g>
<defs>
<clipPath id="clip0_342_8">
<rect width="82" height="90" fill="white" transform="translate(9 5)"/>
</clipPath>
</defs>
</svg>
