<svg width="100" height="100" viewBox="0 0 100 100" fill="none" xmlns="http://www.w3.org/2000/svg">
<g clip-path="url(#clip0_342_10)">
<path d="M89.7626 38.9819L75.5105 11.0085L78.2802 7.98045L75.55 5L67.4704 13.0218L70.3272 15.8517L72.3609 13.9334L85.8375 39.1404L73.4451 67.4071L45.1703 81.2392L20.4012 69.6503L21.6515 68.176L19.325 65.4175L15.5819 68.826L15.5107 69.1827L11.0079 73.1064L13.9913 75.8253L17.2121 73.0588L40.715 83.8233L27.4442 90.9732L28.5283 95L61.8677 94.7781L62.9598 90.997L49.5702 83.752L76.4601 70.2845L89.7626 38.9819ZM54.3578 91.0842L36.3547 90.561L45.2099 85.7495L54.3578 91.0842Z" fill="#150944"/>
<path d="M73.089 23.9686L73.2631 57.9584L45.2099 72.7259L17.0459 58.0218L17.2833 23.9449L45.2099 9.07433L73.089 23.9686Z" fill="#4975BD"/>
</g>
<defs>
<clipPath id="clip0_342_10">
<rect width="79" height="90" fill="white" transform="translate(11 5)"/>
</clipPath>
</defs>
</svg>
