<svg width="100" height="100" viewBox="0 0 100 100" fill="none" xmlns="http://www.w3.org/2000/svg">
<g clip-path="url(#clip0_349_67)">
<path d="M16.4091 33.712V27.9316H5V62.6209H16.4091V56.8405V33.712Z" fill="#DE7048"/>
<path d="M64.1781 50.8278L55.5237 42.0629L40.8177 46.9573L35.1204 41.1843L45.6113 32.0127L39.6754 26L25.7358 31.8166L20.024 32.9785V57.5449L26.2853 58.7722L41.3166 74L47.8165 72.8672L48.9371 66.2735L55.2707 65.1697L55.7768 63.1365L56.5576 58.5543L63.0502 57.4215L64.1781 50.8278Z" fill="#F7C480"/>
<path d="M94.9928 31.7876H83.5837V66.4841H94.9928V31.7876Z" fill="#76658B"/>
<path d="M60.3462 29.1153H54.3453L50.8531 32.1725L56.3842 37.7785L60.0209 36.5658L61.1632 40.0151L59.2256 40.6614L68.0535 49.6079L66.1809 60.5585L59.6883 61.6914L59.5799 62.3595L73.7291 60.2172L79.8891 58.656V36.4932L71.5962 34.8157L60.3462 29.1153Z" fill="#F7C480"/>
<path d="M48.1202 34.5616L52.5523 39.0566L42.0036 42.5713L40.601 41.1407L48.1202 34.5616Z" fill="#F7C480"/>
<path d="M40.601 41.1407L42.0036 42.564L52.5523 39.0566L48.1202 34.5616L40.601 41.1407Z" fill="#F7C480"/>
<path d="M63.0502 57.4215L63.0647 57.3707L62.9996 57.4287L63.0502 57.4215Z" fill="#F7C480"/>
<path d="M55.1116 64.9374L55.8129 62.9259L53.7379 63.0203L55.1116 64.9374Z" fill="#F7C480"/>
<path d="M60.0209 36.5658L56.3842 37.7785L59.2256 40.6542L61.1632 40.0151L60.0209 36.5658Z" fill="#F7C480"/>
<path d="M52.5523 39.0566L56.3842 37.7785L50.8532 32.1725L48.1202 34.5616L52.5523 39.0566Z" fill="#F7C480"/>
</g>
<defs>
<clipPath id="clip0_349_67">
<rect width="90" height="48" fill="white" transform="translate(5 26)"/>
</clipPath>
</defs>
</svg>
