<svg width="100" height="100" viewBox="0 0 100 100" fill="none" xmlns="http://www.w3.org/2000/svg">
<g clip-path="url(#clip0_342_11)">
<path d="M69.4039 54.7163L75.6385 50.0574L75.6671 40.7038L69.4325 36.0663L69.4039 54.7163Z" fill="#76658B"/>
<path d="M27.1918 58.775L66.3295 79.6472L66.0292 12L27.1561 32.5864L27.1918 58.775Z" fill="#76658B"/>
<path d="M11.8914 56.717L24.0531 56.6813L24.0674 34.087L11.8699 34.0227L6 45.3841L11.8914 56.717Z" fill="#76658B"/>
<path d="M28.3716 85.235L27.056 77.4749L22.7733 73.7235L25.5045 66.0849L23.0307 60.2827L12.349 60.2327L16.0883 87L28.3716 85.235Z" fill="#76658B"/>
<path d="M91.9113 46.0344C91.7183 46.0487 91.5181 46.013 91.325 45.9987C91.2392 45.9987 91.1606 45.9629 91.0748 46.0201C90.9246 46.113 90.56 45.7843 90.5242 45.8843C90.4456 46.1058 88.8155 45.9201 88.6939 45.9701C88.6367 45.9915 88.5795 45.9844 88.5152 45.9915C88.458 46.0058 88.3936 46.0344 88.3364 46.0487C88.2864 46.0558 88.2435 46.0487 88.1934 46.0344C88.1434 46.0201 88.1005 45.9772 88.0504 45.9844C87.9503 46.0058 87.457 45.9629 87.3498 46.0272C87.3283 46.0415 87.2997 45.9987 87.2783 45.9844C87.1067 45.8486 85.9198 45.8629 85.6696 45.7914C85.6267 45.7772 85.5909 45.7772 85.548 45.82C85.3907 45.9844 83.8392 45.62 83.7963 45.8343C83.782 45.8986 83.7463 45.9129 83.7177 45.9129C83.6676 45.9129 83.6247 45.9058 83.5747 45.8772C83.5389 45.8558 83.5032 45.87 83.4603 45.9058C83.3674 45.9915 83.2673 45.8915 83.1815 45.77C83.16 45.7414 83.1386 45.6057 83.1386 45.5128C83.1171 44.8054 83.0957 44.0908 83.0742 43.3834C83.0742 43.3691 83.0742 43.3548 83.0742 43.3334C83.0814 42.7617 83.1743 42.2044 83.3102 42.3901C83.4246 42.5474 84.1109 42.5259 84.1753 42.5831C84.2897 42.676 84.9188 42.5688 85.1262 42.5545C85.1762 42.5545 86.6991 42.7403 86.9279 42.6688C87.0995 42.6117 87.4999 42.6545 87.5357 42.6545C87.5786 42.6545 89.1443 42.5759 89.2659 42.5474C89.2945 42.5474 89.3302 42.5616 89.3588 42.5474C89.6305 42.4688 89.8951 42.4402 90.1668 42.4902C90.1739 42.4902 90.1811 42.4973 90.1882 42.4902C90.3884 42.3687 90.5957 42.4545 90.7959 42.4402C91.1177 42.4187 91.4394 42.3973 91.754 42.3901C91.847 42.3901 91.9327 42.4259 92.0257 42.4402C92.1401 42.4616 92.2473 42.4973 92.3546 42.383C92.376 42.3616 92.3975 42.3544 92.4118 42.3687C92.5119 42.4473 92.6191 42.333 92.7192 42.333C92.8479 42.3401 92.9766 42.333 93.1125 42.333C93.1268 42.333 93.1411 42.333 93.1625 42.333C93.3412 42.2901 93.52 42.2401 93.6987 42.2115C93.7488 42.2044 93.7988 42.2472 93.8489 42.2901C93.9204 42.3544 93.9919 42.3616 94.0634 42.3044C94.1635 42.2258 94.2135 42.3473 94.2493 42.7117C94.2707 42.9332 94.285 43.1619 94.2636 43.412C94.2421 43.7192 94.2278 44.0336 94.2064 44.3409C94.1849 44.6839 94.1349 45.7486 94.0491 45.8629C94.0276 45.8915 93.999 45.9201 93.9776 45.8986C93.8131 45.7486 93.6487 45.8558 93.4914 45.8415C93.3484 45.8272 93.1983 45.8843 93.0553 45.82C92.9552 45.7772 92.8551 45.7914 92.7621 45.8843C92.6763 45.9629 91.9828 46.0058 91.8898 46.0058L91.9113 46.0344Z" fill="#140A44"/>
<path d="M92.755 23.3829C92.5619 23.4901 92.3546 23.5544 92.1544 23.6473C92.0686 23.683 91.9756 23.6973 91.9185 23.7902C91.8112 23.9474 91.2964 23.8331 91.3036 23.9474C91.325 24.1832 89.6162 24.8335 89.5161 24.9406C89.4661 24.9907 89.4017 25.0121 89.3517 25.0478C89.3016 25.0907 89.2516 25.1479 89.2016 25.1836C89.1587 25.2122 89.1086 25.2265 89.0514 25.2408C89.0014 25.255 88.9299 25.2408 88.887 25.2693C88.794 25.3336 88.2864 25.548 88.2077 25.6552C88.1934 25.6766 88.1505 25.6552 88.1148 25.6552C87.8788 25.6195 86.7063 26.2268 86.4203 26.284C86.3774 26.2912 86.3345 26.3126 86.3131 26.3698C86.2273 26.5984 84.5113 27.0414 84.5614 27.2558C84.5757 27.3201 84.5471 27.3558 84.5185 27.3701C84.4756 27.3987 84.4184 27.413 84.3612 27.4059C84.3111 27.4059 84.2825 27.4345 84.2611 27.4845C84.2039 27.6131 84.068 27.5702 83.9179 27.5059C83.8893 27.4916 83.8035 27.3773 83.7606 27.2915C83.4174 26.6699 83.0814 26.0411 82.7453 25.4194C82.7382 25.4051 82.731 25.3908 82.7239 25.3765C82.4736 24.8549 82.3164 24.3118 82.538 24.4119C82.7167 24.4976 83.4031 24.1332 83.4889 24.1475C83.639 24.1761 84.2253 23.7616 84.4327 23.6473C84.4827 23.6187 86.0914 23.0256 86.2845 22.847C86.4275 22.7112 86.8564 22.5469 86.885 22.5326C86.9279 22.5111 88.458 21.6608 88.5652 21.5751C88.5938 21.5536 88.6367 21.5536 88.6653 21.5322C88.9013 21.325 89.1587 21.1678 89.4446 21.0749C89.4518 21.0749 89.4661 21.0749 89.4732 21.0677C89.6234 20.8605 89.8593 20.8319 90.0595 20.7176C90.367 20.539 90.6815 20.3603 90.9961 20.1888C91.0819 20.1388 91.1963 20.1317 91.2893 20.1031C91.4108 20.0674 91.5395 20.0388 91.5967 19.8816C91.6039 19.853 91.6253 19.8387 91.6539 19.8387C91.7898 19.8601 91.8398 19.7029 91.9471 19.6529C92.0829 19.5957 92.2116 19.5243 92.3403 19.46C92.3546 19.4528 92.376 19.4528 92.3903 19.4385C92.5548 19.3099 92.7049 19.1813 92.8765 19.067C92.9266 19.0312 92.9981 19.0455 93.0624 19.067C93.1625 19.0884 93.234 19.067 93.2841 18.9741C93.3484 18.8526 93.4556 18.9384 93.6558 19.2456C93.7774 19.4385 93.8918 19.6315 93.9847 19.8673C94.0991 20.1531 94.2278 20.4389 94.3494 20.7248C94.4781 21.0392 94.907 22.0181 94.8713 22.1682C94.8641 22.2039 94.8498 22.2396 94.8212 22.2325C94.5925 22.1824 94.4781 22.3539 94.3065 22.4254C94.1563 22.4897 94.0348 22.6112 93.856 22.6255C93.7416 22.6398 93.6415 22.7041 93.5915 22.8256C93.5414 22.9399 92.8622 23.3257 92.7693 23.3758L92.755 23.3829Z" fill="#140A44"/>
<path d="M91.0676 70.1507C90.8674 70.065 90.6887 69.9364 90.4956 69.8292C90.417 69.7863 90.3455 69.7148 90.2382 69.722C90.0452 69.7363 89.8307 69.2504 89.7449 69.3218C89.5662 69.479 88.0218 68.5001 87.8788 68.4858C87.8073 68.4787 87.7573 68.4358 87.6929 68.4215C87.6286 68.4001 87.5571 68.4001 87.4927 68.3786C87.4427 68.3643 87.3998 68.3286 87.3569 68.3C87.314 68.2643 87.2854 68.2 87.2353 68.1857C87.1281 68.15 86.6491 67.8713 86.5204 67.8784C86.4918 67.8784 86.4846 67.8356 86.4703 67.807C86.3559 67.5998 85.1691 67.021 84.9546 66.828C84.9188 66.7995 84.8759 66.778 84.8259 66.7923C84.5971 66.8638 83.21 65.7562 83.067 65.9277C83.0241 65.9777 82.9812 65.9706 82.9526 65.9634C82.9026 65.942 82.8597 65.9062 82.824 65.8634C82.7954 65.8276 82.7525 65.8205 82.7024 65.8277C82.5666 65.8562 82.5165 65.7205 82.4808 65.5704C82.4736 65.5347 82.5165 65.4061 82.5523 65.3132C82.8454 64.6701 83.1457 64.0198 83.4388 63.3767C83.4388 63.3624 83.4531 63.3481 83.4603 63.3338C83.7248 62.8265 84.068 62.3692 84.1181 62.605C84.161 62.7979 84.8545 63.1266 84.8974 63.2052C84.9689 63.341 85.6481 63.5625 85.8626 63.6554C85.9126 63.6768 87.3569 64.6129 87.6143 64.6558C87.8073 64.6915 88.1934 64.9345 88.2292 64.9487C88.2721 64.9702 89.8665 65.6776 90.0023 65.7205C90.038 65.7276 90.0595 65.7633 90.0952 65.7705C90.4027 65.8348 90.6815 65.942 90.9318 66.1206C90.9389 66.1206 90.9461 66.1349 90.9532 66.1349C91.2106 66.1349 91.375 66.3064 91.5824 66.3922C91.9113 66.5351 92.2402 66.6708 92.5691 66.8209C92.662 66.8638 92.7335 66.9424 92.8193 67.0067C92.9194 67.0781 93.0195 67.171 93.1768 67.121C93.2054 67.1139 93.2268 67.121 93.2411 67.1424C93.3055 67.2639 93.4628 67.2067 93.5629 67.2639C93.6916 67.3354 93.8203 67.3997 93.949 67.464C93.9633 67.4711 93.9776 67.4854 93.9919 67.4926C94.192 67.5426 94.3922 67.5926 94.5781 67.6569C94.6353 67.6784 94.6639 67.7427 94.6997 67.807C94.7426 67.8999 94.8069 67.9427 94.907 67.9284C95.0429 67.907 95.0429 68.0499 94.907 68.3858C94.8284 68.593 94.7354 68.8074 94.6067 69.0217C94.4494 69.279 94.2921 69.5576 94.1348 69.8292C93.9561 70.1221 93.4342 71.0511 93.2983 71.1154C93.2626 71.1297 93.2268 71.144 93.2125 71.1154C93.1196 70.901 92.9051 70.9153 92.7478 70.8224C92.6048 70.7367 92.4404 70.7152 92.3188 70.5866C92.2402 70.5009 92.1329 70.4651 91.9971 70.4937C91.8755 70.5223 91.1606 70.2079 91.0676 70.165V70.1507Z" fill="#140A44"/>
</g>
<defs>
<clipPath id="clip0_342_11">
<rect width="89" height="75" fill="white" transform="translate(6 12)"/>
</clipPath>
</defs>
</svg>
