<svg width="100" height="100" viewBox="0 0 100 100" fill="none" xmlns="http://www.w3.org/2000/svg">
<g clip-path="url(#clip0_342_13)">
<path d="M89 72.0919L50.5 94.4559L12 72.0919V27.364L50.5 5L89 27.364V72.0919Z" fill="#F7C480"/>
<path d="M60.0999 70.4022H35.6106V66.2607H58.9784L63.975 58.8309L58.9784 51.4011H40.9001C40.1971 51.4011 39.5443 51.0532 39.1593 50.4817L32.7566 40.9811C32.2879 40.2854 32.2879 39.3825 32.7566 38.6868L39.1593 29.1862C39.5443 28.6064 40.1971 28.2668 40.9001 28.2668H65.3895V32.4083H42.0217L37.0167 39.8381L42.0217 47.2679H60.0999C60.803 47.2679 61.4558 47.6158 61.8408 48.1873L68.2351 57.6879C68.7038 58.3836 68.7038 59.2865 68.2351 59.9822L61.8408 69.4828C61.4558 70.0626 60.803 70.4022 60.0999 70.4022Z" fill="#140A44"/>
<path d="M52.5924 21.9304H48.4076V32.4083H52.5924V21.9304Z" fill="#140A44"/>
<path d="M52.5924 66.2607H48.4076V77.5255H52.5924V66.2607Z" fill="#140A44"/>
</g>
<defs>
<clipPath id="clip0_342_13">
<rect width="77" height="89.4559" fill="white" transform="translate(12 5)"/>
</clipPath>
</defs>
</svg>
