<svg width="100" height="100" viewBox="0 0 100 100" fill="none" xmlns="http://www.w3.org/2000/svg">
<g clip-path="url(#clip0_342_9)">
<path d="M88.57 41.7909L70.0595 50.9845L51.4988 41.8267L51.2258 19.1292L70.0595 10L88.5915 19.3082L88.57 41.7909Z" fill="#F7C480"/>
<path d="M42.2867 55.2806L26.5859 63.1567L10.8204 55.3164L10.9138 35.9268L26.5859 27.886L42.5095 35.7836L42.2867 55.2806Z" fill="#F7C480"/>
<path d="M96 64.7821L70.0595 55.2376L44.0903 64.6747L44.0256 70.1808L51.5563 72.9876L51.7359 82.8327L95.9784 82.9544L96 64.7821Z" fill="#DE7048"/>
<path d="M48.2796 75.3146L48.1503 90L5.09341 89.7995L5 75.3218L26.5859 67.1234L44.2412 73.725L48.2796 75.3146Z" fill="#76658B"/>
</g>
<defs>
<clipPath id="clip0_342_9">
<rect width="91" height="80" fill="white" transform="translate(5 10)"/>
</clipPath>
</defs>
</svg>
