<svg width="100" height="100" viewBox="0 0 100 100" fill="none" xmlns="http://www.w3.org/2000/svg">
<g clip-path="url(#clip0_342_14)">
<path d="M11.4501 7.09715L11 92.6922L11.1236 93.5436L11.9797 93.1398L88.8262 94L89.5675 93.4295L89.7882 92.6922L89.9382 28.4959L90 28.0219L89.7087 27.627L68.3149 6.27209L67.9442 6L67.4853 6.57929H11.9797" fill="#F7C480"/>
<path d="M50.3985 30.6727L28.8811 30.7341L28.9076 26.3982L50.4161 26.2226L50.3985 30.6727Z" fill="#140A44"/>
<path d="M71.9071 51.9222L28.8988 51.9573L28.8723 47.5248L71.9159 48.6571L71.9071 51.9222Z" fill="#140A44"/>
<path d="M71.9071 73.3561L28.8723 73.6457L28.8811 69.0904L71.9159 69.1781L71.9071 73.3561Z" fill="#140A44"/>
</g>
<defs>
<clipPath id="clip0_342_14">
<rect width="79" height="88" fill="white" transform="translate(11 6)"/>
</clipPath>
</defs>
</svg>
